<?xml version="1.0" encoding="utf-8"?>
<!-- Generator: Adobe Illustrator 27.5.0, SVG Export Plug-In . SVG Version: 6.00 Build 0)  -->
<svg version="1.1" xmlns="http://www.w3.org/2000/svg" xmlns:xlink="http://www.w3.org/1999/xlink" x="0px" y="0px"
	 viewBox="0 0 750 500" style="enable-background:new 0 0 750 500;" xml:space="preserve">
<g id="BACKGROUND">
</g>
<g id="OBJECTS">
	<path style="opacity:0.5;fill:#9DCEBE;" d="M178.902,441.132c34.531,2.733,70.522-0.581,106.156-1.078
		c91.339-1.276,182.777-2.961,274.05,1.801c36.659,1.913,75.681,0.106,107.616-20.073c34.831-22.008,54.631-62.465,61.109-103.155
		c6.769-42.519,5.983-95.584-9.734-135.816C662.568,40.659,475.946,52.63,365.61,114.772
		c-23.218,13.077-47.286,26.745-73.783,31.722c-27.575,5.179-48.827-8.038-73.559-18.138c-34.575-14.12-74.644-15.165-109.279-1.19
		C-3.001,172.356-8.326,328.84,76.769,402.003C107.776,428.663,142.529,438.253,178.902,441.132z"/>
	<g>
		<g>
			<path style="fill:#F3B2A7;" d="M461.173,248.403l2.05-11.662l-29.351-46.813c-0.959-1.179-1.675-2.536-2.105-3.994
				l-15.231-50.986l-14.659-0.079l8.58,57.154c0.991,6.82,3.049,13.441,6.1,19.621l35.669,61.262L461.173,248.403z"/>
			<g>
				<path style="fill:#F3B2A7;" d="M419.37,143.65c0,0-3.076-7.033-3.623-12.914c-0.547-5.881,0.412-7.381-0.026-12.406
					c-0.438-5.026,0.603-12.835-0.194-12.941c-0.796-0.105-3.684-0.206-4.104,3.431c-0.42,3.637-1.161,7.391-1.161,7.391
					l-7.304-14.967c0,0-2.819-5.919-5.036-4.588c-2.261,1.357,4.844,12.617,3.985,13.254c-1.231,0.912-5.681-5.87-5.681-5.87
					s-4.508-7.477-6.751-6.189c-2.243,1.288,6.766,13.248,6.766,13.248s1.074,2.244-0.531,1.873
					c-1.605-0.371-8.043-10.411-10.288-9.657c-2.244,0.753,4.189,8.654,4.189,8.654s4.287,4.055,2.363,4.808
					c-1.924,0.753-8.355-6.293-9.636-5.006c-1.281,1.286,4.078,6.457,6.327,8.139c2.25,1.682,4.93,4.671,6.326,7.449
					s3.345,6.42,6.763,7.268l3.109,10.028L419.37,143.65z"/>
				<path style="opacity:0.24;fill:#F3B2A7;" d="M409.927,116.702c0,0-2.806,7.405-1.986,10.494l-2.472-4.542
					C405.469,122.654,408.709,118.535,409.927,116.702z"/>
			</g>
		</g>
		<path style="fill:#FFF9E2;" d="M501.242,252.765c0,0-8.868-26.068-23.827-26.675c-17.542-0.712-40.299-36.162-40.299-36.162
			l-16.217-54.98l-22.613,5.27c0,0,4.852,52.129,10.418,67.732c7.753,21.73,47.813,72.336,47.813,72.336L501.242,252.765z"/>
		<path style="fill:#221E1F;" d="M500.432,167.516l0.811-13.261c0,0-21.615-0.464-28.27,20.959
			c-6.782,21.831-1.95,50.452-1.95,50.452l19.041,5.982l0.461-59.061L500.432,167.516z"/>
		<path style="fill:#221E1F;" d="M498.152,167.516l2.261-13.261c0,0,18.992,1.399,24.079,19.84
			c6.022,21.831,4.064,52.202,4.064,52.202l-17.799,5.35l-2.698-59.061L498.152,167.516z"/>
		<polygon style="fill:#221E1F;" points="495.915,196.398 521.892,190.019 524.175,235.712 476.727,231.648 478.278,187.853 		"/>
		<g>
			<path style="fill:#F3B2A7;" d="M535.984,251.574l-2.05-11.662l28.463-35.276c0.959-1.179,2.563-14.073,2.993-15.531
				l15.231-50.986l14.659-0.079l-8.58,57.154c-0.991,6.82-3.049,13.441-6.1,19.621l-35.669,61.262L535.984,251.574z"/>
			<g>
				<path style="fill:#F3B2A7;" d="M577.787,146.821c0,0,3.076-7.033,3.623-12.914c0.547-5.881-0.412-7.381,0.026-12.406
					c0.438-5.026-0.603-12.835,0.194-12.941s3.684-0.206,4.104,3.431s1.161,7.391,1.161,7.391l7.304-14.967
					c0,0,2.819-5.919,5.036-4.588c2.261,1.357-4.844,12.617-3.985,13.254c1.231,0.912,5.681-5.87,5.681-5.87
					s4.508-7.477,6.751-6.189c2.243,1.288-6.766,13.248-6.766,13.248s-1.074,2.244,0.531,1.873
					c1.605-0.371,8.043-10.411,10.288-9.657c2.244,0.753-4.189,8.654-4.189,8.654s-4.287,4.055-2.363,4.808s8.355-6.292,9.636-5.006
					c1.281,1.286-4.078,6.457-6.327,8.139c-2.25,1.682-4.93,4.671-6.326,7.449c-1.396,2.778-3.345,6.42-6.762,7.268l-3.109,10.028
					L577.787,146.821z"/>
				<path style="opacity:0.24;fill:#F3B2A7;" d="M587.23,119.873c0,0,2.806,7.405,1.986,10.494l2.472-4.542
					C591.688,125.825,588.448,121.705,587.23,119.873z"/>
			</g>
		</g>
		<path style="fill:#FFF9E2;" d="M495.915,255.936c0,0,18.936-29.088,33.896-29.695c17.542-0.712,31.349-26.429,31.349-26.429
			l15.099-61.693l22.613,5.27c0,0-4.852,52.129-10.418,67.732c-7.753,21.73-49.043,73.455-49.043,73.455L495.915,255.936z"/>
		<path style="fill:#F3B2A7;" d="M485.889,196.652v27.163c0,0,12.464,4.273,19.735,3.517c7.271-0.755,7.831-5.31,7.831-5.31
			l-1.237-25.37H485.889z"/>
		<path style="opacity:0.64;fill:#F3B2A7;" d="M490.28,203.888l-3.589,6.22c0,0,9.983,12.673,26.764,11.914l-0.839-22.853
			L490.28,203.888z"/>
		<path style="fill:#FFF9E2;" d="M469.725,224.27c-12.475-1.158-19.961,85.952-6.135,131.333c0,0,20.649,0.079,22.818-0.553
			c2.168-0.632,7.153,4.356,17.624,0.281c0,0,25.238,9.358,27.042,2.805c16.457-59.803,5.594-132.127,5.594-132.127
			S501.242,227.194,469.725,224.27z"/>
		<g>
			<path style="fill:#F9E4B9;" d="M484.891,218.954c0,0,6.665,5.157,14.379,5.641c0,0-1.514,11.391-10.464,11.112
				c-8.949-0.28-13.629-10.4-13.629-10.4L484.891,218.954z"/>
			<path style="fill:#F9E4B9;" d="M513.65,218.954c0,0-6.665,5.157-14.379,5.641c0,0,1.514,10.273,10.464,9.993
				c8.95-0.28,13.629-8.163,13.629-8.163L513.65,218.954z"/>
		</g>
		<path style="fill:#006E58;" d="M574.062,443.086c-0.188-0.57-0.376,0.567-0.562,0c-7.667-23.366-13.342-63.113-23.777-84.78
			c-10.435-21.667-24.454-23.593-24.454-23.593l0,0l-38.096,6.656l-19.32-4.452l-3.242-3.319c0,0-12.001,6.701-23.58,27.779
			c-11.579,21.078-18.139,58.786-27.045,81.709c-0.289,0.743-0.582-0.747-0.879,0H574.062z"/>
		<path style="opacity:0.65;fill:#006E58;" d="M573.5,443.086c-7.667-23.366-13.342-63.113-23.777-84.78
			c-10.435-21.667-24.454-23.593-24.454-23.593l-6.006,1.049c3.903,3.586,8.345,9.053,12.183,17.247
			c-0.106,0.38-16.768,59.903-11.884,53.175c4.899-6.749,12.425-25.078,12.578-9.481c0.153,15.597-28.929,49.122-20.821,46.383
			c8.108-2.739,18.827-12.887,18.502-9.531c-0.325,3.356-6.455,9.531-6.455,9.531h23.025h10.947h16.727
			C573.874,442.516,573.686,443.653,573.5,443.086z"/>
		<g>
			<path style="fill:#024386;" d="M484.891,217.835c0,0,6.665,5.157,14.379,5.641c0,0-1.514,11.392-10.464,11.112
				c-8.949-0.28-13.629-10.4-13.629-10.4L484.891,217.835z"/>
			<path style="fill:#024386;" d="M513.65,217.835c0,0-6.665,5.157-14.379,5.641c0,0,1.514,10.273,10.464,9.993
				c8.95-0.28,13.629-8.163,13.629-8.163L513.65,217.835z"/>
		</g>
		<path style="fill:#F3B2A7;" d="M478.071,181.659c0.633-12.687,7.162-23.798,22.114-23.258
			c22.991,0.831,23.506,39.182,11.771,51.507c-7.116,7.473-19.55,7.078-25.266,0.199
			C480.874,203.107,477.562,191.873,478.071,181.659z"/>
		<path style="opacity:0.24;fill:#F3B2A7;" d="M518.016,178.103c-1.278-4.904-2.443-9.671-5.145-13.311l-11.613,6.179
			c0,0-1.593,9.921-0.944,14.841c1.443,10.935,5.513,10.396,2.308,13.675c-2.591,2.65,2.122,8.966-0.392,15.759
			c4.057-0.761,10.506-5.406,12.339-8.901C519.258,197.404,520.88,189.095,518.016,178.103z"/>
		<path style="fill:#221E1F;" d="M517.37,189.051"/>
		<path style="fill:#221E1F;" d="M508.337,160.106c0,0,3.29-6.969-13.787-2.842c-17.078,4.127-17.822,24.579-17.822,24.579
			l34.217-0.228l1.557-12.288l1.464,12.351l3.232,0.067C519.438,164.201,508.337,160.106,508.337,160.106z"/>
		<path style="fill:#F3B2A7;" d="M482.343,183.203c0,0-2.576-6.128-6.272-1.845c-3.696,4.283,1.058,16.389,7.941,10.952"/>
		<path style="fill:#F3B2A7;" d="M516.614,183.203c0,0,2.576-6.128,6.272-1.845c3.696,4.283-1.058,16.389-7.941,10.952"/>
		<path style="opacity:0.24;fill:#F3B2A7;" d="M516.614,183.203c0,0,2.576-6.128,6.272-1.845c3.696,4.283-1.058,16.389-7.941,10.952
			"/>
		<path style="fill:#006E58;" d="M455.917,324.742c0,0,46.63,9.509,82.428,0v15.995c0,0-28.154,13.93-82.428,0V324.742z"/>
		<path style="fill:#F9E4B9;" d="M437.403,203.888c-2.366,2.566-0.287-13.959-0.287-13.959l4.132,5.403
			C441.248,195.331,439.557,201.551,437.403,203.888z"/>
		<path style="fill:#F9E4B9;" d="M561.279,212.128c1.245-1.9-0.119-12.876-0.119-12.876l-3.825,6.248
			C557.335,205.5,560.032,214.029,561.279,212.128z"/>
		<polygon style="fill:#F9E4B9;" points="422.186,232.746 457.636,265.079 455.619,279.622 		"/>
		<polygon style="fill:#F9E4B9;" points="573.606,239.57 540.505,268.435 539.165,284.432 		"/>
		<g>
			<path style="fill:#F9E4B9;" d="M505.199,257.186c0.77,2.194-0.74,4.721-3.372,5.645c-2.632,0.924-5.391-0.105-6.161-2.299
				c-0.77-2.194,0.74-4.721,3.372-5.645C501.671,253.963,504.429,254.992,505.199,257.186z"/>
			<path style="fill:#F9E4B9;" d="M505.235,278.763c-0.721,2.21-3.456,3.301-6.108,2.436c-2.652-0.865-4.218-3.358-3.497-5.569
				c0.721-2.21,3.456-3.301,6.108-2.436C504.39,274.059,505.956,276.552,505.235,278.763z"/>
			<path style="fill:#F9E4B9;" d="M504.941,293.254c1.048,2.075-0.12,4.777-2.61,6.036c-2.49,1.258-5.359,0.596-6.407-1.479
				c-1.049-2.075,0.12-4.777,2.61-6.035C501.024,290.517,503.893,291.179,504.941,293.254z"/>
			<path style="fill:#F9E4B9;" d="M505.235,315.436c-0.721,2.21-3.456,3.301-6.108,2.436c-2.652-0.865-4.218-3.358-3.497-5.569
				c0.721-2.21,3.456-3.301,6.108-2.436C504.39,310.732,505.956,313.225,505.235,315.436z"/>
		</g>
		<g>
			<path style="fill:#024386;" d="M504.08,256.067c0.77,2.194-0.74,4.721-3.372,5.645c-2.632,0.924-5.391-0.105-6.161-2.299
				c-0.77-2.194,0.74-4.721,3.372-5.645C500.552,252.845,503.31,253.874,504.08,256.067z"/>
			<path style="fill:#024386;" d="M504.116,277.644c-0.721,2.21-3.456,3.301-6.108,2.436c-2.652-0.865-4.218-3.358-3.497-5.569
				c0.721-2.21,3.456-3.301,6.108-2.436C503.272,272.94,504.837,275.433,504.116,277.644z"/>
			<path style="fill:#024386;" d="M503.823,292.136c1.048,2.075-0.12,4.777-2.61,6.035c-2.49,1.258-5.359,0.596-6.407-1.479
				c-1.049-2.075,0.12-4.777,2.61-6.036C499.905,289.398,502.774,290.061,503.823,292.136z"/>
			<path style="fill:#024386;" d="M504.116,314.317c-0.721,2.21-3.456,3.301-6.108,2.436c-2.652-0.865-4.218-3.358-3.497-5.569
				c0.721-2.21,3.456-3.301,6.108-2.436C503.272,309.613,504.837,312.107,504.116,314.317z"/>
		</g>
		<path style="opacity:0.65;fill:#006E58;" d="M455.917,324.742c0,0,46.63,9.509,82.428,0v15.995c0,0-28.154,13.93-82.428,0V324.742
			z"/>
	</g>
	<g>
		<g>
			<path style="fill:#F3B2A7;" d="M183.752,116.547c0,0,0.987-8.843,3.845-15.064c2.858-6.221,4.69-7.17,7.162-12.47
				c2.472-5.299,8.042-12.536,7.303-13.103c-0.738-0.567-3.579-2.341-6.108,1.066c-2.529,3.408-5.448,6.747-5.448,6.747
				l1.339-19.257c0,0,0.599-7.575-2.397-7.524c-3.056,0.052-2.447,15.473-3.678,15.614c-1.764,0.202-2.302-9.185-2.302-9.185
				s-0.193-10.118-3.191-10.125c-2.998-0.007-0.883,17.219-0.883,17.219s-0.221,2.875-1.618,1.572
				c-1.396-1.302-2.043-15.111-4.732-15.655c-2.69-0.544-0.809,11.115-0.809,11.115s1.954,6.555-0.413,6.196
				c-2.367-0.359-4.742-11.158-6.773-10.609c-2.031,0.549,0.352,8.845,1.636,11.837s2.242,7.546,2.035,11.143
				c-0.208,3.598-0.362,8.384,2.578,11.214l-2.69,11.869L183.752,116.547z"/>
			<path style="opacity:0.24;fill:#F3B2A7;" d="M189.885,84.023c0,0-7.107,5.808-8.074,9.384l0.15-5.992
				C181.962,87.415,187.602,85.157,189.885,84.023z"/>
		</g>
		<path style="fill:#024386;" d="M212.229,351.081l-8.902,4.713c0,0-5.237,50.636,2.095,87.292h41.647l6.006-48.28l7.331,48.28
			h43.987c0,0,10.997-66.346-9.949-100.907C273.496,307.617,212.229,351.081,212.229,351.081z"/>
		<path style="opacity:0.55;fill:#024386;" d="M296.312,359.035c0,0-3.667-2.524-14.483-3.307l1.386,4.294
			c2.452,7.595,3.591,15.538,3.566,23.519c-0.011,3.555,0.225,7.117,1.043,9.116c2.045,4.998,5.762,16.973,5.762,16.973
			l12.867-12.43l-1.136-28.169L296.312,359.035z"/>
		<path style="fill:#FFF9E2;" d="M190.369,101.899l2.132,76.364c0,0,12.758,22.374,26.344,28.502
			c13.644,6.154-10.673,81.007-21.139,69.206c-9.381-10.577-30.081-59.226-37.495-77.828c-2.335-5.86-3.214-12.191-2.57-18.466
			l9.261-79.698L190.369,101.899z"/>
		<path style="fill:#F3B2A7;" d="M309.946,372.024l1.2,19.268c0.118,1.89-0.35,3.771-1.34,5.385l-5.631,9.184
			c-0.675,1.1-1.605,2.018-2.71,2.684c-1.833,1.103-4.69,2.755-6.238,3.306c-1.225,0.436-1.583-0.854-1.64-2.222
			c-0.066-1.576,0.621-3.09,1.81-4.127l2.778-2.421c0.463-0.403,0.779-0.948,0.898-1.55l2.06-10.36
			c0.106-0.534-0.121-1.079-0.575-1.38l-1.298-0.86c-0.815-0.54-1.915-0.055-2.067,0.911l-1.307,8.352
			c-0.199,1.273-1.792,1.737-2.644,0.77l-1.051-1.193c-0.512-0.581-0.863-1.287-1.016-2.046l-1.827-9.031
			c-0.328-1.622-0.076-3.309,0.712-4.764l5.806-10.715L309.946,372.024z"/>
		<path style="fill:#221E1F;" d="M272.913,159.969c0,0,4.252,13.424,1.362,21.162l-0.932-1.492c0,0,0.466,6.339-2.517,9.136
			l-0.839-1.771c0,0-1.923,6.122-3.153,8.017l-0.576-1.305l-2.372,6.511l-10.214-3.333l-2.415-9.222c0,0,5.118-15.418,5.771-15.92
			C257.681,171.249,272.913,159.969,272.913,159.969z"/>
		<path style="fill:#FFF9E2;" d="M266.044,210.708c0,0,7.732-3.141,20.377-0.971s19.827,12.059,30.266,47.768
			s9.889,53.84,9.889,53.84l-9.929,64.372l-24.133-3.356v-67.609L266.044,210.708z"/>
		<path style="fill:#221E1F;" d="M225.099,159.969c0,0-4.252,13.424-1.362,21.162l0.932-1.492c0,0-0.466,6.339,2.517,9.136
			l0.839-1.771c0,0,1.923,6.122,3.153,8.017l0.576-1.305l2.372,6.511l10.214-3.333l2.415-9.222c0,0-5.118-15.418-5.771-15.92
			C240.331,171.249,225.099,159.969,225.099,159.969z"/>
		<path style="fill:#F3B2A7;" d="M237.608,187.941l-1.794-1.587l-0.308,11.378c-0.063,2.34-1.543,4.408-3.738,5.221l0,0
			c-3.712,1.377-4.156,6.462-0.726,8.439c4.847,2.793,11.421,5.529,17.964,4.966c6.975-0.6,13.71-3.026,18.376-5.098
			c2.574-1.143,2.544-4.805-0.041-5.923l0,0c-2.048-0.886-3.397-2.88-3.456-5.111l-0.412-15.493L237.608,187.941z"/>
		<path style="fill:#FFF9E2;" d="M235.503,208.499c0,0,47.446-9.256,57.058,14.086c9.611,23.342,3.457,88.892,3.457,88.892
			l3.099,48.057c0,0-10.298-8.925-31.807,0c-21.509,8.925-61.184,28.887-68.861,4.806c-8.734-27.398-1.103-73.095,0-133.185
			C198.649,220.299,198.431,200.948,235.503,208.499z"/>
		<path style="fill:#F9E4B9;" d="M226.173,212.179c0,0,19.296,7.905,38.204,4.731c2.47-0.415,4.778-1.632,6.331-3.597
			c0.897-1.135,1.637-2.588,1.791-4.372c0.439-5.096-11.521,0-11.521,0L226.173,212.179z"/>
		<path style="fill:#FFF9E2;" d="M230.342,197.959c6.519-2.602,8.268,3.825,28.474-0.192c4.241-0.843,10.895-1.879,13.279,2.868
			c1.171,2.332,0.403,8.306,2.393,9.479c3.076,1.813-6.433,3.27-9.637,3.721c-10.686,1.501-21.663,1.662-32.363,0.203
			c-2.619-0.37-11.575-0.956-9.758-3.274C228.709,203.135,224.66,200.227,230.342,197.959z"/>
		<path style="fill:#F9E4B9;" d="M241.273,191.898l-5.714,3.869c0,0,3.311,10.712,14.972,10.922
			c9.329,0.168,14.794-15.858,14.794-15.858L241.273,191.898z"/>
		<g>
			<path style="fill:#F3B2A7;" d="M226.339,162.095c1.514-13.936,9.423-25.756,25.86-24.198
				c25.274,2.396,23.371,44.679,9.649,57.501c-8.32,7.775-21.993,6.538-27.846-1.408
				C228.046,185.904,225.12,173.314,226.339,162.095z"/>
			<path style="opacity:0.33;fill:#F3B2A7;" d="M270.574,160.75c-1.092-5.485-2.068-10.811-4.81-14.995l-13.191,6.059
				c0,0-2.394,10.827-1.996,16.289c0.885,12.14,5.404,11.808,1.662,15.214c-3.025,2.753,1.76,10.014-1.447,17.336
				c4.518-0.577,11.549-4.482,13.685-8.277C269.94,182.669,273.021,173.044,270.574,160.75z"/>
		</g>
		<path style="fill:#221E1F;" d="M266.833,150.134c0,0-7.954,4.712-18.582,4.605c-10.627-0.107-15.015-3.542-17.94-6.287
			c-2.925-2.745-5.362-8.552-5.167-12.961c0.195-4.409,0.628-1.075,3.337,1.183c2.708,2.258,2.416-0.67,0.953-3.346
			c-1.462-2.676-1.462-6.01,0.293-4.934c1.755,1.075,5.167,4.839,7.605,4.731c2.438-0.108-2.047-2.043-1.17-3.333
			c0.877-1.29,2.827,3.118,9.652,3.333c6.825,0.215,15.405,0,19.792,3.979C269.994,141.082,266.833,150.134,266.833,150.134z"/>
		<path style="fill:#221E1F;" d="M258.333,144.324c0,0-0.386,8.357,7.153,14.035c4.769,3.592,6.048,13.392,6.048,13.392l0.69-1.071
			c0,0,2.61-1.5,2.61-7.071c0-5.571-0.839-8.892-0.839-8.892s1.585,4.821,1.585,3.321c0-1.5,0.746-2.675-1.212-6.105
			c-1.958-3.43-1.399-3.336-1.399-3.336l2.331,2.37c0,0-1.773-4.641-3.506-7.499c-2.497-4.12-6.378-6.025-10.853-5.704
			C256.466,138.085,258.333,144.324,258.333,144.324z"/>
		<path style="fill:#221E1F;" d="M238.482,144.458c0,0-0.923,8.445-7.153,14.318c-6.666,6.284-5.255,14.428-5.255,14.428
			l-1.482-1.858c0,0-2.61-1.53-2.61-7.214c0-5.684,0.839-9.072,0.839-9.072s-1.585,4.919-1.585,3.388
			c0-1.53-0.746-2.729,1.212-6.228s1.399-3.403,1.399-3.403l-2.331,2.418c0,0,1.773-4.735,3.506-7.651
			c2.497-4.203,6.378-6.147,10.853-5.819C240.349,138.092,238.482,144.458,238.482,144.458z"/>
		<path style="fill:#F3B2A7;" d="M229.983,166.168c0,0-1.578-4.08-4.849-3.496c-4.696,0.839-5.773,14.403,3.575,14.403"/>
		<path style="fill:#F3B2A7;" d="M268.066,166.168c0,0,1.578-4.08,4.849-3.496c4.696,0.839,5.773,14.403-3.575,14.403"/>
		<path style="opacity:0.33;fill:#F3B2A7;" d="M268.066,166.168c0,0,1.578-4.08,4.849-3.496c4.696,0.839,5.773,14.403-3.575,14.403"
			/>
		<polygon style="fill:#F9E4B9;" points="189.161,194.298 192.656,178.135 195.831,182.861 		"/>
		<path style="fill:#F9E4B9;" d="M171.066,224.056l29.186,34.145l-2.545,17.769C197.707,275.97,176.423,243.459,171.066,224.056z"/>
		<polygon style="fill:#F9E4B9;" points="292.694,357.106 296.312,304.97 285.392,248.766 290.276,304.752 281.829,355.728 		"/>
		<path style="opacity:0.55;fill:#024386;" d="M244.855,378.306c0,0-1.707,11.769-2.284,15.691
			c-3.925,26.675-14.517,31.423-11.23,31.423c3.287,0,6.656,0,6.656,0l-8.482,17.665h6.574h3.652h7.326l6.006-48.28L244.855,378.306
			z"/>
	</g>
	<g>
		<path style="fill:#FA9900;" d="M334.308,218.077l-6.65-2.739c0,0,3.138-16.24,27.19-21.434
			c28.024-6.052,34.897-1.644,43.952,9.559"/>
		<path style="fill:#F3B2A7;" d="M353.939,190.489l-1.93-1.417l0.727,11.359c0.15,2.337-1.137,4.529-3.249,5.54l-8.039,3.844
			c0,0,13.84,10.187,26.423,7.94c12.584-2.247,23.819-10.486,23.819-10.486l-6.561-2.154c-2.12-0.696-3.644-2.559-3.906-4.776
			l-1.818-15.391L353.939,190.489z"/>
		<path style="opacity:0.74;fill:#F3B2A7;" d="M353.939,190.489l-1.461,5.919c0,0,7.281,8.97,17.414,9.106
			c10.133,0.136,12.545-2.277,12.545-2.277s-1.474-2.503-2.448-15.384L353.939,190.489z"/>
		<path style="fill:#221E1F;" d="M366.944,140.747c0,0,14.527-8.469,18.199-1.746c3.672,6.722,0.481,6.991,3.954,11.016
			c2.759,3.197,3.621,7.402,1.242,12.431c-1.823,3.853-1.497,8.404,0.729,12.039c0.032,0.053,0.057,0.112,0.098,0.159
			c6.076,6.926-1.821,16.411-6.115,16.021c-8.16-0.743-10.614,2.629-10.136,4.818c0.478,2.188-17.647-1.411-17.647-1.411
			s-8.24,2.3-12.042,2.001c-3.802-0.299-9.021-1.598-9.12-6.79c-0.099-5.192,5.727-7.751,1.468-11.066
			c-4.259-3.315-10.553-11.962-5.44-19.025c5.936-8.201,16.16-11.621,16.16-11.621L366.944,140.747z"/>
		<path style="fill:#F3B2A7;" d="M341.471,165.707c0.228-13.19,6.63-24.944,22.168-24.889c23.892,0.085,25.723,39.876,13.959,53.066
			c-7.133,7.998-20.053,8.008-26.218,1.061C345.105,187.875,341.287,176.325,341.471,165.707z"/>
		<path style="opacity:0.27;fill:#F3B2A7;" d="M382.813,160.665c-1.492-5.047-2.862-9.956-5.79-13.643l-11.845,6.806
			c0,0-1.319,10.352-0.478,15.437c1.867,11.302,6.074,10.605,2.858,14.116c-2.599,2.839,2.505,9.235,0.125,16.371
			c4.185-0.927,10.623-4.505,12.176-8.298C383.613,182.286,386.157,171.978,382.813,160.665z"/>
		<g>
			<polygon style="fill:#667EA2;" points="385.342,353.779 385.342,405.911 374.423,443.086 338.334,443.086 335.542,361.591 
				339.899,333.405 365.129,331.39 380.443,340.196 			"/>
			<polygon style="opacity:0.09;fill:#667EA2;" points="385.342,353.779 385.342,405.911 374.423,443.086 338.334,443.086 
				335.542,361.591 339.899,333.405 365.129,331.39 380.443,340.196 			"/>
		</g>
		<path style="fill:#221E1F;" d="M378.327,140.529c0,0-3.896,15.657-9.695,15.369c-5.799-0.289-8.426-1.822-10.185,0.202
			c-1.759,2.024-0.863,7.085-5.448,7.63c-4.584,0.545-7.182-2.075-8.942,1.192c-1.761,3.267-8.671,7.567-10.346,3.517
			c-1.676-4.05-0.173,4.013-0.173,4.013s-6.9-8.217-1.035-14.964c4.362-5.018,1.685-5.926,1.992-10.726
			c0.308-4.801,4.089-8.469,11.351-8.608c7.261-0.139,8.702-8.357,15.534-6.29s5.518,4.234,10.296,3.344
			c4.778-0.891,10.432-0.943,13.467,3.793C388.177,143.737,378.327,140.529,378.327,140.529z"/>
		<path style="fill:#667EA2;" d="M418.178,317.226c0,0,10.279,21.572,11.725,52.133c1.446,30.561-2.563,73.727-2.563,73.727h-41.998
			l-8.594-111.935l-0.074,0.24L418.178,317.226z"/>
		<g>
			<path style="fill:#F3B2A7;" d="M417.007,140.626c0,0-6.316-5.267-12.202-7.588c-5.887-2.321-7.716-1.782-12.755-3.736
				c-5.039-1.954-13.384-3.217-13.255-4.068c0.13-0.851,0.889-3.852,4.757-3.197c3.867,0.655,7.951,1.015,7.951,1.015
				l-13.214-11.989c0,0-5.246-4.67-3.215-6.553c2.072-1.92,11.531,8.756,12.443,8.062c1.306-0.993-4.341-7.599-4.341-7.599
				s-6.344-6.873-4.349-8.795c1.996-1.923,11.606,10.921,11.606,10.921s1.987,1.776,2.085,0.014
				c0.098-1.762-8.306-11.387-6.859-13.47c1.446-2.084,7.651,6.897,7.651,6.897s2.89,5.622,4.24,3.868s-3.975-10.477-2.27-11.41
				c1.706-0.933,5.424,6.125,6.482,8.942c1.058,2.817,3.332,6.468,5.772,8.735c2.44,2.267,5.605,5.361,5.455,9.13l9.387,6.196
				L417.007,140.626z"/>
			<path style="opacity:0.24;fill:#F3B2A7;" d="M392.108,122.855c0,0,8.456-0.673,11.389,1.095l-3.933-3.901
				C399.564,120.048,394.357,122.151,392.108,122.855z"/>
		</g>
		<path style="fill:#F3B2A7;" d="M345.776,167.921c0,0-2.107-6.802-6.495-2.622c-4.388,4.18-0.584,17.585,7.322,12.507"/>
		<path style="fill:#221E1F;" d="M385.7,168.157c0,0,0.268-6.481-2.97-6.336c-4.097,0.184-4.75-2.906-4.518-6.407
			c0.388-5.837-5.549,2.354-11.703,0.315c-3.804-1.26-2.435-8.46-2.435-8.46l3.793-5.292l12.788-0.819l6.867,10.045L385.7,168.157z"
			/>
		<g>
			<path style="fill:#F3B2A7;" d="M381.895,164.929c0,0,0.816-6.027,5.102-3.124s2.97,14.732-4.406,11.568"/>
			<path style="opacity:0.24;fill:#F3B2A7;" d="M381.895,164.929c0,0,0.816-6.027,5.102-3.124s2.97,14.732-4.406,11.568"/>
		</g>
		<path style="fill:#FFF9E2;" d="M343.751,209.191c0,0,9.089,7.164,25.468,3.569c16.379-3.595,17.131-7.246,17.131-7.246
			l14.029,4.128l8.789,16.302c0,0,6.591,13.982,6.591,15.18c0,1.198-3.595,19.575-3.595,19.575l5.793,64.317
			c0,0-10.288,13.742-37.103,17.338c-26.815,3.595-43.512-6.552-43.512-6.552v-47.938v-36.753v-31.16l-1.68-9.987L343.751,209.191z"
			/>
		<path style="fill:#F3B2A7;" d="M278.512,353.001l-12.48,14.73c-1.224,1.445-1.973,3.232-2.145,5.118l-0.975,10.728
			c-0.117,1.285,0.08,2.577,0.569,3.772c0.81,1.98,2.113,5.012,3.024,6.379c0.721,1.082,1.779,0.262,2.643-0.801
			c0.995-1.224,1.349-2.849,1.015-4.39l-0.78-3.601c-0.13-0.6-0.057-1.226,0.207-1.78l4.541-9.537
			c0.234-0.492,0.742-0.793,1.286-0.763l1.555,0.086c0.976,0.054,1.569,1.101,1.112,1.966l-3.945,7.477
			c-0.602,1.14,0.398,2.464,1.659,2.198l1.556-0.328c0.758-0.16,1.461-0.516,2.038-1.033l6.863-6.147
			c1.233-1.105,2.039-2.607,2.276-4.245l1.751-12.061L278.512,353.001z"/>
		<g>
			<defs>
				<path id="SVGID_1_" d="M343.751,209.191c0,0,9.089,7.164,25.468,3.569c16.379-3.595,17.131-7.246,17.131-7.246l14.029,4.128
					l8.789,16.302c0,0,6.591,13.982,6.591,15.18c0,1.198-3.595,19.575-3.595,19.575l5.793,64.317c0,0-10.288,13.982-37.103,17.577
					c-26.815,3.595-43.512-6.791-43.512-6.791v-47.938v-36.753v-31.16l-1.68-9.987L343.751,209.191z"/>
			</defs>
			<clipPath id="SVGID_00000043449593423626860310000003459195433609371038_">
				<use xlink:href="#SVGID_1_"  style="overflow:visible;"/>
			</clipPath>
			<path style="clip-path:url(#SVGID_00000043449593423626860310000003459195433609371038_);fill:#024386;" d="M332.067,226.064
				c0,0,24.263,8.844,73.552-2.793v25.872c0,0-32.805,13.692-73.552,3.917V226.064z"/>
			<path style="clip-path:url(#SVGID_00000043449593423626860310000003459195433609371038_);fill:#024386;" d="M334.464,268.772
				c0,0,24.263,8.844,73.552-2.793v25.872c0,0-32.805,13.691-73.552,3.917V268.772z"/>
			<path style="clip-path:url(#SVGID_00000043449593423626860310000003459195433609371038_);fill:#024386;" d="M336.861,312.678
				c0,0,24.263,8.844,73.552-2.793v25.872c0,0-32.805,13.692-73.552,3.917V312.678z"/>
		</g>
		<path style="fill:#FA9900;" d="M384.452,203.458c0,0-1.816,2.408-0.189,16.086c1.627,13.677-1.923,25.686-0.482,39.697
			c1.441,14.011-4.272,28.022,2.421,45.702s6.895,62.715,6.895,62.715l2.8,6.005c0,0,28.355-0.334,39.364-9.341
			c0,0,1.334-15.679-1.668-28.022c-3.002-12.343-11.676-33.692-12.343-49.538s0.828-37.154,0.828-37.154l-11.503-34.736
			l6.005-18.475C416.58,196.398,404.228,207.462,384.452,203.458z"/>
		<path style="fill:#FA9900;" d="M394.296,211.538l4.254-6.606c8.692-5.604,20.672-13.253,25.724-22.277l4.65-8.306l-26.687-39.538
			c0,0,12.093-8.34,15.721-15.679c0,0,28.313,18.504,39.656,35.939l7.005,12.832c0,0,1.668,49.971-51.373,88.668L394.296,211.538z"
			/>
		<path style="fill:#FA9900;" d="M341.447,209.814c0,0,5.413,5.393,8.415,17.736c3.002,12.343,7.339,27.688,7.673,44.701
			c0.334,17.013,0,45.035,0,53.708c0,8.673,4.135,51.706,4.135,51.706s-29.154,1.334-33.491-5.337c0,0,3.67-32.692,4.003-41.365
			c0.334-8.673,0.334-15.012,0.667-29.356c0.334-14.344-5.004-30.69-4.67-41.032c0.334-10.341-7.672-36.361-7.672-36.361
			S329.029,208.758,341.447,209.814z"/>
		<path style="fill:#FA9900;" d="M335.662,224.214l-8.004-8.876c0,0-10.821,4.205-13.49,22.219
			c-2.669,18.014-10.675,57.711-10.675,57.711s-7.006,8.673-10.008,14.678c-3.002,6.005-19.015,44.368-19.015,44.368
			s12.343,9.34,18.681,9.674c0,0,34.982-40.031,42.51-54.709C343.19,294.602,335.662,224.214,335.662,224.214z"/>
		<path style="fill:#FA9900;" d="M393.098,205.514l5.703-2.051c0,0-1.653,2.882-3.839,6.299c-1.68,2.626-6.038,9.709-8.849,17.314
			L393.098,205.514z"/>
		<path style="fill:#FA9900;" d="M333.548,214.434l-5.889,1.428c0,0,5.971,3.502,9.203,6.686c2.221,2.188,6.942,5.888,12.284,13.183
			L333.548,214.434z"/>
		<path style="fill:#FA9900;" d="M351.282,204.63c-4.054,14.817-0.512,26.041,1.196,33.54c0,0-11.03-18.666-24.82-22.831
			C327.658,215.338,354.767,191.89,351.282,204.63z"/>
		<path style="fill:#FA9900;" d="M381.913,201.254c3.153,10.593,2.658,30.952,2.658,30.952s4.607-16.578,7.328-20.668
			c5.034-7.566,6.901-8.075,6.901-8.075S378.493,189.761,381.913,201.254z"/>
		<path style="fill:#FA9900;" d="M352.478,198.279c0,0-6.695,3.644-3.066,19.799c0,0-0.188-10.842,1.87-13.448
			C351.282,204.63,353.577,201.613,352.478,198.279z"/>
		<path style="fill:#FA9900;" d="M380.758,196.398c0,0,0.264,5.504,1.678,6.838l1.15,6.722
			C383.587,209.959,384.957,201.158,380.758,196.398z"/>
		<polygon style="fill:#FA9900;" points="332.666,266.591 332.666,314.34 318.311,333.787 327.658,305.541 		"/>
		<path style="fill:#FA9900;" d="M443.643,225.082c0,0-20.527,11.99-24.608,19.037c-5.504,9.504,2.085,38.045,2.085,38.045
			l0.959-32.555C422.078,249.609,436.477,236.242,443.643,225.082z"/>
		<polygon style="fill:#FA9900;" points="436.036,187.853 429.043,174.35 426.574,178.761 		"/>
		<polygon style="fill:#FA9900;" points="303.493,295.269 310.727,289.663 304.054,292.466 		"/>
		<polygon style="opacity:0.42;fill:#667EA2;" points="379.172,364.063 383.096,417.352 374.423,443.086 367.034,443.086 		"/>
	</g>
	<g>
		<path style="fill:#221E1F;" d="M177.986,188.842l3.027-18.954c0,0,13.154,25.647,2.969,51.418c0,0-4.37,20.394-3.837,24.029
			c0.533,3.636-12.52,0-12.52,0l-13.796-5.275l-1.678-34.217L177.986,188.842z"/>
		<path style="fill:#221E1F;" d="M167.967,208.42l12.179-7.081c0,0-1.564,14.23-3.281,22.794
			c-1.717,8.565,1.044,28.109,1.044,28.109l-22.122-0.516l-0.72-19.028"/>
		<path style="fill:#F3B2A7;" d="M165.752,220.076c0,0-3.875,12.362-3.321,14.946c0.553,2.583,16.438,4.982,23.165,13.285
			c6.727,8.303-23.219,12.362-23.219,12.362l-18.397,4.244l-27.123-28.6l4.982-13.654l19.213,7.381l4.221-16.791L165.752,220.076z"
			/>
		<path style="opacity:0.58;fill:#F3B2A7;" d="M165.752,220.076c0,0-3.81,12.882-3.321,14.946
			c0.489,2.064,14.435,6.799,14.435,6.799s-15.654,5.473-25.148-1.239c-9.494-6.712-7.116-23.772-7.116-23.772L165.752,220.076z"/>
		<path style="fill:#221E1F;" d="M148.796,179.591l-10.761-7.673c0,0-12.29,14.483-14.468,43.251l12.615,10.293l5.973,0.122
			l9.998-29.384L148.796,179.591z"/>
		<path style="fill:#F3B2A7;" d="M141.862,187.924c3.86-11.694,12.824-20.395,26.659-16.039
			c21.272,6.699,11.873,42.674-2.269,51.169c-8.575,5.151-20.094,1.579-23.663-6.322
			C138.956,208.691,138.755,197.338,141.862,187.924z"/>
		<path style="opacity:0.24;fill:#F3B2A7;" d="M180.109,194.891c0.069-4.912,0.209-9.667-1.379-13.765l-12.445,2.783
			c0,0-4.045,8.861-4.706,13.627c-1.469,10.591,2.474,11.136-1.366,13.375c-3.104,1.81-0.327,8.926-4.426,14.627
			c3.987,0.334,11.211-2.345,13.824-5.14C176.298,213.249,179.954,205.901,180.109,194.891z"/>
		<g>
			<path style="fill:#A1B84E;" d="M167.967,357.575c0,0,14.048,26.185,16.527,85.511H63.769c0,0-0.08-27.5,10.871-62.144
				s22.891-42.701,22.891-42.701"/>
			<g>
				<path style="fill:#A1B84E;" d="M95.216,355.268c0,0-12.546,14.203-14.338,63.192c0,0,10.754-45.405,25.092-59.146"/>
				<path style="fill:#A1B84E;" d="M162.056,356.413c0,0,10.658,15.669,6.267,64.495c0,0-4.951-46.397-17.445-61.834"/>
				<path style="fill:#A1B84E;" d="M114.573,356.899c0,0-9.177,16.58-0.331,64.797c0,0,0.679-46.656,11.706-63.173"/>
				<path style="fill:#A1B84E;" d="M131.134,357.215c0,0-5.187,21.983,2.621,74.987c0,0,3.202-51.26,9.007-73.313"/>
			</g>
		</g>
		<path style="fill:#221E1F;" d="M177.882,168.041c0,0,2.342,22.032-15.19,22.815c-17.532,0.783-16.972-4.752-25.363,5.345
			c-4.401,5.296-6.044-9.107-4.755-15.076C134.813,170.773,158.865,149.01,177.882,168.041z"/>
		<path style="fill:#221E1F;" d="M170.051,174.709c0,0,4.241,25.095,10.094,26.63c7.805,2.046,9.593-29.42-5.047-35.641
			c-13.139-5.583-4.904,10.548-4.904,10.548l8.535,4.88"/>
		<path style="fill:#F3B2A7;" d="M159.305,276.797l18.603-24.555c0.329-0.434,0.892-0.622,1.411-0.457
			c3.552,1.13,16.625,6.755,16.337,28.306c-0.313,23.421-4.018,44.801-4.466,47.307c-0.03,0.169-0.027,0.325,0.011,0.492
			c0.734,3.29,7.487,41.802,10.659,51.189c3.329,9.85,4.447,17.478,1.119,24.468s-10.942,9.122-11.425,7.79
			c-0.429-1.184,3.853-5.749,3.932-9.444c0.005-0.253,0.153-0.479,0.122-0.73l-0.496-3.967c-0.152-1.212-1.742-1.56-2.386-0.522
			l-1.552,2.501c-0.018,0.03-0.036,0.06-0.052,0.092l-0.757,1.475c-0.597,1.164-2.346,0.812-2.444-0.492
			c-0.239-3.174,0.554-6.942,0.307-7.687c-0.357-1.079,1.398-6.314,2.5-8.258c0.253-0.447,0.218-0.993-0.089-1.405
			c-2.927-3.923-17.626-23.859-20.144-31.943c-2.651-8.512-10.61-67.046-11.443-73.208
			C159.008,277.408,159.099,277.07,159.305,276.797z"/>
		<path style="fill:#F3B2A7;" d="M113.744,241.82l4.607-10.908l-18.134-52.193c-0.671-1.364-1.065-2.847-1.159-4.364l-3.438-53.102
			l-14.27-3.356l-4.425,57.625c-0.56,6.869-0.035,13.783,1.556,20.488l21.059,67.689L113.744,241.82z"/>
		<path style="fill:#006E58;" d="M176.865,241.82l-21.798,28.772c0,0,8.578,63.727,12.236,80.007
			c12.839-18.408,23.799-23.522,23.799-23.522s4.68-25.341,5.053-53.273C196.527,245.873,176.865,241.82,176.865,241.82z"/>
		<g>
			<path style="fill:#F3B2A7;" d="M96.438,130.37c0,0-1.425-7.543-0.642-13.398c0.782-5.855,2.053-7.101,2.75-12.098
				c0.697-4.996,3.459-12.375,2.706-12.656c-0.753-0.281-3.545-1.025-4.768,2.426c-1.223,3.451-2.785,6.944-2.785,6.944
				l-3.771-16.222c0,0-1.424-6.4-3.882-5.599c-2.507,0.817,1.899,13.381,0.919,13.809c-1.403,0.613-4.223-6.993-4.223-6.993
				s-2.721-8.296-5.195-7.542c-2.475,0.754,3.631,14.426,3.631,14.426s0.545,2.427-0.936,1.706
				c-1.481-0.721-5.51-11.946-7.866-11.714c-2.356,0.232,2.147,9.372,2.147,9.372s3.271,4.911,1.227,5.215
				c-2.043,0.303-6.736-8.002-8.272-7.035c-1.536,0.967,2.53,7.206,4.346,9.349c1.816,2.143,3.76,5.656,4.499,8.675
				c0.739,3.02,1.824,7.006,4.965,8.596l0.786,10.47L96.438,130.37z"/>
			<path style="opacity:0.24;fill:#F3B2A7;" d="M93.262,101.992c0,0-4.392,6.589-4.283,9.784l-1.393-4.98
				C87.585,106.796,91.666,103.506,93.262,101.992z"/>
		</g>
		<path style="fill:#006E58;" d="M100.218,178.72c-0.671-1.364-1.065-2.847-1.159-4.364c0,0-7.956,11.993-21.813,14.791
			c0.293,2.305,0.699,4.598,1.237,6.865l18.481,77.898l16.78-32.089c0,0,12.337-15.005,9.212-19.161
			C112.253,208.42,100.218,178.72,100.218,178.72z"/>
		<path style="fill:#006E58;" d="M157.742,245.235c6.31,0.24,14.161-0.252,19.124-3.414c0,0,11.085,4.634,13.882,15.261
			c2.797,10.628-11.822,24.129-13.882,40.871c-2.059,16.742-5.136,42.192-5.136,42.192s5.213,26.339-1.728,30.23
			c-6.941,3.89-16.45,1.423-24.001,0c-7.551-1.423-19.857,5.045-31.323,2.091c-11.466-2.955-16.501-10.226-23.772-10.226
			c-7.271,0-14.543-1.398-12.585-9.229c1.958-7.831,13.984-38.595,14.263-47.824c0.28-9.229,3.636-40.273,3.636-40.273
			s10.584-41.383,22.667-43.606c4.682-0.862,11.852,6.538,11.852,6.538s0.879,2.415,3.436,5.669
			C139.852,240.741,148.557,244.885,157.742,245.235z"/>
		<path style="opacity:0.65;fill:#006E58;" d="M179.103,283.091c0,0-7.986,46.223-7.373,57.053c0.495,8.741,0.637,3.725,0.637,3.725
			l8.648-9.303C181.014,334.567,178.059,313.941,179.103,283.091z"/>
		<path style="fill:#221E1F;" d="M134.813,209.584c0,0-7.271-14.759-10.348-0.83c-3.076,13.929-0.447,23.468,0.509,31.803
			c1.799,15.675-10.186,23.821-10.186,23.821s26.87,6.631,27.02-12.652c0.154-19.682-2.122-15.324,0.78-29.401
			C143.342,218.67,131.177,218.282,134.813,209.584z"/>
		<path style="opacity:0.65;fill:#006E58;" d="M85.377,225.585l17.545,36.93l-9.332,33.695c0,0,1.221-17.984,2.027-25.617
			C96.218,264.913,85.377,225.585,85.377,225.585z"/>
		<path style="fill:#F3B2A7;" d="M144.059,194.35c0,0-0.855-6.592-5.556-3.445c-4.701,3.147-3.335,16.081,4.745,12.668"/>
		<g>
			<path style="fill:#F3B2A7;" d="M175.681,200.707c0,0,2.497-5.099,5.439-1.266c2.942,3.833-1.706,13.924-7.308,8.95"/>
			<path style="opacity:0.24;fill:#F3B2A7;" d="M175.681,200.707c0,0,2.497-5.099,5.439-1.266c2.942,3.833-1.706,13.924-7.308,8.95"
				/>
		</g>
	</g>
	<g>
		<path style="fill:#221E1F;" d="M616.089,177.43c0,0-4.378,4.038-0.987,1.519c7-5.199,23.758-2.87,27.056,17.96
			c2.672,16.878-0.455,23.56,13.835,27.589c8.983,2.533,15.052,8.476,17.743,17.626c2.691,9.151,2.785,18.383,12.776,29.341
			s-5.801,29.789-20.305,30.848c-14.503,1.059-59.489-4.555-59.489-4.555L616.089,177.43z"/>
		<path style="fill:#221E1F;" d="M620.958,176.527c0,0,0.066-2.459-6.964-3.532c-15.208-2.321-24.877,7.67-28.945,22.523
			c-4.084,14.914,2.345,19.181-10.435,27.023c-12.78,7.842-19.001,10.06-21.034,27.488c-2.033,17.428,6.681,16.486,0,27.559
			c-6.681,11.073,7.552,24.725,7.552,24.725l22.656-2.903l14.233-1.454l12.78-0.29l8.423-32.241L620.958,176.527z"/>
		<path style="fill:#221E1F;" d="M596.529,195.168c0,0-10.085,7.938-4.148,27.373c0,0,3.18,5.179-6.005,9.369
			c-9.185,4.19-29.167,15.47-23.688,40.287c5.479,24.817,48.345,18.049,48.345,18.049l44.799-3.868c0,0,17.726,6.025,18.049-3.594
			c0.322-9.62-3.545-31.052-14.844-40.53c-9.882-8.29-25.46-11.522-24.336-19.713c2.043-14.89-11.098-21.509-11.098-21.509
			L596.529,195.168z"/>
		<polygon style="fill:#024386;" points="587.567,370.732 565.973,390.392 565.37,443.086 611.739,443.086 627.726,379.665 		"/>
		<polygon style="opacity:0.1;fill:#024386;" points="587.567,370.732 565.973,390.392 565.37,443.086 611.739,443.086 
			627.726,379.665 		"/>
		<path style="opacity:0.36;fill:#024386;" d="M612.012,379.828l-4.279,19.012c-0.853,3.79-2.208,7.448-4.022,10.884
			c-4.107,7.78-11.21,21.653-9.115,20.721c2.255-1.002,5.705-3.75,7.132-4.927l-0.18,0.799l-9.531,16.769h6.28H598.1h13.639
			l11.28-36.901L612.012,379.828z"/>
		<path style="fill:#024386;" d="M613.441,384.352l34.307-23.506c10.162-6.962,23.885,0.304,26.293,12.385
			c4.865,24.413-2.604,28.982-7.061,48.567l-6.132,21.288h-44.42L613.441,384.352z"/>
		<g>
			<path style="fill:#F3B2A7;" d="M530.659,269.904c0,0-2.993-7.084-3.468-12.982c-0.474-5.898,0.506-7.388,0.13-12.428
				c-0.376-5.04,0.765-12.85-0.032-12.966c-0.796-0.116-3.688-0.253-4.154,3.385s-1.256,7.389-1.256,7.389l-7.129-15.085
				c0,0-2.75-5.965-4.987-4.66c-2.282,1.331,4.695,12.7,3.826,13.327c-1.244,0.898-5.617-5.952-5.617-5.952
				s-4.422-7.547-6.685-6.285c-2.263,1.262,6.611,13.356,6.611,13.356s1.048,2.261-0.555,1.869
				c-1.603-0.392-7.927-10.53-10.184-9.803c-2.258,0.727,4.088,8.722,4.088,8.722s4.243,4.116,2.307,4.846
				c-1.936,0.73-8.291-6.408-9.59-5.136c-1.299,1.272,4.004,6.519,6.236,8.233c2.232,1.713,4.879,4.741,6.243,7.541
				c1.364,2.8,3.27,6.473,6.683,7.365l2.988,10.085L530.659,269.904z"/>
			<path style="opacity:0.24;fill:#F3B2A7;" d="M521.537,242.79c0,0-2.904,7.382-2.121,10.487l-2.42-4.581
				C516.996,248.697,520.294,244.611,521.537,242.79z"/>
		</g>
		<path style="fill:#BD262B;" d="M641.701,245.358c0,0-14.982,3.057-39.953,0.757c-30.817-2.838-30.013,12.408-28.686,35.613
			c1.327,23.205,2.704,51.133,2.704,51.133s-12.693,53.663-9.793,57.53c2.901,3.867,74.089,22.162,108.897-0.077
			c0,0,5.841-9.623-10.622-48.544c-13.404-31.688-4.97-63.706-4.97-63.706S666.046,243.867,641.701,245.358z"/>
		<path style="fill:#BD262B;" d="M589.013,246.372c0,0-9.262-2.222-18.425,6.409c-9.144,8.613-21.093,49.129-21.093,49.129
			l-21.854-42.586c0,0-4.766,2.816-14.683,4.262c0,0,2.309,91.839,31.183,89.056c13.611-1.312,35.871-28.393,35.871-28.393
			l1.109-65.536L589.013,246.372z"/>
		<path style="fill:#BD262B;" d="M573.061,292.995l2.128,36.73c0,0-18.63,21.965-31.047,22.915c0,0,11.941-6.064,16.573-14.531
			c4.398-8.039-0.737-9.893,0.935-12.502C566.98,317.29,573.061,292.995,573.061,292.995z"/>
		<polygon style="fill:#BD262B;" points="639.134,277.588 651.415,322.307 622.053,364.931 645.53,320.885 		"/>
		<polygon style="fill:#BD262B;" points="640.907,358.133 612.003,394.859 671.4,360.891 664.248,341.771 		"/>
		<path style="fill:#EA9883;" d="M597.225,392.245c-0.528-1.283,1.202-1.995,5.589-3.822c0.164-0.068,0.964-0.991,1.147-1.07
			c0.686-0.365-5.489,2.405-6.127,1.258c-0.846-1.523,0.347-2.366,5.896-4.727c3.576-1.521,6.996-2.725,7.314-4.056
			c0.818-3.426-8.931-2.31-5.262-4.317c1.223-0.669,4.446-1.77,6.126-2.229c3.209-0.876,2.732-0.953,8.831-1.169
			c9.579-0.34,16.639-15.744,14.15-4.368c-0.833,3.808-1.951,7.787-4.497,11.451c-5.06,7.284-13.242,13.475-18.39,15.663
			c-0.333,0.142-0.659,0.289-0.981,0.43c-2.572,1.258-5.037,1.764-5.508,1.16c-0.718-0.92,2.345-2.628,4.746-3.607
			c0.688-0.281-7.949,3.184-8.761,2.164c-0.864-1.085,3.013-2.902,5.856-4.092C608.143,390.582,598.028,394.196,597.225,392.245z"/>
		<path style="fill:#BD262B;" d="M635.491,246.982h0.967c0,0,20.725-8.07,31.357,12.061c7.45,14.105,12.836,47.422,14.415,65.015
			c0.704,7.848-1.561,15.688-6.416,21.893c-7.997,10.22-25.03,24.975-44.071,37.529l-10.785-14.049l30.457-47.124l-16.81-44.252
			C630.513,267.284,627.331,255.115,635.491,246.982z"/>
		<path style="fill:#F3B2A7;" d="M603.633,226.699l-1.858-1.527l0.105,11.429c0.021,2.351-1.388,4.479-3.562,5.376l-8.272,3.413
			c0,0,11.281,7.66,26.057,7.479c12.835-0.157,24.459-7.271,24.459-7.271l-6.459-2.52c-2.088-0.815-3.513-2.766-3.654-5.003
			l-0.977-15.532L603.633,226.699z"/>
		<path style="opacity:0.69;fill:#F3B2A7;" d="M604.27,222.541l-2.965-2.894l0,11.379c0,0,5.158,14.877,19.653,15.942
			c14.648,1.076,20.849-0.628,20.743-1.61c0,0-10.843-1.318-11.162-6.402c-0.318-5.085-1.067-16.415-1.067-16.415H604.27z"/>
		<path style="fill:#F3B2A7;" d="M592.494,201.167c0.953-13.213,8.018-24.646,23.595-23.737
			c23.951,1.399,23.599,41.396,11.079,53.974c-7.592,7.627-20.547,6.927-26.346-0.377
			C594.92,223.593,591.727,211.803,592.494,201.167z"/>
		<path style="opacity:0.27;fill:#F3B2A7;" d="M634.223,198.383c-1.219-5.143-2.323-10.14-5.056-13.997l-12.25,6.173
			c0,0-1.891,10.307-1.328,15.452c1.251,11.435,5.507,10.966,2.09,14.311c-2.762,2.703,2.005,9.397-0.774,16.421
			c4.247-0.7,10.898-3.933,12.664-7.651C633.837,220.105,636.954,209.91,634.223,198.383z"/>
		<polygon style="fill:#BD262B;" points="553.579,317.126 549.495,301.909 551.537,295.345 		"/>
		<path style="fill:#221E1F;" d="M585.849,199.107c0.665-6.795,6.532-24.252,28.145-26.113c8.26-0.711,8.059,13.724,2.189,21.419
			c-3.819,5.007-8.049,5.143-14.215,7.075c-11.837,3.709-9.586,21.052-9.586,21.052S585.313,204.58,585.849,199.107z"/>
		<path style="fill:#221E1F;" d="M616.735,187.287c0,0,1.209,10.21,9.897,10.954c14.59,1.249,3.597,27.201,11.51,27.201
			c3.351,0-0.2-18.747-0.2-18.747l-1.733-11.785l-3.235-10.399l-4.48-2.889l-9.47-4.999l-3.902,3.707L616.735,187.287z"/>
		<path style="fill:#F3B2A7;" d="M597.996,207.312c0,0-0.398-5.458-5.212-3.679c-4.814,1.78-4.528,15.199,4.353,14.059"/>
		<g>
			<path style="fill:#F3B2A7;" d="M630.54,207.022c0,0,0.398-5.458,5.212-3.679c4.814,1.78,4.528,15.199-4.353,14.059"/>
			<path style="opacity:0.27;fill:#F3B2A7;" d="M630.54,207.022c0,0,0.398-5.458,5.212-3.679c4.814,1.78,4.528,15.199-4.353,14.059"
				/>
		</g>
	</g>
</g>
</svg>
