<?xml version="1.0" encoding="utf-8"?>
<!-- Generator: Adobe Illustrator 27.5.0, SVG Export Plug-In . SVG Version: 6.00 Build 0)  -->
<svg version="1.1" xmlns="http://www.w3.org/2000/svg" xmlns:xlink="http://www.w3.org/1999/xlink" x="0px" y="0px"
	 viewBox="0 0 750 500" style="enable-background:new 0 0 750 500;" xml:space="preserve">
<g id="BACKGROUND">
</g>
<g id="OBJECTS">
	<g>
		<ellipse style="opacity:0.2;fill:#352C38;" cx="652.437" cy="444.911" rx="76.996" ry="11.171"/>
		<g>
			<g>
				<g>
					<path style="fill:#965450;" d="M635.176,176.31l-1.512,13.426l-10.059,2.805c0,0,8.376,6.974,26.014,2.121
						c0,0-0.266-26.519,5.467-31.313S635.176,176.31,635.176,176.31z"/>
					<path style="opacity:0.4;fill:#822C21;" d="M651.122,177.901c0.618-1.538,1.443-2.863,2.543-3.783
						c5.733-4.795-18.489,2.192-18.489,2.192l-1.512,13.426C639.686,186.076,645.64,182.328,651.122,177.901z"/>
				</g>
				<g>
					<g>
						<path style="fill:#252028;" d="M653.348,130.294c0,0-10.004-12.178-26.097-3.914s-9.468,48.373-9.468,48.373
							s5.263-7.323,13.502-17.392c5.411-6.614,18.148,13.818,18.148,13.818L653.348,130.294z"/>
						<path style="fill:#965450;" d="M640.296,133.073c0,0-21.41,0.366-18.828,30.065c2.192,25.208,23.503,20.467,33.388,6.351
							C665.355,154.496,665.481,131.745,640.296,133.073z"/>
					</g>
					<g>
						<path style="fill:#352C38;" d="M644.823,132.814c0,0-8.264,15.658,9.569,19.138c0,0-4.784,13.918-4.349,29.576l6.644-11.352
							c0,0,4.284,0.74,7.094-1.602c0,0,14.25-33.534-5.474-40.109C647.868,124.985,644.823,132.814,644.823,132.814z"/>
						<path style="fill:#965450;" d="M657.977,155.954l-1.889,9.084c0,0,4.65,1.397,6.538-3.669c1.889-5.066-4.068-5.59-4.068-5.59"
							/>
					</g>
				</g>
			</g>
			<g>
				<g>
					<path style="fill:#76413B;" d="M632.256,164.929c-0.714-0.127-1.409-0.308-2.113-0.462c-0.698-0.172-1.395-0.35-2.085-0.546
						l-0.355-0.101l0.124-0.381c0.849-2.608,1.782-5.185,2.776-7.739c0.505-1.274,1.021-2.544,1.566-3.803
						c0.278-0.628,0.547-1.258,0.845-1.879c0.293-0.622,0.575-1.248,0.892-1.861c-0.16,0.671-0.356,1.329-0.541,1.992
						c-0.18,0.664-0.388,1.318-0.588,1.974c-0.41,1.309-0.849,2.608-1.299,3.903c-0.916,2.583-1.893,5.144-2.954,7.673l-0.231-0.481
						c0.67,0.257,1.334,0.533,1.996,0.814C630.944,164.331,631.609,164.602,632.256,164.929z"/>
				</g>
				<g>
					<path style="fill:#071D23;" d="M623.531,155.327c0,0,0.01-0.192,0.045-0.523c0.027-0.165,0.015-0.366,0.112-0.593
						c0.087-0.221,0.144-0.515,0.31-0.769c0.164-0.253,0.314-0.564,0.594-0.796c0.239-0.275,0.567-0.481,0.921-0.678
						c0.374-0.144,0.773-0.304,1.208-0.31c0.215-0.034,0.431-0.005,0.648,0.022c0.22,0.014,0.434,0.059,0.64,0.142
						c0.422,0.126,0.794,0.379,1.127,0.642c0.156,0.146,0.305,0.298,0.446,0.451c0.11,0.174,0.219,0.347,0.326,0.516
						c0.208,0.338,0.296,0.717,0.393,1.051c0.042,0.348,0.107,0.674,0.087,0.972c-0.018,0.298-0.048,0.568-0.076,0.802
						c-0.046,0.232-0.118,0.429-0.165,0.591c-0.102,0.322-0.168,0.497-0.168,0.497s-0.015-0.19-0.042-0.523
						c-0.009-0.161-0.02-0.356-0.033-0.581c-0.042-0.221-0.089-0.465-0.126-0.728c-0.044-0.262-0.171-0.522-0.241-0.805
						c-0.13-0.259-0.25-0.542-0.43-0.785c-0.092-0.119-0.185-0.24-0.28-0.363c-0.121-0.096-0.236-0.196-0.347-0.303
						c-0.247-0.177-0.511-0.351-0.811-0.426c-0.141-0.068-0.29-0.103-0.444-0.115c-0.152-0.025-0.303-0.057-0.456-0.032
						c-0.307-0.005-0.602,0.067-0.89,0.145c-0.266,0.132-0.549,0.227-0.767,0.415c-0.25,0.145-0.42,0.366-0.612,0.543
						c-0.187,0.184-0.289,0.394-0.431,0.565c-0.141,0.167-0.21,0.369-0.29,0.512C623.627,155.161,623.531,155.327,623.531,155.327z"
						/>
				</g>
				<g>
					<path style="fill:#071D23;" d="M622.107,147.271c0,0,0.075-0.217,0.282-0.557c0.203-0.341,0.538-0.809,1.047-1.276
						c0.251-0.239,0.541-0.483,0.884-0.699c0.33-0.235,0.727-0.412,1.138-0.595c0.428-0.143,0.874-0.31,1.36-0.352
						c0.478-0.1,0.974-0.065,1.469-0.042c0.49,0.047,0.969,0.184,1.43,0.312c0.435,0.191,0.874,0.371,1.251,0.603
						c0.365,0.252,0.707,0.508,1.02,0.753c0.282,0.28,0.528,0.563,0.752,0.82c0.111,0.13,0.222,0.247,0.316,0.369
						c0.081,0.133,0.158,0.259,0.231,0.377c0.147,0.232,0.258,0.447,0.351,0.619c0.182,0.348,0.267,0.555,0.267,0.555
						s-0.212-0.1-0.551-0.287c-0.167-0.096-0.372-0.206-0.588-0.347c-0.214-0.145-0.468-0.286-0.748-0.423
						c-0.278-0.141-0.57-0.297-0.866-0.467c-0.319-0.127-0.644-0.264-0.969-0.418c-0.333-0.13-0.688-0.205-1.028-0.337
						c-0.356-0.05-0.706-0.157-1.065-0.18c-0.358-0.021-0.716-0.063-1.072-0.02c-0.359-0.004-0.707,0.08-1.057,0.122
						c-0.339,0.089-0.686,0.144-1.002,0.26c-0.323,0.098-0.632,0.201-0.915,0.317c-0.566,0.229-1.053,0.45-1.393,0.621
						C622.308,147.16,622.107,147.271,622.107,147.271z"/>
				</g>
				<g>
					<path style="fill:#071D23;" d="M640.064,156.139c0,0-0.008-0.192-0.007-0.525c0.011-0.167-0.021-0.366,0.053-0.601
						c0.064-0.229,0.093-0.527,0.232-0.796c0.138-0.268,0.257-0.592,0.513-0.851c0.211-0.297,0.517-0.534,0.85-0.765
						c0.358-0.18,0.739-0.379,1.172-0.427c0.211-0.055,0.428-0.048,0.647-0.042c0.22-0.007,0.438,0.016,0.65,0.078
						c0.433,0.084,0.828,0.299,1.184,0.528c0.169,0.13,0.333,0.267,0.488,0.405c0.127,0.163,0.252,0.323,0.375,0.481
						c0.24,0.316,0.365,0.685,0.495,1.007c0.076,0.342,0.173,0.66,0.182,0.959c0.011,0.299,0.008,0.57,0.004,0.805
						c-0.023,0.236-0.076,0.439-0.106,0.604c-0.069,0.33-0.119,0.511-0.119,0.511s-0.034-0.188-0.093-0.516
						c-0.025-0.159-0.055-0.353-0.09-0.575c-0.064-0.216-0.135-0.454-0.197-0.712c-0.069-0.256-0.221-0.503-0.319-0.777
						c-0.155-0.244-0.302-0.515-0.505-0.738c-0.103-0.109-0.208-0.221-0.314-0.333c-0.13-0.083-0.254-0.172-0.375-0.267
						c-0.263-0.152-0.543-0.299-0.849-0.344c-0.147-0.053-0.299-0.074-0.454-0.07c-0.153-0.01-0.308-0.027-0.457,0.013
						c-0.306,0.025-0.592,0.126-0.872,0.232c-0.252,0.157-0.523,0.28-0.722,0.488c-0.234,0.169-0.382,0.405-0.555,0.601
						c-0.168,0.201-0.249,0.42-0.373,0.604c-0.124,0.18-0.173,0.388-0.238,0.538C640.143,155.964,640.064,156.139,640.064,156.139z"
						/>
				</g>
				<g>
					<path style="fill:#071D23;" d="M638.857,149c0,0,0.068-0.219,0.263-0.566c0.192-0.348,0.51-0.826,1.004-1.31
						c0.242-0.248,0.525-0.501,0.86-0.728c0.322-0.245,0.713-0.436,1.117-0.633c0.423-0.157,0.863-0.339,1.347-0.398
						c0.475-0.115,0.971-0.098,1.467-0.091c0.491,0.03,0.975,0.152,1.44,0.265c0.441,0.177,0.886,0.342,1.271,0.561
						c0.373,0.24,0.723,0.484,1.045,0.718c0.292,0.271,0.547,0.545,0.779,0.794c0.115,0.126,0.23,0.239,0.328,0.358
						c0.086,0.13,0.167,0.253,0.243,0.369c0.155,0.227,0.273,0.438,0.372,0.607c0.194,0.342,0.286,0.545,0.286,0.545
						s-0.215-0.093-0.56-0.269c-0.17-0.09-0.379-0.194-0.599-0.327c-0.219-0.138-0.478-0.27-0.762-0.398
						c-0.282-0.132-0.579-0.278-0.881-0.438c-0.323-0.117-0.653-0.243-0.982-0.385c-0.337-0.119-0.695-0.182-1.038-0.303
						c-0.358-0.038-0.711-0.133-1.07-0.144c-0.358-0.009-0.717-0.039-1.072,0.016c-0.359,0.008-0.703,0.104-1.052,0.158
						c-0.336,0.1-0.681,0.167-0.993,0.293c-0.319,0.109-0.625,0.221-0.904,0.347c-0.558,0.247-1.037,0.485-1.371,0.667
						C639.055,148.883,638.857,149,638.857,149z"/>
				</g>
				<path style="fill:#FFFFFF;" d="M626.832,167.363l16.96,0.479C643.791,167.842,633.761,175.568,626.832,167.363z"/>
				<g>
					<path style="fill:#76413B;" d="M658.359,163.816c0.193-0.156,0.372-0.32,0.521-0.488c0.146-0.165,0.254-0.363,0.232-0.474
						c-0.01-0.056-0.028-0.084-0.073-0.134c-0.025-0.045-0.11-0.097-0.167-0.148c-0.16-0.096-0.341-0.193-0.538-0.279l-0.242-0.105
						l-0.004-0.32c-0.007-0.475,0.05-0.929,0.106-1.394c0.08-0.46,0.164-0.923,0.336-1.38c0.08-0.23,0.176-0.459,0.321-0.684
						c0.071-0.113,0.156-0.226,0.26-0.335c0.12-0.104,0.255-0.217,0.463-0.249c0.196-0.031,0.397,0.031,0.509,0.128
						c0.125,0.092,0.206,0.198,0.273,0.304c0.139,0.212,0.211,0.44,0.273,0.666c-0.177-0.156-0.344-0.317-0.52-0.432
						c-0.169-0.125-0.365-0.164-0.391-0.103c-0.039,0.041-0.134,0.181-0.193,0.363c-0.06,0.179-0.11,0.381-0.155,0.585
						c-0.162,0.827-0.272,1.719-0.391,2.583l-0.246-0.425c0.226,0.14,0.458,0.285,0.663,0.501c0.099,0.13,0.203,0.234,0.27,0.415
						c0.077,0.153,0.095,0.382,0.036,0.556c-0.051,0.182-0.16,0.313-0.265,0.416c-0.112,0.097-0.229,0.168-0.347,0.228
						C658.854,163.727,658.607,163.789,658.359,163.816z"/>
				</g>
			</g>
			<g>
				<g>
					<path style="fill:#FFA65B;" d="M683.094,149.074c0,0-57.751-4.446-81.104-18.586l0.885-4.086c0,0,13.312,4.287,18.352-9.453
						c5.04-13.739,9.909-36.213,29.428-32.953c19.519,3.26,18.232,37.301,17.648,48.096c-0.584,10.795,15.708,13.23,15.708,13.23
						L683.094,149.074z"/>
				</g>
				<g>
					<path style="fill:#352C38;" d="M647.03,128.081c0.158,2.523-1.759,4.696-4.282,4.854c-2.523,0.158-4.696-1.759-4.854-4.282
						s1.759-4.696,4.282-4.854C644.699,123.641,646.872,125.558,647.03,128.081z"/>
					<path style="fill:#352C38;" d="M644.006,121.358c0,0-9.594-29.295,10.544-54.315C654.551,67.043,664.585,95.12,644.006,121.358
						z"/>
				</g>
			</g>
		</g>
		<g>
			<path style="fill:#352C38;" d="M669.438,197.467c-7.524-10.659-33.7-11.912-42.477-10.659c-2.219,0.317-4.167,4.001-5.839,9.327
				c-11.248,9.982-6.242,22.839-5.118,25.329c-1.569,11.074-2.366,20.517-2.366,20.517l33.229,7.523
				C646.867,249.505,676.961,208.125,669.438,197.467z"/>
			<g>
				<path style="fill:#965450;" d="M622.755,187.961c-13.864-4.932-31.38-11.157-33.745-13.511
					c-3.968-3.95-19.521-28.036-19.521-28.036c1.934-11.586-1.897-2.463-1.897-2.463c-4.722-19.128-2.517-3.619-2.517-3.619
					c-5.033-17.966-2.256,0.373-2.256,0.373c-7.097-18.287-2.516,0.313-2.516,0.313c-6.613-13.782,0.648,7.771,0.648,7.771
					c7.353,20.94,11.86,27.518,18.776,36.645c10.727,11.03,41.304,19.227,49.628,19.304
					C637.68,204.814,619.245,193.472,622.755,187.961z"/>
				<path style="fill:#352C38;" d="M614.121,206.333c0,0-32.99,3.747-60.873-34.784l27.919-21.969c0,0,8.215,26.848,27.004,32.038
					C626.96,186.808,614.121,206.333,614.121,206.333z"/>
			</g>
			<g>
				<path style="fill:#965450;" d="M665.549,199.929c10.504-10.306,23.777-23.321,24.932-26.451
					c1.939-5.252,5.918-33.646,5.918-33.646c-6.627-9.698,0.685-3.033,0.685-3.033c-3.761-19.34,0.761-4.342,0.761-4.342
					c-2.991-18.416,2.203-0.611,2.203-0.611c-1.253-19.576,2.415-0.775,2.415-0.775c0.203-15.285,2.68,7.323,2.68,7.323
					c2.136,22.091,0.814,29.954-1.622,41.143c-5.093,14.519-29.386,34.816-36.906,38.387
					C659.096,221.496,671.052,203.452,665.549,199.929z"/>
				<path style="fill:#352C38;" d="M660.806,222.81c0,0,49.888-8.239,54.465-58.584l-28.135-16.61c0,0-0.241,26.679-11.024,40.424
					C664.081,203.377,660.806,222.81,660.806,222.81z"/>
			</g>
			<g>
				<path style="fill:#FFA65B;" d="M641.125,185.737l-32.954-4.119c0,0-8.696,35.242,26.546,41.192
					c35.242,5.95,40.277-34.327,40.277-34.327S664.925,189.398,641.125,185.737z"/>
				<path style="fill:#352C38;" d="M643.735,195.245c0.041,2.527-1.974,4.61-4.501,4.651c-2.527,0.042-4.61-1.974-4.651-4.501
					c-0.042-2.527,1.974-4.61,4.501-4.651C641.611,190.702,643.694,192.717,643.735,195.245z"/>
				<path style="fill:#352C38;" d="M640.344,211.779c0.042,2.527-1.974,4.61-4.501,4.651c-2.527,0.042-4.61-1.974-4.651-4.501
					c-0.041-2.527,1.974-4.61,4.501-4.651C638.221,207.236,640.303,209.252,640.344,211.779z"/>
				<polygon style="fill:#FFA65B;" points="624.648,186.652 623.275,175.21 661.721,180.245 656.687,193.518 				"/>
			</g>
		</g>
		<g>
			<g>
				<path style="fill:#965450;" d="M700.735,439.053c0.39-6.733,1.019-63.208-31.999-90.794c0,0,13.904-53.115-12.219-90.788
					c-17.147-3.032-34.034-7.092-50.895-11.488c-8.38,8.438-20.739,25.539-24.465,55.351
					c-5.806,46.45,28.801,139.559,28.801,139.559c-38.954,13.004,2.269,5.48,3.679,5.48s12.949-65.883-1.254-96.553l12.622-53.757
					c0,0,4.306,36.829,26.25,71.312c0,0,41.619,70.412,47.023,77.117C699.163,445.591,727.118,458.285,700.735,439.053z"/>
				<path style="fill:#7F4645;" d="M668.736,348.258c0,0,13.904-53.115-12.218-90.788c-17.147-3.032-34.034-7.092-50.895-11.488
					c-8.38,8.438-20.739,25.539-24.465,55.351c-3.899,31.195,10.428,83.432,20.259,114.38c5.617,0.564,11.225,1.215,16.827,1.914
					c1.969-21.615,2.206-50.389-5.86-67.808l12.622-53.757c0,0,4.306,36.828,26.25,71.312c0,0,14.479,24.495,27.466,45.967
					c6.168-3.358,12.414-6.566,18.794-9.517C694.358,385.569,686.728,363.29,668.736,348.258z"/>
				<path style="fill:#352C38;" d="M606.41,442.208c0,0-16.122,3.496-14.18,6.604c1.942,3.108,22.143-2.137,22.143-2.137
					l0.777-4.079C615.151,442.597,601.942,446.287,606.41,442.208z"/>
				<path style="fill:#352C38;" d="M695.761,441.82l2.517,2.672c0,0,11.468,6.845,13.799,5.292c2.331-1.554-7.381-8.158-7.381-8.158
					S708.969,445.705,695.761,441.82z"/>
			</g>
			<g>
				<path style="fill:#FFA65B;" d="M613.743,239.253c0,0-60.494,30.394-37.304,161.599c0,0,17.087,17.087,52.482,6.713
					c0,0-4.608-62.776-3.051-98.861c0,0,14.646,57.974,40.277,98.861c0,0,35.395-6.713,43.328-26.241
					c0,0-18.308-104.964-60.415-134.866L613.743,239.253z"/>
				<path style="opacity:0.2;fill:#352C38;" d="M625.8,310.419c-17.426-4.994-32.861-16.882-42.908-32.001
					c-10.352,24.624-16.909,63.28-6.454,122.433c0,0,17.087,17.087,52.482,6.713C628.92,407.564,624.456,346.74,625.8,310.419z"/>
			</g>
		</g>
	</g>
	<g>
		<ellipse style="opacity:0.2;fill:#352C38;" cx="479.169" cy="444.911" rx="68.584" ry="11.171"/>
		<g>
			<g>
				<g>
					<path style="fill:#352C38;" d="M444.805,442.08c-7.654-22.204-12.701-38.23-16.666-50.602
						c5.625-3.213,11.233-6.456,16.815-9.736c1.503-0.883,2.998-1.778,4.495-2.669c7.057,29.107,2.367,65.07,2.367,65.07
						C416.617,448.659,444.805,442.08,444.805,442.08z"/>
					<path style="fill:#211C23;" d="M449.919,426.259c1.079,0.069,2.159,0.122,3.239,0.164c0.503-13.049,0.195-31.248-3.709-47.35
						c-1.497,0.891-2.992,1.786-4.495,2.669c-5.582,3.28-11.19,6.523-16.815,9.736c2.848,8.888,6.261,19.678,10.792,33.273
						C442.579,425.639,446.382,426.033,449.919,426.259z"/>
				</g>
				<g>
					<path style="fill:#765E69;" d="M410.391,365.542c0,0,4.457,32.088,10.696,48.132c0,0,29.414,1.783,41.893-0.891l-1.783-48.132
						L410.391,365.542z"/>
					<path style="opacity:0.4;fill:#352C38;" d="M462.634,403.441l-1.437-38.79l-50.806,0.891c0,0,2.756,19.834,6.966,36.112
						C432.384,403.191,447.499,403.057,462.634,403.441z"/>
				</g>
			</g>
			<g>
				<g>
					<path style="fill:#352C38;" d="M544.425,420.259c-4.045-23.135-7.382-39.602-9.899-52.348
						c-6.478-0.09-12.954-0.215-19.427-0.384c-1.743-0.046-3.484-0.105-5.225-0.161c7.908,28.887,29.413,58.091,29.413,58.091
						C572.276,412.379,544.425,420.259,544.425,420.259z"/>
					<path style="fill:#211C23;" d="M532.294,408.888c-0.911,0.583-1.831,1.151-2.755,1.711
						c-6.755-11.177-15.29-27.252-19.665-43.233c1.741,0.056,3.482,0.115,5.225,0.161c6.473,0.169,12.949,0.294,19.427,0.384
						c1.808,9.156,4.042,20.25,6.655,34.341C538.418,404.794,535.28,406.979,532.294,408.888z"/>
				</g>
				<g>
					<path style="fill:#765E69;" d="M537.509,336.626c0,0,11.626,30.238,13.928,47.298c0,0-24.879,15.792-37.094,19.49
						l-21.729-42.985L537.509,336.626z"/>
					<path style="opacity:0.4;fill:#352C38;" d="M510.126,395.071l-17.511-34.642l44.894-23.803c0,0,7.185,18.691,11.376,34.974
						C536.478,380.216,523.186,387.412,510.126,395.071z"/>
				</g>
			</g>
		</g>
		<g>
			<g>
				<g>
					<path style="fill:#FFAC9D;" d="M441.413,155.943c0,0,11.155,34.018,8.789,36.027c-2.365,2.009-11.457-1.632-11.457-1.632
						s28.667,23.031,42.703,8.186c0,0-6.811-3.285-8.855-6.66c-2.044-3.375-5.627-37.501-5.627-37.501L441.413,155.943z"/>
					<path style="opacity:0.3;fill:#A85856;" d="M448.255,178.902c-2.701-10.325-6.842-22.959-6.842-22.959l25.554-1.58
						c0,0,2.199,20.943,4.134,31.638C463.37,184.002,455.726,181.728,448.255,178.902z"/>
				</g>
				<g>
					<path style="fill:#FFAC9D;" d="M431.443,161.517c2.118,3.564,6.046,5.138,8.775,3.517c2.729-1.621,3.224-5.825,1.106-9.388
						c-2.118-3.564-6.046-5.138-8.775-3.517C429.82,153.75,429.325,157.954,431.443,161.517z"/>
					<path style="fill:#FFAC9D;" d="M449.329,134.507c-4.072,1.653-9.214,3.288-13.216,5.844c-1.372,6.688-1.229,13.9-0.818,17.009
						c0.644,4.866,11.99,28.121,34.957,23.504c22.071-4.437,10.737-42.344-2.023-53.198
						C461.893,129.839,455.536,131.988,449.329,134.507z"/>
					<path style="fill:#965450;" d="M431.881,152.53c0,0,2.701-2.059,4.773,1.749c2.072,3.807,3.478,7.204,3.478,7.204l3.882-1.466
						l-3.247-10.312c0,0,6.509-5.116,4.093-13.684l-15.223,3.363C429.637,139.385,428.083,146.72,431.881,152.53z"/>
					<path style="fill:#965450;" d="M449.874,135.448c0,0,9.735,4.371,17.883,2.006l-3.318-2.453c0,0,3.245,1.859,12.004-0.432
						c0,0-4.867-11.304-11.769-11.052C457.772,123.769,449.874,135.448,449.874,135.448z"/>
				</g>
			</g>
			<g>
				<path style="fill:#6F96BD;" d="M474.089,125.297c0,0-18.553,14.323-46.243,15.535l-0.273-100.578L474.089,125.297z"/>
				<path style="opacity:0.2;fill:#0E0C0F;" d="M427.736,99.991c8.349,15.691,26.848,22.608,43.641,20.347l2.713,4.96
					c0,0-18.553,14.323-46.243,15.535L427.736,99.991z"/>
			</g>
			<g>
				<path style="fill:#FFFFFF;" d="M455.819,167.904c0,0,12.66-2.544,20.649-4.263C476.468,163.641,467.675,176.052,455.819,167.904
					z"/>
				<g>
					<path style="fill:#352C38;" d="M446.077,147.556c0,0,0.399-1.151,1.573-2.538c0.3-0.337,0.617-0.72,1.019-1.055
						c0.377-0.365,0.818-0.705,1.297-1.029c0.483-0.313,1.005-0.627,1.568-0.872c0.578-0.216,1.155-0.472,1.782-0.585
						c0.311-0.057,0.618-0.14,0.932-0.167c0.315-0.016,0.629-0.032,0.941-0.048l0.464-0.021c0.154,0.01,0.306,0.038,0.457,0.057
						c0.301,0.043,0.597,0.085,0.889,0.126c0.585,0.064,1.105,0.324,1.609,0.477c0.515,0.136,0.923,0.449,1.325,0.659
						c0.394,0.229,0.76,0.42,1.029,0.679c0.285,0.232,0.52,0.449,0.714,0.623c0.385,0.353,0.588,0.564,0.588,0.564
						s-0.293-0.089-0.776-0.26c-0.24-0.088-0.532-0.189-0.852-0.322c-0.313-0.15-0.71-0.212-1.109-0.336
						c-0.411-0.091-0.825-0.279-1.298-0.321c-0.468-0.049-0.943-0.188-1.444-0.196c-0.501,0.005-1.013-0.075-1.528,0.004
						c-0.258,0.022-0.517,0.044-0.778,0.066c-0.259,0.03-0.512,0.117-0.77,0.168c-0.524,0.068-1.018,0.274-1.516,0.435
						c-0.481,0.204-0.973,0.389-1.423,0.627c-0.442,0.252-0.895,0.465-1.29,0.733c-0.41,0.245-0.777,0.511-1.132,0.746
						C446.972,146.758,446.077,147.556,446.077,147.556z"/>
				</g>
				<g>
					<path style="fill:#352C38;" d="M467.849,142.952c0,0-0.027-0.202,0.002-0.555c0.026-0.352,0.109-0.856,0.342-1.43
						c0.111-0.29,0.257-0.598,0.462-0.902c0.193-0.309,0.454-0.612,0.753-0.896c0.31-0.279,0.659-0.543,1.073-0.728
						c0.388-0.233,0.855-0.3,1.292-0.415c0.444-0.007,0.91-0.103,1.326,0.001c0.421,0.07,0.847,0.122,1.202,0.288
						c0.361,0.152,0.728,0.266,1.02,0.459c0.297,0.185,0.568,0.374,0.812,0.549c0.255,0.157,0.44,0.369,0.615,0.538
						c0.175,0.168,0.315,0.329,0.432,0.457c0.23,0.261,0.347,0.422,0.347,0.422s-0.205-0.037-0.539-0.12
						c-0.165-0.044-0.367-0.092-0.585-0.164c-0.223-0.063-0.461-0.157-0.734-0.212c-0.271-0.062-0.558-0.128-0.85-0.214
						c-0.292-0.094-0.609-0.101-0.918-0.173c-0.312-0.088-0.627-0.057-0.94-0.093c-0.32-0.054-0.612,0.044-0.92,0.038
						c-0.148,0.022-0.289,0.071-0.435,0.101c-0.147,0.027-0.292,0.06-0.423,0.13c-0.133,0.063-0.277,0.101-0.41,0.166
						c-0.126,0.077-0.253,0.152-0.385,0.22c-0.245,0.162-0.494,0.328-0.709,0.521c-0.222,0.187-0.433,0.377-0.616,0.572
						c-0.366,0.388-0.674,0.748-0.881,1.014C467.968,142.786,467.849,142.952,467.849,142.952z"/>
				</g>
				<g style="opacity:0.3;">
					<path style="fill:#822C21;" d="M438.263,164.589c-0.386-0.125-0.763-0.29-1.115-0.509c-0.352-0.219-0.694-0.481-0.955-0.879
						c-0.069-0.095-0.127-0.204-0.161-0.333c-0.05-0.12-0.067-0.253-0.063-0.395c-0.009-0.271,0.104-0.566,0.256-0.758
						c0.14-0.237,0.337-0.35,0.516-0.512c0.187-0.126,0.38-0.229,0.573-0.343l-0.237,0.523c-0.448-1.305-0.92-2.619-1.424-3.895
						c-0.262-0.632-0.53-1.268-0.882-1.815c-0.18-0.251-0.4-0.521-0.617-0.481c-0.252,0.03-0.479,0.378-0.656,0.666
						c0.04-0.172,0.071-0.352,0.152-0.521c0.076-0.165,0.185-0.352,0.405-0.449c0.221-0.104,0.494-0.036,0.665,0.067
						c0.192,0.098,0.331,0.235,0.471,0.368c0.527,0.55,0.888,1.183,1.216,1.82c0.331,0.637,0.6,1.297,0.853,1.96
						c0.245,0.668,0.465,1.337,0.654,2.028l0.096,0.353l-0.333,0.17c-0.156,0.08-0.324,0.152-0.476,0.235
						c-0.122,0.098-0.288,0.183-0.363,0.291c-0.053,0.05-0.105,0.102-0.119,0.158c-0.029,0.054-0.066,0.108-0.06,0.17
						c-0.014,0.059-0.021,0.124,0.003,0.194c0.005,0.069,0.022,0.144,0.061,0.219c0.124,0.305,0.376,0.605,0.645,0.882
						C437.641,164.077,437.943,164.34,438.263,164.589z"/>
				</g>
				<g style="opacity:0.3;">
					<path style="fill:#822C21;" d="M466.005,144.682c0.685,1.195,1.284,2.421,1.844,3.66c0.29,0.616,0.541,1.245,0.814,1.868
						c0.268,0.624,0.505,1.258,0.759,1.887c0.259,0.627,0.475,1.269,0.711,1.904c0.235,0.635,0.465,1.272,0.672,1.917
						c0.21,0.644,0.437,1.282,0.633,1.931l0.584,1.948l0.18,0.599l-0.486,0.243c-1.637,0.817-3.294,1.598-5.065,2.19
						c1.365-1.273,2.842-2.358,4.34-3.408l-0.306,0.841l-0.753-1.889c-0.25-0.63-0.469-1.271-0.705-1.906
						c-0.239-0.634-0.454-1.276-0.665-1.92c-0.21-0.644-0.439-1.281-0.626-1.933c-0.192-0.65-0.401-1.295-0.578-1.95
						c-0.173-0.657-0.367-1.306-0.523-1.969C466.505,147.376,466.212,146.044,466.005,144.682z"/>
				</g>
				<g>
					<path style="fill:none;stroke:#352C38;stroke-width:0.9475;stroke-miterlimit:10;" d="M438.245,156.684l8.585-0.473
						l16.99-4.188c0,0,1.295-4.281,5.077-1.619c3.782,2.662,8.522-1.617,8.522-1.617l5.396-3.089"/>
					<path style="fill:#ABC3EF;stroke:#352C38;stroke-width:0.9475;stroke-miterlimit:10;" d="M446.132,153.954
						c0.267,4.846,4.412,8.559,9.258,8.292c4.846-0.267,8.559-4.412,8.292-9.258c-0.267-4.846-4.412-8.559-9.258-8.292
						C449.577,144.962,445.865,149.107,446.132,153.954z"/>
					<path style="fill:#ABC3EF;stroke:#352C38;stroke-width:0.9475;stroke-miterlimit:10;" d="M468.643,149.27
						c0.267,4.846,4.412,8.559,9.258,8.292c4.846-0.267,8.559-4.412,8.292-9.258c-0.267-4.846-4.412-8.559-9.258-8.292
						C472.089,140.279,468.377,144.424,468.643,149.27z"/>
					<g>
						<path style="fill:#352C38;" d="M454.102,155.096c0,0-0.101-0.184-0.248-0.511c-0.068-0.167-0.178-0.348-0.201-0.622
							c-0.027-0.257-0.132-0.596-0.07-0.92c0.029-0.335,0.054-0.715,0.219-1.084c0.112-0.393,0.362-0.743,0.617-1.114
							c0.305-0.323,0.632-0.67,1.054-0.895c0.198-0.135,0.411-0.247,0.645-0.317c0.23-0.077,0.453-0.181,0.699-0.205
							c0.243-0.029,0.484-0.082,0.729-0.078c0.245,0.009,0.489,0.034,0.729,0.057c0.47,0.116,0.933,0.25,1.309,0.513
							c0.411,0.206,0.686,0.553,0.969,0.831c0.234,0.319,0.415,0.646,0.56,0.94c0.112,0.312,0.191,0.601,0.256,0.85
							c0.061,0.25,0.046,0.485,0.06,0.665c0.01,0.367-0.004,0.569-0.004,0.569s-0.135-0.171-0.337-0.456
							c-0.104-0.14-0.206-0.319-0.35-0.499c-0.159-0.173-0.332-0.36-0.495-0.568c-0.202-0.175-0.42-0.353-0.636-0.528
							c-0.255-0.124-0.471-0.316-0.754-0.383c-0.256-0.127-0.549-0.142-0.826-0.203c-0.146,0.004-0.29,0.009-0.435-0.002
							c-0.145-0.002-0.289,0.047-0.435,0.061c-0.15,0-0.285,0.073-0.426,0.113c-0.145,0.036-0.284,0.085-0.41,0.166
							c-0.279,0.112-0.499,0.303-0.745,0.465c-0.191,0.211-0.43,0.388-0.569,0.63c-0.188,0.214-0.298,0.461-0.418,0.694
							c-0.141,0.235-0.158,0.454-0.251,0.668c-0.087,0.204-0.103,0.434-0.131,0.607C454.15,154.893,454.102,155.096,454.102,155.096
							z"/>
					</g>
					<g>
						<path style="fill:#352C38;" d="M470.219,151.458c0,0-0.101-0.165-0.248-0.457c-0.072-0.148-0.173-0.313-0.2-0.566
							c-0.036-0.238-0.127-0.551-0.074-0.849c0.016-0.311,0.049-0.658,0.194-0.997c0.099-0.362,0.328-0.679,0.55-1.024
							c0.271-0.296,0.554-0.624,0.927-0.843c0.344-0.263,0.767-0.414,1.183-0.552l0.653-0.127c0.223-0.014,0.448-0.003,0.667,0.001
							c0.22-0.013,0.437,0.072,0.648,0.115c0.214,0.041,0.416,0.112,0.601,0.221c0.393,0.165,0.699,0.433,0.968,0.693
							c0.267,0.258,0.42,0.581,0.586,0.835c0.121,0.283,0.196,0.552,0.262,0.78c0.072,0.225,0.049,0.446,0.066,0.611
							c0.01,0.338-0.005,0.521-0.005,0.521s-0.134-0.151-0.332-0.399c-0.104-0.12-0.197-0.281-0.347-0.427
							c-0.155-0.144-0.317-0.303-0.476-0.471c-0.209-0.121-0.386-0.291-0.608-0.395c-0.223-0.105-0.439-0.215-0.688-0.256
							c-0.115-0.041-0.236-0.065-0.366-0.062c-0.128,0.004-0.246-0.047-0.378-0.019c-0.13,0.013-0.258,0.023-0.388,0.026
							l-0.388,0.091c-0.251,0.083-0.517,0.158-0.745,0.301c-0.251,0.11-0.444,0.29-0.669,0.435c-0.169,0.192-0.393,0.347-0.52,0.56
							c-0.17,0.191-0.285,0.402-0.392,0.61c-0.132,0.209-0.161,0.398-0.245,0.588c-0.083,0.18-0.109,0.387-0.133,0.547
							C470.268,151.271,470.219,151.458,470.219,151.458z"/>
					</g>
				</g>
			</g>
		</g>
		<g>
			<g>
				<g>
					<g>
						<path style="fill:#FFAC9D;" d="M410.035,148.547c-0.092,0.073-0.156,0.123-0.156,0.123s-11.542-21.821-16.721-30.326
							c-3.761,0.748-4.262,7.107-8.034,7.843c2.287,15.995,11.817,48.486,15.174,48.682c3.578,0.208,9.811-2.729,16.774-6.933
							C415.376,161.238,413.306,154.618,410.035,148.547z"/>
						<path style="opacity:0.3;fill:#A85856;" d="M410.035,148.547c-0.092,0.073-0.156,0.123-0.156,0.123s-2.455-4.763-5.526-10.471
							c-4.84,2.785-10.243,5.523-14.677,8.996c3.706,13.934,8.454,27.547,10.623,27.673c3.578,0.208,9.811-2.729,16.774-6.932
							C415.376,161.238,413.306,154.618,410.035,148.547z"/>
						<path style="fill:#6F96BD;" d="M430.587,192.688l-21.008-49.895l-28.887,19.958c0,0,23.109,46.744,43.592,65.126
							c20.483,18.382,6.828-33.351,6.828-33.351"/>
						<path style="opacity:0.2;fill:#0E0C0F;" d="M431.113,194.526l-0.525-1.838l-6.833-16.229
							c-6.71,9.803-11.819,20.571-16.279,31.588c5.451,7.702,11.228,14.82,16.81,19.829
							C444.768,246.259,431.113,194.526,431.113,194.526z"/>
					</g>
					<path style="fill:#FFAC9D;" d="M385.833,129.866c0,0-14.639-37.522-2.221-12.721c0,0-7.764-30.837,2.518-0.798
						c0,0-5.547-28.682,4.189-0.773c0,0-0.315-21.856,3.731-0.201l0.667,3.992c0,0,7.297-15.186,1.413,4.327l0.738,3.189
						L385.833,129.866z"/>
				</g>
				<g>
					<g>
						<path style="fill:#FFAC9D;" d="M507.511,152.098c0.092,0.073,0.156,0.123,0.156,0.123s11.542-21.821,16.721-30.326
							c3.761,0.748,4.262,7.107,8.034,7.843c-2.287,15.995-11.817,48.486-15.174,48.682c-3.578,0.208-9.811-2.729-16.774-6.932
							C502.17,164.789,504.24,158.169,507.511,152.098z"/>
						<path style="opacity:0.3;fill:#A85856;" d="M507.511,152.098c0.092,0.073,0.156,0.123,0.156,0.123s2.455-4.763,5.526-10.471
							c4.84,2.785,10.243,5.523,14.677,8.996c-3.706,13.934-8.454,27.547-10.622,27.673c-3.578,0.208-9.811-2.729-16.774-6.932
							C502.17,164.789,504.24,158.169,507.511,152.098z"/>
						<path style="fill:#6F96BD;" d="M486.959,196.238l21.008-49.895l28.886,19.958c0,0-23.109,46.744-43.592,65.126
							c-20.483,18.382-6.828-33.351-6.828-33.351"/>
						<path style="opacity:0.2;fill:#0E0C0F;" d="M486.434,198.076l0.525-1.838l6.833-16.229
							c6.71,9.803,11.819,20.571,16.279,31.588c-5.451,7.702-11.228,14.82-16.81,19.829
							C472.778,249.809,486.434,198.076,486.434,198.076z"/>
					</g>
					<path style="fill:#FFAC9D;" d="M531.713,133.417c0,0,14.639-37.522,2.221-12.721c0,0,7.764-30.837-2.518-0.798
						c0,0,5.547-28.682-4.189-0.773c0,0,0.315-21.856-3.731-0.201l-0.666,3.992c0,0-7.297-15.187-1.413,4.327l-0.738,3.189
						L531.713,133.417z"/>
				</g>
			</g>
			<g>
				<path style="fill:#6F96BD;" d="M487.869,192.069c-2.045,0.732-4.078,1.336-6.093,1.833l1.705-11.084l-19.609-0.891
					l-5.348,11.587l-0.891-11.587l-22.283,0.891v6.183c-5.424-2.357-8.628-4.427-8.628-4.427s-39.505,86.487-26.709,208.312
					c0,0,35.146,12.468,83.469,2.962l2.88-33.065l9.506,30.103c0,0,34.618,2.125,59.575-31.746
					C555.441,361.14,510.589,183.935,487.869,192.069z"/>
				<path style="opacity:0.2;fill:#0E0C0F;" d="M535.431,323.479c-24.973-0.53-49.182-6.831-72.161-16.411
					c-16.041-6.688-31.378-15.274-43.951-27.425c-5.433-5.251-10.281-10.981-14.68-17.04c-6.199,34.807-9.964,79.466-4.627,130.282
					c0,0,35.146,12.468,83.469,2.962l2.88-33.065l9.506,30.103c0,0,34.618,2.125,59.575-31.746c0,0-7.869-20.646-12.348-37.697
					C540.543,323.51,537.989,323.534,535.431,323.479z"/>
			</g>
		</g>
	</g>
	<g>
		<ellipse style="opacity:0.2;fill:#0E0C0F;" cx="287.895" cy="443.974" rx="73.798" ry="9.878"/>
		<g>
			<g>
				<g>
					<polyline style="fill:#FFAC9D;" points="306.834,167.393 302.664,183.839 318.184,187.545 325.133,163.687 307.065,166.235 
											"/>
					<path style="opacity:0.3;fill:#A85856;" d="M320.211,180.586l4.922-16.899l-18.068,2.548l-0.232,1.158l-3.304,13.032
						C302.552,180.191,321.568,180.351,320.211,180.586z"/>
					<path style="fill:#FFAC9D;" d="M293.287,204.257c-1.8-1.654-2.508-4.559-3.114-6.836c-0.953-3.583-1.64-7.232-2.159-10.903
						c-0.265-1.871-0.52-3.76-0.744-5.657c10.641,0.923,26.167,4.403,37.178,7.704C320.665,200.081,303.245,213.409,293.287,204.257
						z"/>
				</g>
				<g>
					<path style="fill:#5F83A0;" d="M323.603,169.197c0.037-0.094,0.062-0.158,0.062-0.158l3.087-39.288
						c0,0-2.139-10.834-17.96-7.577c-10.423,2.146-21.013,19.697-24.82,36.053C297.235,161.692,310.424,165.428,323.603,169.197z"/>
					<path style="fill:#FFAC9D;" d="M318.187,129.005c0,0-22.01-4.158-25.914,27.125c-3.12,25.006,27.455,24.388,34.516,13.806
						C337.532,153.836,344.557,133.002,318.187,129.005z"/>
					<path style="fill:#6F96BD;" d="M329.559,146.307c0,0-6.05,10.53-10.875,21.485c7.303,2.082,14.602,4.179,21.907,6.255
						c0.737-2.6,1.55-5.084,2.438-7.254c5.051-12.348,13.585-34.572-8.138-41.813c-15.996-5.332-15.154,3.087-15.154,3.087
						S314.966,139.011,329.559,146.307z"/>
					<path style="fill:#FFAC9D;" d="M327.579,162.574l3.528-10.331c0,0,5.543-2.016,5.291,2.772
						C336.146,159.802,331.359,164.337,327.579,162.574z"/>
				</g>
			</g>
			<g>
				<g>
					<path style="fill:#352C38;" d="M296.936,139.646c0,0,0.124-0.209,0.411-0.517c0.141-0.158,0.325-0.333,0.549-0.524
						c0.23-0.178,0.488-0.4,0.807-0.574c0.311-0.195,0.664-0.385,1.064-0.536c0.391-0.173,0.841-0.271,1.305-0.374
						c0.474-0.057,0.972-0.135,1.484-0.075c0.517-0.001,1.023,0.14,1.531,0.27c0.498,0.153,0.965,0.398,1.415,0.629
						c0.41,0.291,0.826,0.571,1.168,0.891c0.324,0.339,0.624,0.677,0.896,0.997c0.233,0.35,0.427,0.696,0.604,1.01
						c0.087,0.158,0.177,0.303,0.248,0.449c0.056,0.155,0.109,0.302,0.158,0.44c0.103,0.272,0.172,0.518,0.232,0.716
						c0.114,0.4,0.159,0.632,0.159,0.632s-0.198-0.149-0.509-0.415c-0.153-0.135-0.342-0.293-0.535-0.485
						c-0.19-0.196-0.424-0.396-0.684-0.598c-0.257-0.206-0.527-0.429-0.797-0.669c-0.303-0.2-0.611-0.411-0.915-0.64
						c-0.317-0.206-0.669-0.359-0.992-0.569c-0.358-0.128-0.698-0.313-1.064-0.413c-0.366-0.098-0.728-0.217-1.106-0.25
						c-0.371-0.081-0.749-0.068-1.121-0.098c-0.37,0.02-0.742,0.003-1.093,0.056c-0.355,0.033-0.698,0.073-1.016,0.133
						c-0.635,0.116-1.187,0.242-1.575,0.346C297.168,139.574,296.936,139.646,296.936,139.646z"/>
				</g>
				<g>
					<path style="fill:#352C38;" d="M313.714,143.126c0,0,0.117-0.213,0.393-0.531c0.135-0.163,0.314-0.344,0.532-0.543
						c0.224-0.185,0.474-0.416,0.788-0.601c0.304-0.205,0.65-0.407,1.046-0.571c0.385-0.186,0.832-0.299,1.292-0.417
						c0.472-0.072,0.967-0.167,1.48-0.124c0.516-0.018,1.027,0.106,1.539,0.219c0.503,0.136,0.977,0.365,1.435,0.581
						c0.419,0.277,0.844,0.543,1.197,0.852c0.335,0.328,0.646,0.656,0.929,0.967c0.244,0.342,0.45,0.681,0.638,0.989
						c0.092,0.155,0.187,0.297,0.263,0.441c0.061,0.153,0.119,0.298,0.173,0.434c0.112,0.268,0.189,0.512,0.255,0.708
						c0.128,0.396,0.18,0.626,0.18,0.626s-0.203-0.142-0.523-0.398c-0.157-0.13-0.351-0.281-0.551-0.467
						c-0.197-0.189-0.437-0.381-0.704-0.575c-0.264-0.197-0.541-0.411-0.819-0.641c-0.31-0.19-0.624-0.391-0.935-0.609
						c-0.324-0.196-0.681-0.337-1.011-0.535c-0.362-0.116-0.708-0.29-1.077-0.377c-0.369-0.085-0.735-0.193-1.113-0.213
						c-0.373-0.069-0.751-0.043-1.123-0.061c-0.369,0.032-0.741,0.027-1.091,0.092c-0.354,0.044-0.695,0.096-1.01,0.167
						c-0.631,0.137-1.178,0.281-1.563,0.398C313.943,143.047,313.714,143.126,313.714,143.126z"/>
				</g>
				<g style="opacity:0.7;">
					<path style="fill:#AF6F5B;" d="M306.604,149.106c-1.178,1.934-2.434,3.811-3.715,5.669l-0.018-0.491
						c0.532,0.432,0.992,0.927,1.401,1.466c0.399,0.547,0.748,1.138,0.952,1.854c-0.68-0.304-1.214-0.735-1.698-1.209
						c-0.475-0.482-0.898-1.008-1.249-1.597l-0.175-0.294l0.157-0.197C303.664,152.542,305.095,150.795,306.604,149.106z"/>
				</g>
				<g style="opacity:0.7;">
					<path style="fill:#AF6F5B;" d="M329.931,161.734c0.349-0.202,0.683-0.42,0.982-0.661c0.291-0.236,0.568-0.531,0.626-0.792
						c-0.01-0.063,0.025-0.119-0.004-0.173c-0.029-0.052-0.012-0.1-0.066-0.154c-0.049-0.051-0.047-0.108-0.122-0.158l-0.172-0.155
						c-0.277-0.192-0.604-0.355-0.94-0.511l-0.328-0.152l0.076-0.376c0.165-0.816,0.417-1.582,0.715-2.354
						c0.328-0.755,0.677-1.522,1.294-2.183c0.141-0.169,0.333-0.318,0.519-0.463c0.215-0.126,0.433-0.254,0.709-0.288l0.196-0.034
						c0.136-0.002,0.124,0.006,0.193,0.009c0.091,0.005,0.196,0.009,0.362,0.061c0.304,0.065,0.52,0.286,0.665,0.515
						c0.244,0.487,0.178,0.942,0.099,1.348c-0.092,0.408-0.245,0.79-0.438,1.146c0.055-0.4,0.084-0.799,0.074-1.182
						c-0.011-0.377-0.089-0.764-0.257-0.971c-0.09-0.083-0.195-0.146-0.292-0.143c-0.024-0.016-0.118-0.017-0.227-0.006
						c-0.03,0.003-0.143,0.007-0.106,0.008l-0.093,0.038c-0.124,0.023-0.241,0.133-0.363,0.21c-0.116,0.114-0.237,0.215-0.339,0.363
						c-0.218,0.266-0.392,0.599-0.574,0.921c-0.168,0.336-0.326,0.681-0.465,1.04c-0.301,0.703-0.541,1.455-0.771,2.182
						l-0.252-0.528l0.554,0.327c0.181,0.124,0.354,0.274,0.523,0.424l0.235,0.28c0.083,0.079,0.13,0.232,0.188,0.347
						c0.069,0.112,0.064,0.277,0.075,0.418c0.013,0.144-0.056,0.279-0.091,0.411c-0.121,0.24-0.285,0.418-0.461,0.556
						c-0.18,0.132-0.366,0.237-0.554,0.328C330.725,161.557,330.33,161.667,329.931,161.734z"/>
				</g>
				<g>
					<path style="fill:#071D23;" d="M297.933,147.749c0,0,0.047-0.189,0.146-0.511c0.059-0.159,0.086-0.361,0.226-0.568
						c0.129-0.203,0.243-0.484,0.456-0.704c0.212-0.22,0.421-0.5,0.744-0.676c0.291-0.227,0.656-0.368,1.046-0.495
						c0.399-0.071,0.827-0.153,1.261-0.074c0.22,0.008,0.429,0.078,0.639,0.148c0.216,0.057,0.42,0.142,0.608,0.264
						c0.395,0.207,0.716,0.53,0.995,0.856c0.126,0.176,0.245,0.355,0.355,0.534c0.076,0.195,0.15,0.387,0.224,0.576
						c0.141,0.376,0.155,0.77,0.187,1.12c-0.026,0.354-0.024,0.691-0.102,0.983c-0.076,0.293-0.158,0.555-0.23,0.782
						c-0.091,0.222-0.201,0.404-0.278,0.555c-0.163,0.3-0.263,0.461-0.263,0.461s0.022-0.192,0.059-0.528
						c0.022-0.162,0.049-0.358,0.08-0.583c0.001-0.228,0.001-0.479,0.015-0.747c0.007-0.269-0.068-0.552-0.083-0.846
						c-0.08-0.282-0.143-0.587-0.275-0.862c-0.068-0.136-0.138-0.274-0.208-0.415c-0.102-0.118-0.197-0.24-0.286-0.368
						c-0.211-0.223-0.44-0.448-0.724-0.58c-0.127-0.094-0.268-0.158-0.419-0.2c-0.146-0.054-0.291-0.116-0.447-0.12
						c-0.305-0.064-0.611-0.05-0.913-0.029c-0.29,0.08-0.589,0.119-0.842,0.264c-0.276,0.096-0.488,0.282-0.713,0.421
						c-0.221,0.146-0.364,0.335-0.537,0.478c-0.172,0.139-0.28,0.326-0.387,0.452C298.061,147.602,297.933,147.749,297.933,147.749z
						"/>
				</g>
				<g>
					<path style="fill:#071D23;" d="M314.202,151.755c0,0,0.029-0.193,0.095-0.523c0.043-0.164,0.05-0.367,0.169-0.587
						c0.108-0.215,0.194-0.506,0.385-0.746c0.19-0.24,0.37-0.539,0.674-0.746c0.267-0.255,0.617-0.431,0.992-0.596
						c0.39-0.11,0.808-0.233,1.247-0.198c0.22-0.014,0.434,0.036,0.651,0.084c0.22,0.035,0.432,0.1,0.631,0.203
						c0.414,0.168,0.765,0.457,1.074,0.753c0.143,0.163,0.279,0.329,0.406,0.497c0.094,0.186,0.188,0.37,0.279,0.551
						c0.177,0.36,0.23,0.751,0.297,1.096c0.009,0.355,0.044,0.69-0.005,0.988c-0.047,0.299-0.102,0.567-0.152,0.801
						c-0.069,0.23-0.16,0.421-0.222,0.58c-0.133,0.315-0.217,0.485-0.217,0.485s0.003-0.193,0.007-0.531
						c0.006-0.163,0.014-0.361,0.022-0.588c-0.022-0.227-0.046-0.477-0.058-0.745c-0.02-0.268-0.122-0.542-0.166-0.834
						c-0.107-0.273-0.2-0.57-0.359-0.831c-0.081-0.129-0.164-0.259-0.248-0.392c-0.113-0.108-0.219-0.219-0.321-0.338
						c-0.232-0.202-0.482-0.402-0.777-0.506c-0.135-0.081-0.282-0.131-0.437-0.158c-0.151-0.039-0.301-0.086-0.457-0.075
						c-0.309-0.034-0.613,0.011-0.911,0.061c-0.28,0.108-0.574,0.177-0.812,0.345c-0.265,0.123-0.457,0.329-0.668,0.489
						c-0.206,0.167-0.329,0.369-0.488,0.528c-0.158,0.155-0.247,0.352-0.341,0.488C314.314,151.597,314.202,151.755,314.202,151.755
						z"/>
				</g>
				<g>
					<path style="fill:#FC6A5A;" d="M319.077,163.784c0,0-13.221-3.745-21.555-6.229
						C297.522,157.555,301.397,174.098,319.077,163.784z"/>
					<path style="fill:#541E1E;" d="M308.176,163.313c-1.733,0.361-3.206,1.382-4.316,2.731c-4.937-2.536-6.338-8.489-6.338-8.489
						c8.334,2.484,21.555,6.229,21.555,6.229c-0.898,0.524-1.751,0.962-2.58,1.353C314.552,162.938,310.864,162.752,308.176,163.313
						z"/>
				</g>
			</g>
			<g>
				
					<ellipse transform="matrix(0.2622 -0.965 0.965 0.2622 122.5214 404.3576)" style="fill:#FC6A5A;" cx="325.693" cy="122.055" rx="10.333" ry="44.667"/>
				
					<ellipse transform="matrix(0.2622 -0.965 0.965 0.2622 122.5214 404.3576)" style="opacity:0.3;fill:#211C23;" cx="325.693" cy="122.055" rx="10.333" ry="44.667"/>
				<path style="fill:#FC6A5A;" d="M352.546,38.985c0.268-1.926-43.69,72.344-46.149,76.5c-0.037,0.051-0.063,0.106-0.094,0.159
					c-0.007,0.011-0.018,0.031-0.018,0.031l0.003,0.001c-0.071,0.125-0.145,0.249-0.184,0.386
					c-0.866,3.049,6.734,7.88,16.975,10.789c9.95,2.826,18.71,2.791,19.995-0.01l0.001,0l0-0.002
					c0.037-0.081,0.091-0.156,0.116-0.242c0.08-0.28,0.065-0.58,0.005-0.888C344.276,115.624,352.289,40.833,352.546,38.985z"/>
			</g>
		</g>
		<g>
			<g>
				<path style="fill:#352C38;" d="M240.71,440.515c2.575-24.277,4.883-41.59,6.601-54.984c6.712-0.547,13.42-1.13,20.121-1.759
					c1.804-0.169,3.606-0.353,5.408-0.533c-6.179,30.514-25.243,59.809-25.243,59.809
					C213.204,448.114,240.71,440.515,240.71,440.515z"/>
				<path style="fill:#211C23;" d="M258.998,404.284c-4.328-0.339-9.51-0.872-13.733-2.801c0.747-5.902,1.435-11.182,2.047-15.953
					c6.712-0.547,13.42-1.13,20.121-1.759c1.804-0.169,3.606-0.353,5.408-0.533c-1.482,7.32-3.709,14.564-6.233,21.357
					C264.048,404.529,261.497,404.48,258.998,404.284z"/>
			</g>
			<g>
				<path style="fill:#352C38;" d="M337.235,376.429c-1.477,32.523-1.774,57.426-1.774,57.426
					c25.678,19.846-5.145,3.299-5.145,3.299c-14.749-25.375-18.913-45.891-19.457-59.904
					C319.649,377.077,328.439,376.799,337.235,376.429z"/>
				<path style="fill:#211C23;" d="M317.203,408.995c-4.398-12.67-6.019-23.37-6.344-31.745c8.79-0.173,17.58-0.451,26.375-0.821
					c-0.429,9.453-0.867,18.416-1.273,26.386C330.258,406.006,323.689,407.884,317.203,408.995z"/>
			</g>
			<g>
				<path style="fill:#FC6A5A;" d="M319.991,248.903c13.203,42.147,23.884,66.857,26.716,140.842c0,0-30.473,7.741-47.968,6.472
					l-7.271-89.847l-15.219,88.588c0,0-23.55-0.42-45.629-10.042c0,0,12.379-112.667,41.265-134.4
					C286.138,239.792,319.991,248.903,319.991,248.903z"/>
				<path style="opacity:0.2;fill:#211C23;" d="M249.33,291.897c-12.913,40.274-18.71,93.018-18.71,93.018
					c22.079,9.623,45.629,10.042,45.629,10.042l14.551-84.697C276.342,305.639,262.473,299.537,249.33,291.897z"/>
			</g>
		</g>
		<g>
			<g>
				<g>
					<path style="fill:#FFAC9D;" d="M221.824,252.929c0,0-28.62,20.981-11.415,5.726c0,0-23.036,12.821-1.178-1.846
						c0,0-21.785,10.584-1.516-3.19c0,0-17.438,4.932-0.96-2.945l2.376-1.476c0,0-13.726-2.593,3.163-2.058l4.778-2.409
						L221.824,252.929z"/>
					<path style="fill:#FC6A5A;" d="M274.261,177.63c0,0-27.639,43.947-61.17,64.238c0,0,2.097,18.464,22.429,28.813
						c0,0,33.819-36.992,43.545-61.472C288.791,184.729,274.261,177.63,274.261,177.63z"/>
					<path style="opacity:0.2;fill:#211C23;" d="M274.261,177.63c0,0-5.502,8.745-14.568,20.231
						c2.86,4.607,4.608,9.966,6.628,14.948c1.539,3.795,3.313,7.478,5.126,11.142c3.13-5.136,5.797-10.159,7.618-14.743
						C288.791,184.729,274.261,177.63,274.261,177.63z"/>
				</g>
				<g>
					<path style="fill:#FFAC9D;" d="M370.189,280.977c0,0,20.979,28.622,9.163,8.896c0,0,18.109,19.159,1.679-1.406
						c0,0,17.59,16.65,2.405-2.586c0,0,15.145,9.951,1.802-2.52l-1.821-2.122c0,0,13.87,1.658-2.397-2.915l-3.831-3.736
						L370.189,280.977z"/>
					<path style="fill:#FC6A5A;" d="M342.846,193.387c0,0,13.131,50.227,39,79.669c0,0-7.557,16.977-30.06,20.727
						c0,0-21.117-45.455-23.025-71.727C326.853,195.783,342.846,193.387,342.846,193.387z"/>
					<path style="opacity:0.2;fill:#211C23;" d="M342.846,193.387c0,0,2.615,9.995,7.804,23.678
						c-4.114,3.533-7.394,8.118-10.819,12.26c-2.61,3.156-5.41,6.134-8.242,9.083c-1.44-5.84-2.471-11.433-2.828-16.352
						C326.853,195.783,342.846,193.387,342.846,193.387z"/>
				</g>
			</g>
			<g>
				<path style="fill:#FC6A5A;" d="M322.103,255.079l-0.018-0.045l20.813-61.713l-18.518-5.239
					c-6.305,3.718-11.237,6.882-18.058,6.907c-1.069,0.004-2.154-0.066-3.224-0.224l-0.643,0.401l-0.153-0.536
					c-2.954-0.565-5.746-1.845-7.748-4.169c-2.374-2.756-2.921-6.336-2.67-9.882l-17.622-2.949l-2.377,72.886l-1.071,1.279
					C288.663,259.992,302.019,255.722,322.103,255.079z"/>
				<path style="fill:#352C38;" d="M328.903,235.928c-19.699-1.685-36.301-3.415-56.036-4.63l-0.983,19.218l0,0
					c16.845,5.009,30.135,5.206,50.22,4.563l-0.018-0.045L328.903,235.928z"/>
				<g>
					<path style="fill:#FDDEC0;" d="M322.199,185.459c0,0-12.953,12.859-23.35,7.693c-5.036-2.502-5.291-7.8-5.897-12.755
						l-18.691-2.767c0,0-3.58,36.672,13.307,39.753c5.602,1.022,13.407-5.283,14.544-11.782c0.656,7.038,3.52,15.206,13.13,16.132
						c17.217,1.659,27.859-31.201,27.859-31.201L322.199,185.459z"/>
				</g>
			</g>
		</g>
	</g>
	<g>
		<ellipse style="opacity:0.2;fill:#352C38;" cx="115.845" cy="444.47" rx="86.178" ry="11.613"/>
		<g>
			<g>
				<path style="fill:#7F4645;" d="M160.141,172.676c0,0-3.221,16.798-0.729,18.256c2.492,1.458,7.223,4.438,7.223,4.438
					s-22.533,25.744-37.798,14.417c0,0,11.066-10.318,12.393-13.741c1.326-3.423-1.63-39.118-1.63-39.118L160.141,172.676z"/>
				<path style="fill:#965450;" d="M149.376,145.084c3.743,0.8,8.401,1.423,12.221,3.008c2.191,5.528,3.162,11.735,3.281,14.463
					c0.186,4.27-4.882,24.595-25.279,24.118c-19.602-0.459-16.766-33.347-7.468-44.591
					C137.893,142.986,143.671,143.865,149.376,145.084z"/>
				<path style="fill:#FDDEC0;" d="M157.313,150.27l-0.123,16.985l3.446,0.246c0,0-1.477-9.6,0.985-9.6
					c2.462,0,5.046,7.754,0.246,10.092c-1.969,5.661-2.719,9.986-2.719,9.986s9.354-6.841,9.354-19.965
					C168.502,147.683,157.313,150.27,157.313,150.27z"/>
			</g>
			<g>
				<g style="opacity:0.7;">
					<path style="fill:#76413B;" d="M136.507,156.763c-0.039,1.24-0.157,2.463-0.309,3.678c-0.151,1.216-0.339,2.424-0.553,3.626
						c-0.096,0.604-0.229,1.199-0.344,1.799c-0.117,0.599-0.238,1.197-0.38,1.791c-0.26,1.192-0.561,2.376-0.874,3.557l-0.367-0.698
						c1.702,0.835,3.39,1.702,5.005,2.746c-1.879-0.407-3.685-0.99-5.478-1.607l-0.455-0.157l0.089-0.542
						c0.197-1.206,0.407-2.409,0.657-3.604c0.113-0.6,0.248-1.195,0.386-1.79c0.139-0.594,0.262-1.192,0.421-1.782
						c0.296-1.185,0.619-2.364,0.978-3.535C135.643,159.074,136.036,157.91,136.507,156.763z"/>
				</g>
				<path style="fill:#FFFFFF;" d="M148.444,175.786c0,0-10.594-0.113-18.658-0.296
					C129.786,175.489,138.697,183.448,148.444,175.786z"/>
				<g>
					<path style="fill:#76413B;" d="M161.8,166.392c0.208-0.494,0.388-0.995,0.465-1.467c0.007-0.117,0.025-0.229,0.014-0.331
						c-0.008-0.1-0.027-0.193-0.069-0.251c-0.036-0.065-0.068-0.111-0.14-0.144c-0.047-0.046-0.154-0.057-0.232-0.09l-0.233-0.097
						l-0.043-0.201c-0.189-0.889-0.324-1.779-0.324-2.697c0.001-0.458,0.021-0.922,0.152-1.393c0.035-0.117,0.073-0.239,0.139-0.354
						c0.072-0.114,0.161-0.243,0.323-0.304c0.173-0.059,0.311,0.024,0.41,0.087c0.099,0.075,0.167,0.172,0.235,0.262
						c-0.189-0.107-0.445-0.204-0.533-0.111c-0.082,0.088-0.103,0.298-0.11,0.497c-0.003,0.411,0.048,0.843,0.099,1.272l0.362,2.598
						l-0.276-0.298c0.162,0.073,0.322,0.118,0.472,0.256c0.148,0.106,0.279,0.295,0.329,0.471c0.065,0.184,0.061,0.362,0.044,0.522
						c-0.018,0.163-0.06,0.307-0.111,0.446c-0.112,0.271-0.253,0.512-0.423,0.728C162.184,166.011,162.009,166.217,161.8,166.392z"
						/>
				</g>
				<path style="fill:#352C38;" d="M150.279,158.754c0,1.279-0.549,2.317-1.226,2.317c-0.677,0-1.226-1.037-1.226-2.317
					s0.549-2.317,1.226-2.317C149.729,156.438,150.279,157.475,150.279,158.754z"/>
				<path style="fill:#352C38;" d="M132.563,157.46c0,1.279-0.549,2.317-1.226,2.317c-0.677,0-1.227-1.037-1.227-2.317
					s0.549-2.317,1.227-2.317C132.014,155.143,132.563,156.18,132.563,157.46z"/>
			</g>
			<g>
				<g>
					<path style="fill:#352C38;" d="M169.016,148.874l-41.495-4.088c0,0-4.695,9.848-2.794,20.986c0,0,5.845,8.49,8.895-1.918
						c2.892-9.87,4.202-3.487,4.8,1.1c1.022,7.836,11.882,12.409,19.759-5.792c0,0,3.414-5.465,10.493-2.657L169.016,148.874z
						 M126.016,157.335c5.064-6.791,7.878,1.358,7.878,1.358C128.83,165.756,126.016,157.335,126.016,157.335z M141.229,158.965
						c7.335-6.791,11.409,1.358,11.409,1.358C145.304,167.386,141.229,158.965,141.229,158.965z"/>
					<path style="fill:#1C181E;" d="M168.934,150.709l0.082-1.834l-41.495-4.088c0,0-0.871,1.83-1.711,4.799L168.934,150.709z"/>
				</g>
				<g>
					<path style="fill:#007476;" d="M124.627,133.844c-0.325-0.976,19.908-59.515,22.835-59.19
						c2.927,0.325,20.425,62.768,20.425,62.768L124.627,133.844z"/>
					<path style="opacity:0.4;fill:#143030;" d="M124.627,133.844c-0.325-0.976,19.908-59.515,22.835-59.19
						c2.927,0.325,20.425,62.768,20.425,62.768L124.627,133.844z"/>
					<polygon style="fill:#007476;" points="117.796,145.554 174.717,149.457 178.945,134.495 118.447,127.014 					"/>
				</g>
			</g>
		</g>
		<g>
			<path style="fill:#965450;" d="M69.512,216.012c0,0-19.559-29.61-5.161-11.681c0,0-11.681-23.634,1.902-1.087
				c0,0-9.508-22.276,3.26-1.358c0,0-4.075-17.658,2.988-0.815l1.358,2.445c0,0,3.26-13.583,1.902,3.26l2.173,4.89L69.512,216.012z"
				/>
			<g>
				<path style="fill:#007476;" d="M30.358,424.274c6.545,9.413,18.775,13.905,20.681,14.223
					c8.594,1.432,75.146-118.105,85.585-133.111l11.105,0.666l44.179,52.299l-49.775,74.662
					c9.955,9.466,21.515,11.682,28.994,13.747c0.363-0.291,0.68-0.631,0.932-1.038c2.019-3.273-18.355-13.638-17.623-13.816
					c6.846-7.327,59.396-62.591,58.944-72.092c-0.488-10.248-40.991-89.302-40.991-89.302c7.32-25.864,12.033-67.541,12.033-67.541
					c1.247-5.94,2.324,1.376,3.06-4.785c-12.92-4.55-61.727-1.478-67.47,2.056c-6.344,3.904-26.458,36.143-26.458,36.143
					l-15.892-28.931l-11.404,5.958c0,0,19.868,49.4,29.166,47.308c7.711-1.735,17.485-14.547,24.616-23.792l-3.693,31.463
					L48.452,428.868C48.984,429.661,28.16,418.233,30.358,424.274z M213.38,359.816c-0.488-10.248-40.991-89.302-40.991-89.302"/>
				<path style="opacity:0.4;fill:#143030;" d="M115.83,242.344c1.777-12.771,4.65-25.391,7.05-38.065
					c-1.187-1.178-2.295-2.42-3.348-3.706c-2.628,1.966-7.09,7.738-11.582,14.091c2.799,9.358,4.714,18.991,7.319,28.391
					C115.458,242.817,115.642,242.581,115.83,242.344z"/>
				<path style="opacity:0.4;fill:#143030;" d="M112.865,276.622l-7.446,17.598c27.246,5.711,55,7.476,82.837,7.985
					c-3.209-6.536-6.257-12.656-8.81-17.743C157.191,282.444,134.988,279.879,112.865,276.622z"/>
			</g>
		</g>
		<g>
			<g>
				<path style="fill:#965450;" d="M175.098,127.911c-2.554-0.125-1.814,2.186-1.814,2.186c-3.709-0.922-2.188,2.85-2.188,2.85
					c-3.674-0.465-1.89,2.581-1.89,2.581c-2.341,0.536-0.734,2.645,1.413,4.524c-1.775,1.092-1.146,3.623,3.352,3.844
					c2.51,0.123,5.429-0.723,5.33-0.59c2.898,1.454,4.808,2.4,4.808,2.4l11.708,15.207l-12.803-24.1l0,0
					C183.835,133.668,177.64,128.036,175.098,127.911z"/>
				<path style="fill:#007476;" d="M222.484,176.05c-1.338,7.79-37.616,38.616-46.483,46.21l-17.929,13.583
					c-4.592,3.19,31.096-27.471,25.892-26.032c-7.651,2.116-14.726-0.03-21.42-3.546c0.244-1.159,2.03-5.209,2.319-5.738
					c3.574-6.536,35.858-26.894,35.858-26.894l-21.597-25.264l6.63-12.197C185.755,136.173,224.097,166.656,222.484,176.05z"/>
				<path style="opacity:0.4;fill:#143030;" d="M192.618,178.89c-9.814,6.493-25.34,17.221-27.755,21.638
					c-0.289,0.529-2.075,4.579-2.319,5.738c6.694,3.516,13.768,5.662,21.42,3.546c5.204-1.439-30.484,29.221-25.892,26.032
					l17.929-13.583c3.067-2.627,9.413-8.033,16.459-14.304C192.948,198.263,193.344,188.569,192.618,178.89z"/>
			</g>
			<g>
				<path style="fill:#765E69;" d="M116.347,268.393L99.938,288c0,0,47.811,16.299,90.189,3.803l-17.738-21.29L116.347,268.393z"/>
				<polygon style="fill:#765E69;" points="117.323,247.252 111.483,196.86 139.192,194.008 159.566,252.278 				"/>
				<path style="fill:#765E69;" d="M145.304,251.463l16.299-59.085l29.339-11.817c0,0-7.742,48.354-13.854,72.667L145.304,251.463z"
					/>
				<polygon style="fill:#352C38;" points="117.323,247.252 116.347,268.393 172.389,270.514 177.087,253.229 				"/>
				<polygon style="fill:#FDDEC0;" points="151.008,228.236 121.67,192.786 140.822,191.971 				"/>
				<polygon style="fill:#FDDEC0;" points="162.826,185.858 151.008,228.236 179.94,185.044 				"/>
			</g>
		</g>
	</g>
</g>
</svg>
