<svg width="453" height="357" viewBox="0 0 453 357" fill="none" xmlns="http://www.w3.org/2000/svg">
<path d="M301.6 169.6C302.933 167.2 304.867 165.6 307.4 164.8C309.933 164 313.067 163.6 316.8 163.6C320.667 163.6 323.733 163.933 326 164.6C328.4 165.267 330.133 166.067 331.2 167C332.4 167.933 333.267 169.333 333.8 171.2C334.6 173.333 335 176.733 335 181.4V292.4C335 295.6 334.867 297.933 334.6 299.4C334.467 300.867 333.867 302.6 332.8 304.6C330.933 308.2 325.733 310 317.2 310C312 310 308.4 309.6 306.4 308.8C304.4 308 302.733 306.733 301.4 305C271.4 265 251.667 238.867 242.2 226.6V292.4C242.2 295.6 242.067 297.933 241.8 299.4C241.667 300.867 241.067 302.6 240 304.6C238.133 308.2 232.933 310 224.4 310C216.133 310 211.067 308.2 209.2 304.6C208.133 302.6 207.467 300.8 207.2 299.2C207.067 297.6 207 295.267 207 292.2V180.6C207 175.533 207.6 171.867 208.8 169.6C210.133 167.2 212.067 165.6 214.6 164.8C217.133 164 220.4 163.6 224.4 163.6C228.4 163.6 231.533 164 233.8 164.8C236.2 165.467 237.867 166.267 238.8 167.2C239.333 167.6 240.867 169.333 243.4 172.4C271.533 210.667 290.333 235.933 299.8 248.2V180.6C299.8 175.533 300.4 171.867 301.6 169.6Z" fill="#0F508D"/>
<path d="M156.572 66.7594C156.572 66.7594 154.374 67.6739 150.401 67.3428C147.169 67.0739 142.433 63.4254 136.673 61.0509C139.029 59.1022 142.064 56.2582 143.392 53.6016C143.392 53.6016 138.749 54.3763 135.848 54.763C143.198 48.3791 152.483 47.6057 159.833 36.3874C159.833 36.3874 156.93 33.8731 137.203 35.614C119.745 37.1541 120.308 48.5387 118.792 57.3031C116.142 57.2163 113.51 57.3355 110.78 57.6315C107.688 57.9652 103.939 59.0657 102 60.3722C117.086 69.463 124.049 70.6225 137.202 69.6557C150.353 68.6896 151.928 73.9161 162.76 69.661L156.572 66.7594Z" fill="#BE1E2D"/>
<path d="M183.789 103.41C184.676 102.856 186.895 100.748 187.338 99.4175C173.474 107.736 168.484 99.6398 162.827 96.3126C157.171 92.9854 150.85 93.5397 145.193 91.2107C139.537 88.8816 135.324 90.3237 130.998 92.0977C130.998 92.0977 135.572 93.9816 139.061 96.7531C138.454 100.682 130.543 113.375 130 118.383C134.436 116.719 136.543 113.836 136.543 113.836C136.21 116.719 136.543 117.717 136.543 117.717C139.649 116.276 142.199 111.507 142.199 111.507L142.82 112.921C142.519 116.981 142.13 121.902 142.088 127.81C142.088 127.81 144.528 126.035 145.638 121.488C145.638 121.488 146.524 122.874 147.19 126.035C147.19 126.035 160.166 118.494 159.723 107.958C159.723 107.958 161.276 108.734 164.381 109.732C164.381 109.732 164.936 106.627 162.274 101.858C163.826 101.192 169.482 103.743 173.364 105.739C177.246 107.736 183.456 106.294 190 104.408C190 104.408 188.447 103.189 183.789 103.41Z" fill="#FFCD03"/>
<path d="M84.5543 51.1633C84.5543 51.1633 84.7286 47.6209 83.9357 42.3308C82.2162 42.3193 78.524 49.7189 69.4317 45.5023C69.6336 33.8771 54.329 31.0401 65.8216 14.8035C48.9254 25.6025 43.665 33.4824 47.3889 40.8786C43.3667 42.3929 39.7544 45.1205 36.7441 48.3763C39.2247 47.5946 43.6248 48.0534 48.2324 51.7311C49.188 52.4943 50.3225 53.0892 51.5582 53.56C38.7616 57.7494 40.2566 72.8132 58.3438 84.2434C56.8325 70.6153 71.625 63.3115 70.284 55.2507C73.0374 56.3515 74.5816 59.262 80.785 61.1721C80.785 61.1721 82.8736 58.6679 84.0076 55.8483L79.7758 51.2319C79.7758 51.2319 81.1064 49.7868 84.5543 51.1633Z" fill="#0F508D"/>
<path d="M61 96.9861C72.2401 94.7839 77.1918 96.0424 81.4355 99.3441C81.4355 85.4319 86.6229 79.5374 119.163 76C115.626 82.6025 102.236 91.7083 102.236 91.7083C108.964 91.5735 110.674 92.4267 110.674 92.4267C105.643 94.7847 99.6802 96.8206 99.6802 96.8206C105.182 97.1338 108.08 98.6369 108.08 98.6369C106.901 100.287 98.6477 105.004 98.6477 105.004C102.908 105.7 103.582 107.853 117.035 107.853C126.049 108.391 127.798 114.445 127.798 114.445C119.995 110.14 107.886 114.715 102.656 116.086C94.6204 118.191 81.2765 120.957 73.2589 107.989C69.2533 102.094 61 96.9861 61 96.9861Z" fill="#009444"/>
<path fill-rule="evenodd" clip-rule="evenodd" d="M310.983 305.339C307.838 303.607 305.827 300.426 305.535 296.848C303.735 274.786 297.374 195.259 298.5 186.5C301.379 164.107 296.34 143.899 283.703 137.181C271.067 130.463 245.316 135.741 240.197 141.34C235.079 146.938 229.481 131.263 253.793 129.024C253.793 129.024 247.715 125.025 238.278 125.665C228.841 126.304 216.205 127.105 221.083 121.027C225.961 114.948 247.955 117.746 255.792 119.746C255.792 119.746 244.357 116.468 235.24 107.191C226.122 97.9131 231.561 94.7143 241.158 101.112C250.755 107.51 260.672 116.148 270.268 117.747C270.268 117.747 259.392 111.509 254.114 102.072C248.835 92.6351 250.594 86.5567 263.231 98.0731C275.867 109.59 277.786 115.028 290.582 114.868C303.378 114.708 285.145 102.391 279.066 94.8744C272.989 87.3568 275.228 80.9584 277.947 76C277.947 76 286.106 87.6754 292.983 91.8341C299.861 95.993 317.457 112.467 318.097 155.332C318.356 172.697 329.013 262.77 331.835 293.697C332.315 298.95 328.901 303.439 324.607 306.501C320.738 309.261 320.363 310.504 310.983 305.339Z" fill="#0F508D"/>
<path fill-rule="evenodd" clip-rule="evenodd" d="M335 302C335.5 295 338.309 208.099 337 197.916C334.121 175.524 340.822 142.815 353.459 136.097C366.095 129.379 391.847 134.658 396.965 140.256C402.084 145.854 407.682 130.179 383.37 127.94C383.37 127.94 389.448 123.941 398.885 124.581C408.321 125.22 420.957 126.021 416.079 119.943C411.201 113.865 389.208 116.663 381.37 118.663C381.37 118.663 392.805 115.384 401.923 106.107C411.04 96.8295 405.602 93.6307 396.005 100.029C386.408 106.427 376.491 115.064 366.894 116.663C366.894 116.663 377.771 110.425 383.049 100.988C388.327 91.5514 386.568 85.473 373.932 96.9895C361.296 108.506 359.376 113.945 346.58 113.785C333.785 113.624 352.019 101.308 358.096 93.7908C364.174 86.2731 361.935 79.8747 359.215 74.9163C359.215 74.9163 351.057 86.5917 344.179 90.7504C337.302 94.9093 319.706 111.383 319.065 154.249C318.772 173.884 313.523 289.529 313 304.462L335 302Z" fill="#0F508D"/>
<path fill-rule="evenodd" clip-rule="evenodd" d="M208.498 93.1822C213.654 91.5467 219.521 92.7728 223.609 96.8619C227.313 100.565 228.667 105.727 227.675 110.498L215.755 100.439L225.814 112.36C221.042 113.352 215.88 111.998 212.177 108.294C208.088 104.205 206.862 98.338 208.498 93.1822Z" fill="#0F508D"/>
<path fill-rule="evenodd" clip-rule="evenodd" d="M225.775 73.692C230.931 72.0565 236.797 73.2826 240.887 77.3718C244.59 81.0749 245.945 86.237 244.952 91.0079L233.031 80.9487L243.09 92.8693C238.32 93.8621 233.158 92.5072 229.454 88.8035C225.366 84.7147 224.14 78.8478 225.775 73.692Z" fill="#0F508D"/>
<path fill-rule="evenodd" clip-rule="evenodd" d="M251.209 68.4142C256.365 66.7787 262.231 68.0048 266.32 72.0934C270.023 75.7966 271.378 80.9585 270.385 85.7294L258.465 75.6702L268.524 87.5907C263.753 88.5835 258.591 87.2286 254.888 83.5255C250.799 79.4364 249.573 73.5694 251.209 68.4142Z" fill="#0F508D"/>
<path fill-rule="evenodd" clip-rule="evenodd" d="M212.26 150.285C217.415 151.92 223.282 150.695 227.371 146.606C231.074 142.903 232.429 137.74 231.437 132.97L219.516 143.029L229.575 131.108C224.804 130.115 219.642 131.47 215.939 135.174C211.85 139.263 210.624 145.13 212.26 150.285Z" fill="#0F508D"/>
<path fill-rule="evenodd" clip-rule="evenodd" d="M191.711 123.882C194.2 128.685 199.216 131.966 204.998 131.966C210.235 131.966 214.843 129.274 217.515 125.199L201.973 123.882L217.515 122.566C214.843 118.491 210.235 115.799 204.998 115.799C199.216 115.799 194.2 119.081 191.711 123.882Z" fill="#0F508D"/>
<path fill-rule="evenodd" clip-rule="evenodd" d="M300.75 55.1385C295.594 53.503 289.727 54.7291 285.638 58.8178C281.935 62.5209 280.58 67.683 281.573 72.4539L293.493 62.3947L283.434 74.3153C288.205 75.3081 293.367 73.9533 297.07 70.2499C301.159 66.1608 302.385 60.2938 300.75 55.1385Z" fill="#0F508D"/>
<path fill-rule="evenodd" clip-rule="evenodd" d="M192.004 150.007C195.218 151.026 198.877 150.262 201.427 147.712C203.737 145.403 204.581 142.183 203.963 139.209L196.529 145.481L202.801 138.048C199.826 137.429 196.607 138.274 194.298 140.583C191.748 143.133 190.984 146.792 192.004 150.007Z" fill="#0F508D"/>
<path fill-rule="evenodd" clip-rule="evenodd" d="M189.437 97.5016C192.652 96.4817 196.311 97.2465 198.861 99.7963C201.17 102.106 202.015 105.325 201.396 108.3L193.962 102.027L200.235 109.461C197.26 110.08 194.041 109.235 191.732 106.925C189.182 104.375 188.417 100.717 189.437 97.5016Z" fill="#0F508D"/>
<path fill-rule="evenodd" clip-rule="evenodd" d="M204.316 73.349C207.531 72.3293 211.19 73.0933 213.74 75.6432C216.049 77.9525 216.894 81.1715 216.275 84.1467L208.841 77.874L215.114 85.3074C212.139 85.9267 208.92 85.082 206.61 82.7722C204.06 80.2223 203.296 76.5639 204.316 73.349Z" fill="#0F508D"/>
<path fill-rule="evenodd" clip-rule="evenodd" d="M230.253 55.7709C233.469 54.7509 237.127 55.5158 239.677 58.0656C241.987 60.3749 242.832 63.5939 242.213 66.5693L234.779 60.2965L241.052 67.7299C238.077 68.3492 234.857 67.5039 232.548 65.1946C229.999 62.6447 229.234 58.9861 230.253 55.7709Z" fill="#0F508D"/>
<path fill-rule="evenodd" clip-rule="evenodd" d="M266.131 44.0295C270.876 45.0728 274.889 48.6611 276.234 53.6777C277.451 58.2215 276.187 62.8453 273.273 66.1105L268.517 52.9327L270.988 66.7225C266.831 65.352 263.425 61.9802 262.207 57.4366C260.863 52.4193 262.544 47.3051 266.131 44.0295Z" fill="#0F508D"/>
<path fill-rule="evenodd" clip-rule="evenodd" d="M293.112 41.2161C289.897 40.1964 286.239 40.961 283.689 43.5109C281.379 45.8202 280.534 49.0391 281.153 52.0144L288.587 45.7411L282.314 53.1751C285.29 53.7944 288.509 52.9491 290.818 50.6398C293.368 48.0899 294.132 44.4315 293.112 41.2161Z" fill="#0F508D"/>
<path fill-rule="evenodd" clip-rule="evenodd" d="M249.06 48.6727C252.429 48.5195 255.765 50.2047 257.568 53.3276C259.201 56.1565 259.184 59.484 257.816 62.198L252.26 54.215L256.395 63.0189C253.361 62.8465 250.47 61.1975 248.837 58.3692C247.034 55.2463 247.243 51.514 249.06 48.6727Z" fill="#0F508D"/>
<path fill-rule="evenodd" clip-rule="evenodd" d="M209.031 55.43C212.246 54.4102 215.905 55.1748 218.455 57.7248C220.764 60.0341 221.609 63.253 220.99 66.2282L213.556 59.955L219.829 67.3889C216.853 68.0077 213.634 67.163 211.325 64.8537C208.775 62.3038 208.011 58.6454 209.031 55.43Z" fill="#0F508D"/>
<path fill-rule="evenodd" clip-rule="evenodd" d="M306.749 76.4381C303.534 75.4182 299.875 76.183 297.325 78.7328C295.016 81.0421 294.171 84.2611 294.79 87.2365L302.224 80.9631L295.951 88.3971C298.926 89.0163 302.145 88.1711 304.454 85.8618C307.005 83.312 307.769 79.6534 306.749 76.4381Z" fill="#0F508D"/>
<path fill-rule="evenodd" clip-rule="evenodd" d="M433.507 93.1822C428.352 91.5467 422.485 92.7728 418.396 96.8619C414.693 100.565 413.338 105.727 414.33 110.498L426.251 100.439L416.192 112.36C420.963 113.352 426.125 111.998 429.828 108.294C433.917 104.205 435.143 98.338 433.507 93.1822Z" fill="#0F508D"/>
<path fill-rule="evenodd" clip-rule="evenodd" d="M416.226 73.692C411.07 72.0565 405.204 73.2826 401.115 77.3718C397.411 81.0749 396.056 86.237 397.049 91.0079L408.97 80.9487L398.911 92.8693C403.682 93.8621 408.844 92.5072 412.547 88.8035C416.636 84.7147 417.861 78.8478 416.226 73.692Z" fill="#0F508D"/>
<path fill-rule="evenodd" clip-rule="evenodd" d="M390.792 68.4142C385.637 66.7787 379.77 68.0048 375.681 72.0934C371.978 75.7966 370.623 80.9585 371.616 85.7294L383.536 75.6702L373.477 87.5907C378.248 88.5835 383.41 87.2286 387.113 83.5255C391.202 79.4364 392.428 73.5694 390.792 68.4142Z" fill="#0F508D"/>
<path fill-rule="evenodd" clip-rule="evenodd" d="M429.742 150.285C424.586 151.92 418.719 150.695 414.63 146.606C410.927 142.903 409.572 137.74 410.565 132.97L422.485 143.029L412.426 131.108C417.197 130.115 422.36 131.47 426.063 135.174C430.151 139.263 431.377 145.13 429.742 150.285Z" fill="#0F508D"/>
<path fill-rule="evenodd" clip-rule="evenodd" d="M450.289 123.882C447.8 128.685 442.784 131.966 437.002 131.966C431.765 131.966 427.156 129.274 424.484 125.199L440.026 123.882L424.484 122.566C427.156 118.491 431.764 115.799 437.002 115.799C442.784 115.799 447.8 119.081 450.289 123.882Z" fill="#0F508D"/>
<path fill-rule="evenodd" clip-rule="evenodd" d="M341.252 55.1385C346.408 53.503 352.274 54.7291 356.363 58.8178C360.066 62.5209 361.421 67.683 360.429 72.4539L348.508 62.3947L358.567 74.3153C353.796 75.3081 348.634 73.9533 344.931 70.2499C340.842 66.1608 339.616 60.2938 341.252 55.1385Z" fill="#0F508D"/>
<path fill-rule="evenodd" clip-rule="evenodd" d="M449.999 150.007C446.784 151.026 443.125 150.262 440.575 147.712C438.266 145.403 437.421 142.183 438.04 139.209L445.474 145.481L439.201 138.048C442.176 137.429 445.396 138.274 447.705 140.583C450.255 143.133 451.019 146.792 449.999 150.007Z" fill="#0F508D"/>
<path fill-rule="evenodd" clip-rule="evenodd" d="M452.561 97.5016C449.346 96.4817 445.688 97.2465 443.138 99.7963C440.829 102.106 439.983 105.325 440.603 108.3L448.036 102.027L441.763 109.461C444.739 110.08 447.958 109.235 450.267 106.925C452.817 104.375 453.581 100.717 452.561 97.5016Z" fill="#0F508D"/>
<path fill-rule="evenodd" clip-rule="evenodd" d="M437.69 73.349C434.475 72.3293 430.817 73.0933 428.267 75.6432C425.957 77.9525 425.113 81.1715 425.731 84.1467L433.165 77.874L426.893 85.3074C429.867 85.9267 433.086 85.082 435.396 82.7722C437.946 80.2223 438.71 76.5639 437.69 73.349Z" fill="#0F508D"/>
<path fill-rule="evenodd" clip-rule="evenodd" d="M411.749 55.7709C408.534 54.7509 404.875 55.5158 402.325 58.0656C400.016 60.3749 399.171 63.5939 399.79 66.5693L407.223 60.2965L400.951 67.7299C403.926 68.3492 407.145 67.5039 409.454 65.1946C412.004 62.6447 412.769 58.9861 411.749 55.7709Z" fill="#0F508D"/>
<path fill-rule="evenodd" clip-rule="evenodd" d="M375.868 44.0295C371.123 45.0728 367.11 48.6611 365.766 53.6777C364.548 58.2215 365.812 62.8453 368.727 66.1105L373.482 52.9327L371.011 66.7225C375.168 65.352 378.575 61.9802 379.792 57.4366C381.136 52.4193 379.455 47.3051 375.868 44.0295Z" fill="#0F508D"/>
<path fill-rule="evenodd" clip-rule="evenodd" d="M348.89 41.2161C352.105 40.1964 355.764 40.961 358.314 43.5109C360.623 45.8202 361.468 49.0391 360.849 52.0144L353.415 45.7411L359.688 53.1751C356.713 53.7944 353.494 52.9491 351.185 50.6398C348.635 48.0899 347.871 44.4315 348.89 41.2161Z" fill="#0F508D"/>
<path fill-rule="evenodd" clip-rule="evenodd" d="M392.939 48.6727C389.57 48.5195 386.234 50.2047 384.431 53.3276C382.798 56.1565 382.815 59.484 384.183 62.198L389.739 54.215L385.604 63.0189C388.638 62.8465 391.529 61.1975 393.162 58.3692C394.965 55.2463 394.756 51.514 392.939 48.6727Z" fill="#0F508D"/>
<path fill-rule="evenodd" clip-rule="evenodd" d="M432.968 55.43C429.753 54.4102 426.094 55.1748 423.544 57.7248C421.235 60.0341 420.39 63.253 421.009 66.2282L428.443 59.955L422.17 67.3889C425.145 68.0077 428.364 67.163 430.674 64.8537C433.223 62.3038 433.988 58.6454 432.968 55.43Z" fill="#0F508D"/>
<path fill-rule="evenodd" clip-rule="evenodd" d="M335.254 76.4381C338.469 75.4182 342.127 76.183 344.677 78.7328C346.987 81.0421 347.832 84.2611 347.212 87.2365L339.779 80.9631L346.052 88.3971C343.076 89.0163 339.857 88.1711 337.548 85.8618C334.998 83.312 334.234 79.6534 335.254 76.4381Z" fill="#0F508D"/>
<path fill-rule="evenodd" clip-rule="evenodd" d="M331.558 88.2611C326.403 86.6256 320.536 87.8517 316.447 91.9404C312.743 95.6435 311.389 100.806 312.381 105.576L324.302 95.5172L314.243 107.438C319.014 108.431 324.176 107.076 327.879 103.373C331.968 99.2834 333.194 93.4163 331.558 88.2611Z" fill="#0F508D"/>
<path fill-rule="evenodd" clip-rule="evenodd" d="M308.935 61.0606C314.091 59.4252 319.958 60.6512 324.047 64.7404C327.75 68.4435 329.105 73.6055 328.113 78.3764L316.192 68.3172L326.251 80.2377C321.48 81.2305 316.318 79.8757 312.614 76.1719C308.526 72.0834 307.3 66.2164 308.935 61.0606Z" fill="#0F508D"/>
<path fill-rule="evenodd" clip-rule="evenodd" d="M342.015 37.5446C336.859 35.909 330.993 37.1352 326.904 41.2238C323.201 44.9269 321.846 50.0889 322.838 54.8598L334.759 44.8006L324.7 56.7211C329.471 57.7139 334.633 56.3591 338.336 52.6558C342.425 48.5669 343.651 42.7003 342.015 37.5446Z" fill="#0F508D"/>
<path fill-rule="evenodd" clip-rule="evenodd" d="M297.709 29.2237C302.865 27.5883 308.731 28.8143 312.82 32.903C316.524 36.6061 317.878 41.7681 316.885 46.539L304.965 36.4801L315.025 48.4007C310.253 49.3934 305.091 48.0386 301.388 44.3352C297.299 40.246 296.073 34.3795 297.709 29.2237Z" fill="#0F508D"/>
<path fill-rule="evenodd" clip-rule="evenodd" d="M329.931 18.565C326.562 18.4116 323.226 20.0977 321.423 23.2205C319.79 26.0488 319.807 29.3767 321.175 32.0904L326.732 24.1074L322.596 32.9111C325.63 32.7392 328.521 31.0897 330.154 28.2613C331.957 25.1384 331.749 21.4067 329.931 18.565Z" fill="#0F508D"/>
<path fill-rule="evenodd" clip-rule="evenodd" d="M268.135 15.5795C273.29 13.9439 279.157 15.17 283.246 19.2594C286.949 22.9625 288.304 28.1245 287.312 32.8954L275.391 22.8363L285.45 34.7567C280.679 35.7495 275.517 34.3946 271.814 30.6909C267.725 26.6023 266.499 20.7352 268.135 15.5795Z" fill="#0F508D"/>
<path fill-rule="evenodd" clip-rule="evenodd" d="M289.243 7.36751C292.613 7.21433 295.949 8.90022 297.752 12.0232C299.385 14.8513 299.368 18.1794 298 20.8931L292.443 12.9098L296.578 21.7137C293.544 21.5419 290.653 19.8924 289.02 17.064C287.218 13.9411 287.426 10.2094 289.243 7.36751Z" fill="#0F508D"/>
<path fill-rule="evenodd" clip-rule="evenodd" d="M249.449 27.0574C252.664 26.0376 256.323 26.8025 258.872 29.3522C261.182 31.6615 262.027 34.8805 261.408 37.8559L253.974 31.5825L260.247 39.0165C257.272 39.6358 254.053 38.7905 251.744 36.4812C249.194 33.9314 248.429 30.2728 249.449 27.0574Z" fill="#0F508D"/>
<path fill-rule="evenodd" clip-rule="evenodd" d="M339.541 17.3424C344.696 15.7068 350.563 16.933 354.652 21.022C358.356 24.7254 359.711 29.8873 358.718 34.6581L346.797 24.5991L356.856 36.5196C352.085 37.5124 346.923 36.1575 343.22 32.4538C339.131 28.3652 337.906 22.4982 339.541 17.3424Z" fill="#0F508D"/>
<path fill-rule="evenodd" clip-rule="evenodd" d="M383.285 21.2294C378.129 19.5938 372.262 20.82 368.174 24.9086C364.47 28.6123 363.115 33.7737 364.108 38.545L376.028 28.4855L365.969 40.4065C370.74 41.3988 375.902 40.0439 379.605 36.3408C383.694 32.2521 384.92 26.3852 383.285 21.2294Z" fill="#0F508D"/>
<path fill-rule="evenodd" clip-rule="evenodd" d="M370.049 3.06602C366.679 2.91262 363.343 4.59807 361.54 7.7209C359.907 10.5498 359.924 13.8774 361.292 16.5914L366.849 8.60778L362.714 17.412C365.748 17.2396 368.639 15.5907 370.272 12.7619C372.074 9.63894 371.866 5.90723 370.049 3.06602Z" fill="#0F508D"/>
<path fill-rule="evenodd" clip-rule="evenodd" d="M316.631 5.84083C313.261 5.6882 309.925 7.37355 308.122 10.4965C306.489 13.3246 306.506 16.6527 307.874 19.3664L313.431 11.3831L309.296 20.1871C312.33 20.0152 315.22 18.3657 316.854 15.5374C318.656 12.4144 318.448 8.6827 316.631 5.84083Z" fill="#0F508D"/>
<path fill-rule="evenodd" clip-rule="evenodd" d="M325.071 0.00953536C328.441 -0.143098 331.777 1.54225 333.58 4.66508C335.213 7.49331 335.196 10.8214 333.828 13.5349L328.271 5.55185L332.407 14.3558C329.373 14.1839 326.482 12.5344 324.849 9.70606C323.046 6.58323 323.254 2.85151 325.071 0.00953536Z" fill="#0F508D"/>
<path fill-rule="evenodd" clip-rule="evenodd" d="M401.866 31.3014C398.651 30.2815 394.992 31.0463 392.442 33.5956C390.133 35.9055 389.288 39.1244 389.907 42.0991L397.341 35.8264L391.068 43.2604C394.043 43.8792 397.262 43.0344 399.571 40.7251C402.121 38.1752 402.886 34.5166 401.866 31.3014Z" fill="#0F508D"/>
<path fill-rule="evenodd" clip-rule="evenodd" d="M389.367 2.29102C394.65 3.45281 399.117 7.44789 400.614 13.0332C401.97 18.0919 400.562 23.24 397.317 26.875L392.023 12.2035L394.774 27.5567C390.146 26.0307 386.353 22.2761 384.998 17.2174C383.501 11.632 385.373 5.93806 389.367 2.29102Z" fill="#0F508D"/>
</svg>
