<svg width="67" height="42" viewBox="0 0 67 42" fill="none" xmlns="http://www.w3.org/2000/svg">
<path d="M0 20.9861C11.2401 18.7839 16.1918 20.0424 20.4355 23.3441C20.4355 9.43191 25.6229 3.53737 58.1632 0C54.6258 6.6025 41.2359 15.7083 41.2359 15.7083C47.9636 15.5735 49.6741 16.4267 49.6741 16.4267C44.6434 18.7847 38.6802 20.8206 38.6802 20.8206C44.1824 21.1338 47.0805 22.6369 47.0805 22.6369C45.9011 24.2869 37.6477 29.0037 37.6477 29.0037C41.9084 29.7003 42.5816 31.8533 56.0353 31.8533C65.049 32.3909 66.7983 38.4453 66.7983 38.4453C58.9955 34.1402 46.8859 38.7149 41.6557 40.0856C33.6204 42.1909 20.2765 44.9574 12.2589 31.9889C8.25333 26.0944 0 20.9861 0 20.9861Z" fill="#009444"/>
</svg>
