<svg width="75" height="77" viewBox="0 0 75 77" fill="none" xmlns="http://www.w3.org/2000/svg">
<path d="M62.6385 43.7655C62.6385 43.7655 62.3656 40.355 60.8168 35.0933C58.9523 34.8073 55.9165 41.3995 45.5154 35.8531C44.2186 24.6013 27.2664 19.401 37.6018 5.47808C20.7028 13.2591 16.0305 20.0668 21.0295 27.8412C16.8689 28.6681 13.3106 30.7382 10.4734 33.4171C13.0592 33.055 17.8864 34.2037 23.3582 38.5101C24.4931 39.4036 25.7999 40.1625 27.2001 40.817C13.8813 42.8378 17.4649 57.6984 38.5523 71.6848C35.1382 58.215 50.2135 53.4903 47.7097 45.4517C50.8365 46.9603 52.889 50.0322 59.8593 52.878C59.8593 52.878 61.7958 50.7812 62.657 48.2257L57.4701 43.0682C57.4701 43.0682 58.7234 41.8782 62.6385 43.7655Z" fill="#0F508D"/>
</svg>
