<svg width="60" height="38" viewBox="0 0 60 38" fill="none" xmlns="http://www.w3.org/2000/svg">
<path d="M53.7888 13.4102C54.6765 12.8559 56.8951 10.7484 57.3382 9.41755C43.4745 17.7355 38.4837 9.63981 32.8274 6.31261C27.1712 2.98541 20.8495 3.53972 15.1933 1.21068C9.53706 -1.11835 5.32352 0.323654 0.998159 2.09772C0.998159 2.09772 5.57171 3.98157 9.06127 6.75313C8.45439 10.6819 0.542999 23.3751 0 28.3826C4.43582 26.719 6.54258 23.8356 6.54258 23.8356C6.20986 26.719 6.54258 27.7171 6.54258 27.7171C9.64885 26.2758 12.1988 21.5066 12.1988 21.5066L12.8203 22.9213C12.5189 26.9812 12.1303 31.9021 12.0884 37.8099C12.0884 37.8099 14.5279 36.0351 15.6378 31.4882C15.6378 31.4882 16.5242 32.8743 17.1896 36.0351C17.1896 36.0351 30.1657 28.4937 29.7225 17.9578C29.7225 17.9578 31.2756 18.7337 34.3806 19.7319C34.3806 19.7319 34.9356 16.6269 32.2738 11.8577C33.8256 11.1923 39.4818 13.7429 43.364 15.7392C47.2462 17.7355 53.4561 16.2942 60 14.4083C60 14.4083 58.4469 13.1886 53.7888 13.4102Z" fill="#FFCD03"/>
</svg>
