<svg width="61" height="37" viewBox="0 0 61 37" fill="none" xmlns="http://www.w3.org/2000/svg">
<path d="M54.5721 31.7594C54.5721 31.7594 52.3737 32.6739 48.4007 32.3428C45.1687 32.0739 40.4329 28.4254 34.6728 26.0509C37.0294 24.1022 40.0641 21.2582 41.3924 18.6016C41.3924 18.6016 36.7493 19.3763 33.8484 19.763C41.1984 13.3791 50.4826 12.6057 57.8326 1.38736C57.8326 1.38736 54.9303 -1.12687 35.2025 0.613955C17.7446 2.15414 18.3081 13.5387 16.7924 22.3031C14.1424 22.2163 11.5097 22.3355 8.78026 22.6315C5.68796 22.9652 1.93881 24.0658 0 25.3722C15.086 34.463 22.0493 35.6225 35.2019 34.6557C48.3531 33.6896 49.9283 38.9161 60.76 34.661L54.5721 31.7594Z" fill="#BE1E2D"/>
</svg>
