<svg width="46" height="38" viewBox="0 0 46 38" fill="none" xmlns="http://www.w3.org/2000/svg">
<path fill-rule="evenodd" clip-rule="evenodd" d="M0.701004 18.3583C5.85679 16.7227 11.7233 17.9489 15.8126 22.0381C19.5157 25.7412 20.8707 30.9033 19.8778 35.6742L7.95725 25.615L18.0162 37.5356C13.2455 38.5283 8.08328 37.1734 4.38016 33.4698C0.291602 29.381 -0.934419 23.514 0.701004 18.3583Z" fill="#0F508D"/>
<path fill-rule="evenodd" clip-rule="evenodd" d="M26.1346 13.0804C31.2904 11.4449 37.1569 12.671 41.246 16.7597C44.9491 20.4628 46.3042 25.6248 45.3113 30.3957L33.3908 20.3365L43.45 32.257C38.6791 33.2497 33.517 31.8948 29.814 28.1917C25.7252 24.1026 24.4991 18.2357 26.1346 13.0804Z" fill="#0F508D"/>
<path fill-rule="evenodd" clip-rule="evenodd" d="M5.17919 0.437144C8.39462 -0.582796 12.0532 0.182029 14.603 2.73182C16.9123 5.04112 17.7576 8.26017 17.1383 11.2355L9.70487 4.96271L15.9777 12.3961C13.0023 13.0155 9.78328 12.1701 7.47398 9.86084C4.9243 7.31094 4.15948 3.65235 5.17919 0.437144Z" fill="#0F508D"/>
</svg>
