<svg width="800" height="400" viewBox="0 0 800 400" fill="none" xmlns="http://www.w3.org/2000/svg">
<g clip-path="url(#clip0_92_2)">
<path d="M204.8 202.044C205.867 204.044 206.467 205.844 206.6 207.444C206.867 209.044 207 211.377 207 214.444V325.444C207 334.644 204.467 340.044 199.4 341.644C196.867 342.444 193.667 342.844 189.8 342.844C185.933 342.844 182.867 342.51 180.6 341.844C178.333 341.177 176.6 340.377 175.4 339.444C174.2 338.51 173.267 337.177 172.6 335.444C171.933 333.177 171.6 329.71 171.6 325.044V258.044C168.267 262.177 163.4 268.777 157 277.844C150.6 286.777 146.533 292.377 144.8 294.644C143.067 296.91 141.867 298.51 141.2 299.444C140.533 300.244 138.867 301.444 136.2 303.044C133.667 304.51 130.867 305.244 127.8 305.244C124.867 305.244 122.133 304.577 119.6 303.244C117.2 301.777 115.467 300.377 114.4 299.044L112.8 296.844C110.133 293.51 104.867 286.444 97 275.644C89.1333 264.71 84.8667 258.844 84.2 258.044V325.444C84.2 328.51 84.0667 330.844 83.8 332.444C83.6667 333.91 83.0667 335.577 82 337.444C80 341.044 74.8 342.844 66.4 342.844C58.2667 342.844 53.2 341.044 51.2 337.444C50.1333 335.577 49.4667 333.844 49.2 332.244C49.0667 330.644 49 328.244 49 325.044V214.044C49 210.977 49.0667 208.71 49.2 207.244C49.4667 205.644 50.1333 203.844 51.2 201.844C53.2 198.377 58.4 196.644 66.8 196.644C70.4 196.644 73.4667 197.11 76 198.044C78.6667 198.844 80.4 199.71 81.2 200.644L82.4 201.844L127.8 261.444C150.467 231.444 165.6 211.644 173.2 202.044C175.467 198.444 180.8 196.644 189.2 196.644C197.733 196.644 202.933 198.444 204.8 202.044ZM303.623 206.844L357.623 318.444C359.89 322.977 361.023 326.377 361.023 328.644C361.023 333.444 357.157 337.777 349.423 341.644C344.89 343.91 341.29 345.044 338.623 345.044C336.09 345.044 333.957 344.444 332.223 343.244C330.623 342.044 329.423 340.777 328.623 339.444C327.957 338.11 326.957 336.11 325.623 333.444L315.223 311.844H259.823L249.423 333.444C248.09 336.11 247.023 338.044 246.223 339.244C245.557 340.444 244.357 341.71 242.623 343.044C241.023 344.244 238.89 344.844 236.223 344.844C233.69 344.844 230.157 343.71 225.623 341.444C217.89 337.71 214.023 333.444 214.023 328.644C214.023 326.377 215.157 322.977 217.423 318.444L271.423 206.644C272.89 203.577 275.09 201.11 278.023 199.244C281.09 197.377 284.29 196.444 287.623 196.444C294.823 196.444 300.157 199.91 303.623 206.844ZM287.423 254.844L274.223 282.244H300.823L287.423 254.844ZM462.553 202.644C463.886 200.244 465.82 198.644 468.353 197.844C470.886 197.044 474.02 196.644 477.753 196.644C481.62 196.644 484.686 196.977 486.953 197.644C489.353 198.31 491.086 199.11 492.153 200.044C493.353 200.977 494.22 202.377 494.753 204.244C495.553 206.377 495.953 209.777 495.953 214.444V325.444C495.953 328.644 495.82 330.977 495.553 332.444C495.42 333.91 494.82 335.644 493.753 337.644C491.886 341.244 486.686 343.044 478.153 343.044C472.953 343.044 469.353 342.644 467.353 341.844C465.353 341.044 463.686 339.777 462.353 338.044C432.353 298.044 412.62 271.91 403.153 259.644V325.444C403.153 328.644 403.02 330.977 402.753 332.444C402.62 333.91 402.02 335.644 400.953 337.644C399.086 341.244 393.886 343.044 385.353 343.044C377.086 343.044 372.02 341.244 370.153 337.644C369.086 335.644 368.42 333.844 368.153 332.244C368.02 330.644 367.953 328.31 367.953 325.244V213.644C367.953 208.577 368.553 204.91 369.753 202.644C371.086 200.244 373.02 198.644 375.553 197.844C378.086 197.044 381.353 196.644 385.353 196.644C389.353 196.644 392.486 197.044 394.753 197.844C397.153 198.51 398.82 199.31 399.753 200.244C400.286 200.644 401.82 202.377 404.353 205.444C432.486 243.71 451.286 268.977 460.753 281.244V213.644C460.753 208.577 461.353 204.91 462.553 202.644ZM510.098 322.444C506.632 318.177 504.898 314.377 504.898 311.044C504.898 307.577 507.765 303.044 513.498 297.444C516.832 294.244 520.365 292.644 524.098 292.644C527.832 292.644 533.032 295.977 539.698 302.644C541.565 304.91 544.232 307.11 547.698 309.244C551.165 311.244 554.365 312.244 557.298 312.244C569.698 312.244 575.898 307.177 575.898 297.044C575.898 293.977 574.165 291.444 570.698 289.444C567.365 287.31 563.165 285.777 558.098 284.844C553.032 283.91 547.565 282.444 541.698 280.444C535.832 278.31 530.365 275.844 525.298 273.044C520.232 270.244 515.965 265.844 512.498 259.844C509.165 253.71 507.498 246.377 507.498 237.844C507.498 226.11 511.832 215.91 520.498 207.244C529.298 198.444 541.232 194.044 556.298 194.044C564.298 194.044 571.565 195.11 578.098 197.244C584.765 199.244 589.365 201.31 591.898 203.444L596.898 207.244C601.032 211.11 603.098 214.377 603.098 217.044C603.098 219.71 601.498 223.377 598.298 228.044C593.765 234.71 589.098 238.044 584.298 238.044C581.498 238.044 578.032 236.71 573.898 234.044C573.498 233.777 572.698 233.11 571.498 232.044C570.432 230.977 569.432 230.11 568.498 229.444C565.698 227.71 562.098 226.844 557.698 226.844C553.432 226.844 549.832 227.91 546.898 230.044C544.098 232.044 542.698 234.91 542.698 238.644C542.698 242.244 544.365 245.177 547.698 247.444C551.165 249.71 555.432 251.244 560.498 252.044C565.565 252.844 571.098 254.11 577.098 255.844C583.098 257.444 588.632 259.444 593.698 261.844C598.765 264.244 602.965 268.444 606.298 274.444C609.765 280.31 611.498 287.577 611.498 296.244C611.498 304.91 609.765 312.577 606.298 319.244C602.832 325.777 598.298 330.844 592.698 334.444C581.898 341.51 570.365 345.044 558.098 345.044C551.832 345.044 545.898 344.31 540.298 342.844C534.698 341.244 530.165 339.31 526.698 337.044C519.632 332.777 514.698 328.644 511.898 324.644L510.098 322.444ZM697.092 206.844L751.092 318.444C753.359 322.977 754.492 326.377 754.492 328.644C754.492 333.444 750.626 337.777 742.892 341.644C738.359 343.91 734.759 345.044 732.092 345.044C729.559 345.044 727.426 344.444 725.692 343.244C724.092 342.044 722.892 340.777 722.092 339.444C721.426 338.11 720.426 336.11 719.092 333.444L708.692 311.844H653.292L642.892 333.444C641.559 336.11 640.492 338.044 639.692 339.244C639.026 340.444 637.826 341.71 636.092 343.044C634.492 344.244 632.359 344.844 629.692 344.844C627.159 344.844 623.626 343.71 619.092 341.444C611.359 337.71 607.492 333.444 607.492 328.644C607.492 326.377 608.626 322.977 610.892 318.444L664.892 206.644C666.359 203.577 668.559 201.11 671.492 199.244C674.559 197.377 677.759 196.444 681.092 196.444C688.292 196.444 693.626 199.91 697.092 206.844ZM680.892 254.844L667.692 282.244H694.292L680.892 254.844Z" fill="#0F508D"/>
<path d="M166.5 390.336C165.1 390.336 163.83 390.065 162.692 389.524C161.572 388.964 160.676 388.115 160.004 386.976C159.35 385.837 159.024 384.391 159.024 382.636V370.4H161.992V382.664C161.992 384.381 162.402 385.641 163.224 386.444C164.045 387.247 165.156 387.648 166.556 387.648C167.937 387.648 169.038 387.247 169.86 386.444C170.681 385.641 171.092 384.381 171.092 382.664V370.4H174.06V382.636C174.06 384.391 173.714 385.837 173.024 386.976C172.352 388.115 171.437 388.964 170.28 389.524C169.141 390.065 167.881 390.336 166.5 390.336ZM186.267 390V370.4H189.235L199.063 385.156V370.4H202.031V390H199.063L189.235 375.244V390H186.267ZM214.409 390V370.4H217.377V390H214.409ZM234.346 390V372.808H228.55V370.4H243.082V372.808H237.314V390H234.346ZM254.26 390V370.4H266.72V372.808H257.228V378.912H265.88V381.264H257.228V387.592H266.72V390H254.26ZM278.656 390V370.4H285.012C287.308 370.4 289.193 370.801 290.668 371.604C292.161 372.407 293.263 373.545 293.972 375.02C294.7 376.476 295.064 378.212 295.064 380.228C295.064 382.225 294.7 383.961 293.972 385.436C293.263 386.892 292.161 388.021 290.668 388.824C289.193 389.608 287.308 390 285.012 390H278.656ZM281.624 387.48H284.9C286.673 387.48 288.073 387.191 289.1 386.612C290.145 386.033 290.892 385.203 291.34 384.12C291.807 383.037 292.04 381.74 292.04 380.228C292.04 378.716 291.807 377.409 291.34 376.308C290.892 375.207 290.145 374.367 289.1 373.788C288.073 373.191 286.673 372.892 284.9 372.892H281.624V387.48ZM322.198 390V370.4H334.49V372.808H325.166V378.996H332.894V381.376H325.166V390H322.198ZM354.845 390.336C352.904 390.336 351.205 389.907 349.749 389.048C348.293 388.189 347.155 387.004 346.333 385.492C345.512 383.961 345.101 382.197 345.101 380.2C345.101 378.203 345.512 376.448 346.333 374.936C347.155 373.405 348.293 372.211 349.749 371.352C351.205 370.493 352.904 370.064 354.845 370.064C356.787 370.064 358.485 370.493 359.941 371.352C361.397 372.211 362.527 373.405 363.329 374.936C364.151 376.448 364.561 378.203 364.561 380.2C364.561 382.197 364.151 383.961 363.329 385.492C362.527 387.004 361.397 388.189 359.941 389.048C358.485 389.907 356.787 390.336 354.845 390.336ZM354.845 387.676C356.189 387.676 357.356 387.377 358.345 386.78C359.353 386.183 360.137 385.324 360.697 384.204C361.257 383.084 361.537 381.749 361.537 380.2C361.537 378.651 361.257 377.316 360.697 376.196C360.137 375.076 359.353 374.217 358.345 373.62C357.356 373.023 356.189 372.724 354.845 372.724C353.501 372.724 352.325 373.023 351.317 373.62C350.309 374.217 349.525 375.076 348.965 376.196C348.424 377.316 348.153 378.651 348.153 380.2C348.153 381.749 348.424 383.084 348.965 384.204C349.525 385.324 350.309 386.183 351.317 386.78C352.325 387.377 353.501 387.676 354.845 387.676ZM376.268 390V370.4H383.016C384.565 370.4 385.834 370.661 386.824 371.184C387.832 371.707 388.578 372.416 389.064 373.312C389.549 374.189 389.792 375.169 389.792 376.252C389.792 377.465 389.465 378.567 388.812 379.556C388.177 380.545 387.178 381.255 385.816 381.684L389.988 390H386.544L382.736 382.104H379.236V390H376.268ZM379.236 379.864H382.848C384.192 379.864 385.172 379.537 385.788 378.884C386.422 378.231 386.74 377.381 386.74 376.336C386.74 375.291 386.432 374.46 385.816 373.844C385.2 373.209 384.201 372.892 382.82 372.892H379.236V379.864ZM417.158 390V370.4H420.126L429.954 385.156V370.4H432.922V390H429.954L420.126 375.244V390H417.158ZM444.04 390L451.264 370.4H454.512L461.68 390H458.544L456.864 385.212H448.856L447.176 390H444.04ZM449.696 382.86H456.024L452.86 373.928L449.696 382.86ZM476.011 390L468.759 370.4H471.923L477.803 386.92L483.711 370.4H486.847L479.595 390H476.011ZM506.089 390.336C504.148 390.336 502.449 389.907 500.993 389.048C499.537 388.189 498.398 387.004 497.577 385.492C496.756 383.961 496.345 382.197 496.345 380.2C496.345 378.203 496.756 376.448 497.577 374.936C498.398 373.405 499.537 372.211 500.993 371.352C502.449 370.493 504.148 370.064 506.089 370.064C508.03 370.064 509.729 370.493 511.185 371.352C512.641 372.211 513.77 373.405 514.573 374.936C515.394 376.448 515.805 378.203 515.805 380.2C515.805 382.197 515.394 383.961 514.573 385.492C513.77 387.004 512.641 388.189 511.185 389.048C509.729 389.907 508.03 390.336 506.089 390.336ZM506.089 387.676C507.433 387.676 508.6 387.377 509.589 386.78C510.597 386.183 511.381 385.324 511.941 384.204C512.501 383.084 512.781 381.749 512.781 380.2C512.781 378.651 512.501 377.316 511.941 376.196C511.381 375.076 510.597 374.217 509.589 373.62C508.6 373.023 507.433 372.724 506.089 372.724C504.745 372.724 503.569 373.023 502.561 373.62C501.553 374.217 500.769 375.076 500.209 376.196C499.668 377.316 499.397 378.651 499.397 380.2C499.397 381.749 499.668 383.084 500.209 384.204C500.769 385.324 501.553 386.183 502.561 386.78C503.569 387.377 504.745 387.676 506.089 387.676ZM527.511 390V370.4H533.867C536.163 370.4 538.049 370.801 539.523 371.604C541.017 372.407 542.118 373.545 542.827 375.02C543.555 376.476 543.919 378.212 543.919 380.228C543.919 382.225 543.555 383.961 542.827 385.436C542.118 386.892 541.017 388.021 539.523 388.824C538.049 389.608 536.163 390 533.867 390H527.511ZM530.479 387.48H533.755C535.529 387.48 536.929 387.191 537.955 386.612C539.001 386.033 539.747 385.203 540.195 384.12C540.662 383.037 540.895 381.74 540.895 380.228C540.895 378.716 540.662 377.409 540.195 376.308C539.747 375.207 539.001 374.367 537.955 373.788C536.929 373.191 535.529 372.892 533.755 372.892H530.479V387.48ZM552.999 390L560.223 370.4H563.471L570.639 390H567.503L565.823 385.212H557.815L556.135 390H552.999ZM558.655 382.86H564.983L561.819 373.928L558.655 382.86ZM584.596 390V382.776L578.1 370.4H581.46L586.08 379.864L590.672 370.4H594.004L587.564 382.776V390H584.596ZM601.436 390L608.66 370.4H611.908L619.076 390H615.94L614.26 385.212H606.252L604.572 390H601.436ZM607.092 382.86H613.42L610.256 373.928L607.092 382.86ZM630.209 390V370.4H633.177L643.005 385.156V370.4H645.973V390H643.005L633.177 375.244V390H630.209ZM664.819 390.336C663.382 390.336 662.122 390.084 661.039 389.58C659.957 389.076 659.107 388.357 658.491 387.424C657.894 386.491 657.586 385.38 657.567 384.092H660.703C660.722 385.137 661.086 386.024 661.795 386.752C662.505 387.48 663.503 387.844 664.791 387.844C665.93 387.844 666.817 387.573 667.451 387.032C668.105 386.472 668.431 385.763 668.431 384.904C668.431 384.213 668.273 383.653 667.955 383.224C667.657 382.795 667.237 382.44 666.695 382.16C666.173 381.88 665.566 381.628 664.875 381.404C664.185 381.18 663.457 380.937 662.691 380.676C661.179 380.172 660.041 379.519 659.275 378.716C658.529 377.913 658.155 376.859 658.155 375.552C658.137 374.451 658.389 373.489 658.911 372.668C659.453 371.847 660.199 371.212 661.151 370.764C662.122 370.297 663.251 370.064 664.539 370.064C665.809 370.064 666.919 370.297 667.871 370.764C668.842 371.231 669.598 371.884 670.139 372.724C670.681 373.545 670.961 374.507 670.979 375.608H667.843C667.843 375.104 667.713 374.628 667.451 374.18C667.19 373.713 666.807 373.331 666.303 373.032C665.799 372.733 665.183 372.584 664.455 372.584C663.522 372.565 662.747 372.799 662.131 373.284C661.534 373.769 661.235 374.441 661.235 375.3C661.235 376.065 661.459 376.653 661.907 377.064C662.355 377.475 662.971 377.82 663.755 378.1C664.539 378.361 665.435 378.669 666.443 379.024C667.414 379.341 668.282 379.724 669.047 380.172C669.813 380.62 670.419 381.208 670.867 381.936C671.334 382.664 671.567 383.588 671.567 384.708C671.567 385.697 671.315 386.621 670.811 387.48C670.307 388.32 669.551 389.011 668.543 389.552C667.535 390.075 666.294 390.336 664.819 390.336Z" fill="#061F37"/>
<path d="M315.572 99.7594C315.572 99.7594 313.374 100.674 309.401 100.343C306.169 100.074 301.433 96.4254 295.673 94.0509C298.029 92.1022 301.064 89.2582 302.392 86.6016C302.392 86.6016 297.749 87.3763 294.848 87.763C302.198 81.3791 311.483 80.6057 318.833 69.3874C318.833 69.3874 315.93 66.8731 296.203 68.614C278.745 70.1541 279.308 81.5387 277.792 90.3031C275.142 90.2163 272.51 90.3355 269.78 90.6315C266.688 90.9652 262.939 92.0657 261 93.3722C276.086 102.463 283.049 103.622 296.202 102.656C309.353 101.69 310.928 106.916 321.76 102.661L315.572 99.7594Z" fill="#BE1E2D"/>
<path d="M342.789 136.41C343.676 135.856 345.895 133.748 346.338 132.418C332.474 140.736 327.484 132.64 321.827 129.313C316.171 125.985 309.85 126.54 304.193 124.211C298.537 121.882 294.324 123.324 289.998 125.098C289.998 125.098 294.572 126.982 298.061 129.753C297.454 133.682 289.543 146.375 289 151.383C293.436 149.719 295.543 146.836 295.543 146.836C295.21 149.719 295.543 150.717 295.543 150.717C298.649 149.276 301.199 144.507 301.199 144.507L301.82 145.921C301.519 149.981 301.13 154.902 301.088 160.81C301.088 160.81 303.528 159.035 304.638 154.488C304.638 154.488 305.524 155.874 306.19 159.035C306.19 159.035 319.166 151.494 318.723 140.958C318.723 140.958 320.276 141.734 323.381 142.732C323.381 142.732 323.936 139.627 321.274 134.858C322.826 134.192 328.482 136.743 332.364 138.739C336.246 140.736 342.456 139.294 349 137.408C349 137.408 347.447 136.189 342.789 136.41Z" fill="#FFCD03"/>
<path d="M243.554 84.1633C243.554 84.1633 243.729 80.6209 242.936 75.3308C241.216 75.3193 237.524 82.7189 228.432 78.5023C228.634 66.8771 213.329 64.0401 224.822 47.8035C207.925 58.6025 202.665 66.4824 206.389 73.8786C202.367 75.3929 198.754 78.1205 195.744 81.3763C198.225 80.5946 202.625 81.0534 207.232 84.7311C208.188 85.4943 209.323 86.0892 210.558 86.56C197.762 90.7494 199.257 105.813 217.344 117.243C215.833 103.615 230.625 96.3115 229.284 88.2507C232.037 89.3515 233.582 92.262 239.785 94.1721C239.785 94.1721 241.874 91.6679 243.008 88.8483L238.776 84.2319C238.776 84.2319 240.106 82.7868 243.554 84.1633Z" fill="#0F508D"/>
<path d="M220 129.986C231.24 127.784 236.192 129.042 240.436 132.344C240.436 118.432 245.623 112.537 278.163 109C274.626 115.602 261.236 124.708 261.236 124.708C267.964 124.573 269.674 125.427 269.674 125.427C264.643 127.785 258.68 129.821 258.68 129.821C264.182 130.134 267.08 131.637 267.08 131.637C265.901 133.287 257.648 138.004 257.648 138.004C261.908 138.7 262.582 140.853 276.035 140.853C285.049 141.391 286.798 147.445 286.798 147.445C278.995 143.14 266.886 147.715 261.656 149.086C253.62 151.191 240.277 153.957 232.259 140.989C228.253 135.094 220 129.986 220 129.986Z" fill="#009444"/>
<path fill-rule="evenodd" clip-rule="evenodd" d="M469.983 338.339C466.838 336.607 464.827 333.426 464.535 329.848C462.735 307.786 456.374 228.259 457.5 219.5C460.379 197.107 455.34 176.899 442.703 170.181C430.067 163.463 404.316 168.741 399.197 174.34C394.079 179.938 388.481 164.263 412.793 162.024C412.793 162.024 406.715 158.025 397.278 158.665C387.841 159.304 375.205 160.105 380.083 154.027C384.961 147.948 406.955 150.746 414.792 152.746C414.792 152.746 403.357 149.468 394.24 140.191C385.122 130.913 390.561 127.714 400.158 134.112C409.755 140.51 419.672 149.148 429.268 150.747C429.268 150.747 418.392 144.509 413.114 135.072C407.835 125.635 409.594 119.557 422.231 131.073C434.867 142.59 436.786 148.028 449.582 147.868C462.378 147.708 444.145 135.391 438.066 127.874C431.989 120.357 434.228 113.958 436.947 109C436.947 109 445.106 120.675 451.983 124.834C458.861 128.993 476.457 145.467 477.097 188.332C477.356 205.697 488.013 295.77 490.835 326.697C491.315 331.95 487.901 336.439 483.607 339.501C479.738 342.261 479.363 343.504 469.983 338.339Z" fill="#0F508D"/>
<path fill-rule="evenodd" clip-rule="evenodd" d="M494 335C494.5 328 497.309 241.099 496 230.916C493.121 208.524 499.822 175.815 512.459 169.097C525.095 162.379 550.847 167.658 555.965 173.256C561.084 178.854 566.682 163.179 542.37 160.94C542.37 160.94 548.448 156.941 557.885 157.581C567.321 158.22 579.957 159.021 575.079 152.943C570.201 146.865 548.208 149.663 540.37 151.663C540.37 151.663 551.805 148.384 560.923 139.107C570.04 129.829 564.602 126.631 555.005 133.029C545.408 139.427 535.491 148.064 525.894 149.663C525.894 149.663 536.771 143.425 542.049 133.988C547.327 124.551 545.568 118.473 532.932 129.989C520.296 141.506 518.376 146.945 505.58 146.785C492.785 146.624 511.019 134.308 517.096 126.791C523.174 119.273 520.935 112.875 518.215 107.916C518.215 107.916 510.057 119.592 503.179 123.75C496.302 127.909 478.706 144.383 478.065 187.249C477.772 206.884 472.523 322.529 472 337.462L494 335Z" fill="#0F508D"/>
<path fill-rule="evenodd" clip-rule="evenodd" d="M367.498 126.182C372.654 124.547 378.521 125.773 382.609 129.862C386.313 133.565 387.667 138.727 386.675 143.498L374.755 133.439L384.814 145.36C380.042 146.352 374.88 144.998 371.177 141.294C367.088 137.205 365.862 131.338 367.498 126.182Z" fill="#0F508D"/>
<path fill-rule="evenodd" clip-rule="evenodd" d="M384.775 106.692C389.931 105.056 395.797 106.283 399.887 110.372C403.59 114.075 404.945 119.237 403.952 124.008L392.031 113.949L402.09 125.869C397.32 126.862 392.158 125.507 388.454 121.804C384.366 117.715 383.14 111.848 384.775 106.692Z" fill="#0F508D"/>
<path fill-rule="evenodd" clip-rule="evenodd" d="M410.209 101.414C415.365 99.7787 421.231 101.005 425.32 105.093C429.023 108.797 430.378 113.959 429.385 118.729L417.465 108.67L427.524 120.591C422.753 121.583 417.591 120.229 413.888 116.525C409.799 112.436 408.573 106.569 410.209 101.414Z" fill="#0F508D"/>
<path fill-rule="evenodd" clip-rule="evenodd" d="M371.26 183.285C376.415 184.92 382.282 183.695 386.371 179.606C390.074 175.903 391.429 170.74 390.437 165.97L378.516 176.029L388.575 164.108C383.804 163.115 378.642 164.47 374.939 168.174C370.85 172.263 369.624 178.13 371.26 183.285Z" fill="#0F508D"/>
<path fill-rule="evenodd" clip-rule="evenodd" d="M350.711 156.882C353.2 161.685 358.216 164.966 363.998 164.966C369.235 164.966 373.843 162.274 376.515 158.199L360.973 156.882L376.515 155.566C373.843 151.491 369.235 148.799 363.998 148.799C358.216 148.799 353.2 152.081 350.711 156.882Z" fill="#0F508D"/>
<path fill-rule="evenodd" clip-rule="evenodd" d="M459.75 88.1385C454.594 86.503 448.727 87.7291 444.638 91.8178C440.935 95.5209 439.58 100.683 440.573 105.454L452.493 95.3947L442.434 107.315C447.205 108.308 452.367 106.953 456.07 103.25C460.159 99.1608 461.385 93.2938 459.75 88.1385Z" fill="#0F508D"/>
<path fill-rule="evenodd" clip-rule="evenodd" d="M351.004 183.007C354.218 184.026 357.877 183.262 360.427 180.712C362.737 178.403 363.581 175.183 362.963 172.209L355.529 178.481L361.801 171.048C358.826 170.429 355.607 171.274 353.298 173.583C350.748 176.133 349.984 179.792 351.004 183.007Z" fill="#0F508D"/>
<path fill-rule="evenodd" clip-rule="evenodd" d="M348.437 130.502C351.652 129.482 355.311 130.246 357.861 132.796C360.17 135.106 361.015 138.325 360.396 141.3L352.962 135.027L359.235 142.461C356.26 143.08 353.041 142.235 350.732 139.925C348.182 137.375 347.417 133.717 348.437 130.502Z" fill="#0F508D"/>
<path fill-rule="evenodd" clip-rule="evenodd" d="M363.316 106.349C366.531 105.329 370.19 106.093 372.74 108.643C375.049 110.953 375.894 114.171 375.275 117.147L367.841 110.874L374.114 118.307C371.139 118.927 367.92 118.082 365.61 115.772C363.06 113.222 362.296 109.564 363.316 106.349Z" fill="#0F508D"/>
<path fill-rule="evenodd" clip-rule="evenodd" d="M389.253 88.7709C392.469 87.7509 396.127 88.5158 398.677 91.0656C400.987 93.3749 401.832 96.5939 401.213 99.5693L393.779 93.2965L400.052 100.73C397.077 101.349 393.857 100.504 391.548 98.1946C388.999 95.6447 388.234 91.9861 389.253 88.7709Z" fill="#0F508D"/>
<path fill-rule="evenodd" clip-rule="evenodd" d="M425.131 77.0295C429.876 78.0728 433.889 81.6611 435.234 86.6777C436.451 91.2215 435.187 95.8453 432.273 99.1105L427.517 85.9327L429.988 99.7225C425.831 98.352 422.425 94.9802 421.207 90.4366C419.863 85.4193 421.544 80.3051 425.131 77.0295Z" fill="#0F508D"/>
<path fill-rule="evenodd" clip-rule="evenodd" d="M452.112 74.2161C448.897 73.1964 445.239 73.961 442.689 76.5109C440.379 78.8202 439.534 82.0391 440.153 85.0144L447.587 78.7411L441.314 86.1751C444.29 86.7944 447.509 85.9491 449.818 83.6398C452.368 81.0899 453.132 77.4315 452.112 74.2161Z" fill="#0F508D"/>
<path fill-rule="evenodd" clip-rule="evenodd" d="M408.06 81.6727C411.429 81.5195 414.765 83.2047 416.568 86.3276C418.201 89.1565 418.184 92.484 416.816 95.198L411.26 87.215L415.395 96.0189C412.361 95.8465 409.47 94.1975 407.837 91.3692C406.034 88.2463 406.243 84.514 408.06 81.6727Z" fill="#0F508D"/>
<path fill-rule="evenodd" clip-rule="evenodd" d="M368.031 88.43C371.246 87.4102 374.905 88.1748 377.455 90.7248C379.764 93.0341 380.609 96.253 379.99 99.2282L372.556 92.955L378.829 100.389C375.853 101.008 372.634 100.163 370.325 97.8537C367.775 95.3038 367.011 91.6454 368.031 88.43Z" fill="#0F508D"/>
<path fill-rule="evenodd" clip-rule="evenodd" d="M465.749 109.438C462.534 108.418 458.875 109.183 456.325 111.733C454.016 114.042 453.171 117.261 453.79 120.237L461.224 113.963L454.951 121.397C457.926 122.016 461.145 121.171 463.454 118.862C466.005 116.312 466.769 112.653 465.749 109.438Z" fill="#0F508D"/>
<path fill-rule="evenodd" clip-rule="evenodd" d="M592.507 126.182C587.352 124.547 581.485 125.773 577.396 129.862C573.693 133.565 572.338 138.727 573.33 143.498L585.251 133.439L575.192 145.36C579.963 146.352 585.125 144.998 588.828 141.294C592.917 137.205 594.143 131.338 592.507 126.182Z" fill="#0F508D"/>
<path fill-rule="evenodd" clip-rule="evenodd" d="M575.226 106.692C570.07 105.056 564.204 106.283 560.115 110.372C556.411 114.075 555.056 119.237 556.049 124.008L567.97 113.949L557.911 125.869C562.682 126.862 567.844 125.507 571.547 121.804C575.636 117.715 576.861 111.848 575.226 106.692Z" fill="#0F508D"/>
<path fill-rule="evenodd" clip-rule="evenodd" d="M549.792 101.414C544.637 99.7787 538.77 101.005 534.681 105.093C530.978 108.797 529.623 113.959 530.616 118.729L542.536 108.67L532.477 120.591C537.248 121.583 542.41 120.229 546.113 116.525C550.202 112.436 551.428 106.569 549.792 101.414Z" fill="#0F508D"/>
<path fill-rule="evenodd" clip-rule="evenodd" d="M588.742 183.285C583.586 184.92 577.719 183.695 573.63 179.606C569.927 175.903 568.572 170.74 569.565 165.97L581.485 176.029L571.426 164.108C576.197 163.115 581.36 164.47 585.063 168.174C589.151 172.263 590.377 178.13 588.742 183.285Z" fill="#0F508D"/>
<path fill-rule="evenodd" clip-rule="evenodd" d="M609.289 156.882C606.8 161.685 601.784 164.966 596.002 164.966C590.765 164.966 586.156 162.274 583.484 158.199L599.026 156.882L583.484 155.566C586.156 151.491 590.764 148.799 596.002 148.799C601.784 148.799 606.8 152.081 609.289 156.882Z" fill="#0F508D"/>
<path fill-rule="evenodd" clip-rule="evenodd" d="M500.252 88.1385C505.408 86.503 511.274 87.7291 515.363 91.8178C519.066 95.5209 520.421 100.683 519.429 105.454L507.508 95.3947L517.567 107.315C512.796 108.308 507.634 106.953 503.931 103.25C499.842 99.1608 498.616 93.2938 500.252 88.1385Z" fill="#0F508D"/>
<path fill-rule="evenodd" clip-rule="evenodd" d="M608.999 183.007C605.784 184.026 602.125 183.262 599.575 180.712C597.266 178.403 596.421 175.183 597.04 172.209L604.474 178.481L598.201 171.048C601.176 170.429 604.396 171.274 606.705 173.583C609.255 176.133 610.019 179.792 608.999 183.007Z" fill="#0F508D"/>
<path fill-rule="evenodd" clip-rule="evenodd" d="M611.561 130.502C608.346 129.482 604.688 130.246 602.138 132.796C599.829 135.106 598.983 138.325 599.603 141.3L607.036 135.027L600.763 142.461C603.739 143.08 606.958 142.235 609.267 139.925C611.817 137.375 612.581 133.717 611.561 130.502Z" fill="#0F508D"/>
<path fill-rule="evenodd" clip-rule="evenodd" d="M596.69 106.349C593.475 105.329 589.817 106.093 587.267 108.643C584.957 110.953 584.113 114.171 584.731 117.147L592.165 110.874L585.893 118.307C588.867 118.927 592.086 118.082 594.396 115.772C596.946 113.222 597.71 109.564 596.69 106.349Z" fill="#0F508D"/>
<path fill-rule="evenodd" clip-rule="evenodd" d="M570.749 88.7709C567.534 87.7509 563.875 88.5158 561.325 91.0656C559.016 93.3749 558.171 96.5939 558.79 99.5693L566.223 93.2965L559.951 100.73C562.926 101.349 566.145 100.504 568.454 98.1946C571.004 95.6447 571.769 91.9861 570.749 88.7709Z" fill="#0F508D"/>
<path fill-rule="evenodd" clip-rule="evenodd" d="M534.868 77.0295C530.123 78.0728 526.11 81.6611 524.766 86.6777C523.548 91.2215 524.812 95.8453 527.727 99.1105L532.482 85.9327L530.011 99.7225C534.168 98.352 537.575 94.9802 538.792 90.4366C540.136 85.4193 538.455 80.3051 534.868 77.0295Z" fill="#0F508D"/>
<path fill-rule="evenodd" clip-rule="evenodd" d="M507.89 74.2161C511.105 73.1964 514.764 73.961 517.314 76.5109C519.623 78.8202 520.468 82.0391 519.849 85.0144L512.415 78.7411L518.688 86.1751C515.713 86.7944 512.494 85.9491 510.185 83.6398C507.635 81.0899 506.871 77.4315 507.89 74.2161Z" fill="#0F508D"/>
<path fill-rule="evenodd" clip-rule="evenodd" d="M551.939 81.6727C548.57 81.5195 545.234 83.2047 543.431 86.3276C541.798 89.1565 541.815 92.484 543.183 95.198L548.739 87.215L544.604 96.0189C547.638 95.8465 550.529 94.1975 552.162 91.3692C553.965 88.2463 553.756 84.514 551.939 81.6727Z" fill="#0F508D"/>
<path fill-rule="evenodd" clip-rule="evenodd" d="M591.968 88.43C588.753 87.4102 585.094 88.1748 582.544 90.7248C580.235 93.0341 579.39 96.253 580.009 99.2282L587.443 92.955L581.17 100.389C584.145 101.008 587.364 100.163 589.674 97.8537C592.223 95.3038 592.988 91.6454 591.968 88.43Z" fill="#0F508D"/>
<path fill-rule="evenodd" clip-rule="evenodd" d="M494.254 109.438C497.469 108.418 501.127 109.183 503.677 111.733C505.987 114.042 506.832 117.261 506.212 120.237L498.779 113.963L505.052 121.397C502.076 122.016 498.857 121.171 496.548 118.862C493.998 116.312 493.234 112.653 494.254 109.438Z" fill="#0F508D"/>
<path fill-rule="evenodd" clip-rule="evenodd" d="M490.558 121.261C485.403 119.626 479.536 120.852 475.447 124.94C471.743 128.643 470.389 133.806 471.381 138.576L483.302 128.517L473.243 140.438C478.014 141.431 483.176 140.076 486.879 136.373C490.968 132.283 492.194 126.416 490.558 121.261Z" fill="#0F508D"/>
<path fill-rule="evenodd" clip-rule="evenodd" d="M467.935 94.0606C473.091 92.4252 478.958 93.6512 483.047 97.7404C486.75 101.444 488.105 106.605 487.113 111.376L475.192 101.317L485.251 113.238C480.48 114.23 475.318 112.876 471.614 109.172C467.526 105.083 466.3 99.2164 467.935 94.0606Z" fill="#0F508D"/>
<path fill-rule="evenodd" clip-rule="evenodd" d="M501.015 70.5446C495.859 68.909 489.993 70.1352 485.904 74.2238C482.201 77.9269 480.846 83.0889 481.838 87.8598L493.759 77.8006L483.7 89.7211C488.471 90.7139 493.633 89.3591 497.336 85.6558C501.425 81.5669 502.651 75.7003 501.015 70.5446Z" fill="#0F508D"/>
<path fill-rule="evenodd" clip-rule="evenodd" d="M456.709 62.2237C461.865 60.5883 467.731 61.8143 471.82 65.903C475.524 69.6061 476.878 74.7681 475.885 79.539L463.965 69.4801L474.025 81.4007C469.253 82.3934 464.091 81.0386 460.388 77.3352C456.299 73.246 455.073 67.3795 456.709 62.2237Z" fill="#0F508D"/>
<path fill-rule="evenodd" clip-rule="evenodd" d="M488.931 51.565C485.562 51.4116 482.226 53.0977 480.423 56.2205C478.79 59.0488 478.807 62.3767 480.175 65.0904L485.732 57.1074L481.596 65.9111C484.63 65.7392 487.521 64.0897 489.154 61.2613C490.957 58.1384 490.749 54.4067 488.931 51.565Z" fill="#0F508D"/>
<path fill-rule="evenodd" clip-rule="evenodd" d="M427.135 48.5795C432.29 46.9439 438.157 48.17 442.246 52.2594C445.949 55.9625 447.304 61.1245 446.312 65.8954L434.391 55.8363L444.45 67.7567C439.679 68.7495 434.517 67.3946 430.814 63.6909C426.725 59.6023 425.499 53.7352 427.135 48.5795Z" fill="#0F508D"/>
<path fill-rule="evenodd" clip-rule="evenodd" d="M448.243 40.3675C451.613 40.2143 454.949 41.9002 456.752 45.0232C458.385 47.8513 458.368 51.1794 457 53.8931L451.443 45.9098L455.578 54.7137C452.544 54.5419 449.653 52.8924 448.02 50.064C446.218 46.9411 446.426 43.2094 448.243 40.3675Z" fill="#0F508D"/>
<path fill-rule="evenodd" clip-rule="evenodd" d="M408.449 60.0574C411.664 59.0376 415.323 59.8025 417.872 62.3522C420.182 64.6615 421.027 67.8805 420.408 70.8559L412.974 64.5825L419.247 72.0165C416.272 72.6358 413.053 71.7905 410.744 69.4812C408.194 66.9314 407.429 63.2728 408.449 60.0574Z" fill="#0F508D"/>
<path fill-rule="evenodd" clip-rule="evenodd" d="M498.541 50.3424C503.696 48.7068 509.563 49.933 513.652 54.022C517.356 57.7254 518.711 62.8873 517.718 67.6581L505.797 57.5991L515.856 69.5196C511.085 70.5124 505.923 69.1575 502.22 65.4538C498.131 61.3652 496.906 55.4982 498.541 50.3424Z" fill="#0F508D"/>
<path fill-rule="evenodd" clip-rule="evenodd" d="M542.285 54.2294C537.129 52.5938 531.262 53.82 527.174 57.9086C523.47 61.6123 522.115 66.7737 523.108 71.545L535.028 61.4855L524.969 73.4065C529.74 74.3988 534.902 73.0439 538.605 69.3408C542.694 65.2521 543.92 59.3852 542.285 54.2294Z" fill="#0F508D"/>
<path fill-rule="evenodd" clip-rule="evenodd" d="M529.049 36.066C525.679 35.9126 522.343 37.5981 520.54 40.7209C518.907 43.5498 518.924 46.8774 520.292 49.5914L525.849 41.6078L521.714 50.412C524.748 50.2396 527.639 48.5907 529.272 45.7619C531.074 42.6389 530.866 38.9072 529.049 36.066Z" fill="#0F508D"/>
<path fill-rule="evenodd" clip-rule="evenodd" d="M475.631 38.8408C472.261 38.6882 468.925 40.3735 467.122 43.4965C465.489 46.3246 465.506 49.6527 466.874 52.3664L472.431 44.3831L468.296 53.1871C471.33 53.0152 474.22 51.3657 475.854 48.5374C477.656 45.4144 477.448 41.6827 475.631 38.8408Z" fill="#0F508D"/>
<path fill-rule="evenodd" clip-rule="evenodd" d="M484.071 33.0095C487.441 32.8569 490.777 34.5422 492.58 37.6651C494.213 40.4933 494.196 43.8214 492.828 46.5349L487.271 38.5519L491.407 47.3558C488.373 47.1839 485.482 45.5344 483.849 42.7061C482.046 39.5832 482.254 35.8515 484.071 33.0095Z" fill="#0F508D"/>
<path fill-rule="evenodd" clip-rule="evenodd" d="M560.866 64.3014C557.651 63.2815 553.992 64.0463 551.442 66.5956C549.133 68.9055 548.288 72.1244 548.907 75.0991L556.341 68.8264L550.068 76.2604C553.043 76.8792 556.262 76.0344 558.571 73.7251C561.121 71.1752 561.886 67.5166 560.866 64.3014Z" fill="#0F508D"/>
<path fill-rule="evenodd" clip-rule="evenodd" d="M548.367 35.291C553.65 36.4528 558.117 40.4479 559.614 46.0332C560.97 51.0919 559.562 56.24 556.317 59.875L551.023 45.2035L553.774 60.5567C549.146 59.0307 545.353 55.2761 543.998 50.2174C542.501 44.632 544.373 38.9381 548.367 35.291Z" fill="#0F508D"/>
</g>
<defs>
<clipPath id="clip0_92_2">
<rect width="800" height="400" fill="white"/>
</clipPath>
</defs>
</svg>
