<?xml version="1.0" standalone="no"?>
<!DOCTYPE svg PUBLIC "-//W3C//DTD SVG 20010904//EN"
 "http://www.w3.org/TR/2001/REC-SVG-20010904/DTD/svg10.dtd">
<svg version="1.0" xmlns="http://www.w3.org/2000/svg"
 width="1500.000000pt" height="1500.000000pt" viewBox="0 0 1500.000000 1500.000000"
 preserveAspectRatio="xMidYMid meet">
<metadata>
Created by potrace 1.14, written by Peter Selinger 2001-2017
</metadata>
<g transform="translate(0.000000,1500.000000) scale(0.100000,-0.100000)"
fill="#000000" stroke="none">
<path d="M8760 10510 c-22 -14 -25 -103 -4 -136 27 -43 40 -54 74 -66 38 -13
43 -9 27 22 -22 44 -37 80 -33 80 2 0 17 -20 33 -45 15 -25 31 -45 34 -45 12
0 20 51 13 85 -5 27 -53 95 -67 95 -1 0 -16 4 -33 9 -17 5 -37 5 -44 1z"/>
<path d="M9708 10463 c-47 -54 -68 -151 -46 -217 16 -46 54 -93 99 -121 21
-14 40 -25 43 -25 2 0 0 19 -4 43 -5 23 -11 59 -14 81 -4 21 -9 42 -12 47 -3
5 -1 9 4 9 5 0 19 -31 32 -69 30 -92 37 -101 53 -76 80 131 23 295 -119 339
-13 4 -26 0 -36 -11z"/>
<path d="M9370 10452 c-45 -22 -80 -75 -80 -121 0 -65 14 -68 50 -12 19 28 35
51 36 51 2 0 -9 -25 -23 -56 -14 -30 -23 -58 -20 -61 10 -9 86 40 103 66 32
48 22 151 -15 151 -9 0 -32 -8 -51 -18z"/>
<path d="M8585 10419 c-17 -4 -44 -22 -60 -39 -24 -25 -29 -41 -33 -90 -2 -33
0 -60 4 -60 5 0 23 20 39 44 36 54 44 52 16 -3 -27 -51 -26 -60 2 -53 75 19
118 97 96 177 -10 37 -15 39 -64 24z"/>
<path d="M8218 10393 c-20 -25 -15 -108 8 -140 22 -30 89 -71 99 -61 4 3 -3
25 -15 48 -28 55 -19 63 11 11 12 -23 26 -41 31 -41 13 0 21 48 14 85 -13 69
-116 137 -148 98z"/>
<path d="M7910 10274 c-20 -23 -14 -110 10 -157 31 -60 48 -77 105 -103 46
-22 135 -33 135 -18 0 4 -24 34 -53 68 -79 91 -79 97 3 28 41 -34 78 -62 83
-62 14 0 2 102 -17 138 -23 44 -63 81 -110 103 -51 23 -138 25 -156 3z"/>
<path d="M8993 10259 c-20 -7 -23 -15 -23 -64 0 -31 7 -72 16 -93 18 -43 67
-97 108 -119 32 -17 136 -27 136 -13 0 5 -27 39 -59 77 -33 37 -58 70 -55 73
3 2 8 0 12 -6 4 -5 36 -34 72 -64 l65 -53 3 33 c8 83 -44 172 -122 210 -49 23
-119 32 -153 19z"/>
<path d="M4707 10214 c-146 -85 -197 -163 -163 -246 l15 -34 -37 -13 c-43 -15
-116 -60 -109 -67 3 -3 19 -7 37 -9 29 -4 53 -15 147 -71 39 -23 50 -44 24
-44 -11 0 -33 -13 -50 -29 -30 -28 -37 -52 -31 -106 6 -64 129 -213 232 -283
l47 -32 0 47 c-1 60 21 111 76 183 51 66 73 109 70 133 -2 9 -1 17 2 17 3 0
39 -22 80 -50 41 -27 81 -50 88 -50 17 0 45 38 45 62 0 9 -6 21 -12 25 -7 4
-24 21 -38 37 l-25 29 42 -7 41 -6 -13 55 c-17 76 -14 75 -75 40 -31 -18 -70
-19 -122 -3 -35 10 -43 19 -64 66 -13 31 -48 87 -78 126 -79 105 -92 167 -50
248 8 15 11 28 7 28 -5 0 -43 -21 -86 -46z"/>
<path d="M8785 10229 c-53 -15 -88 -61 -93 -122 -6 -73 10 -80 48 -20 35 57
38 53 9 -12 -11 -25 -18 -49 -15 -52 3 -3 22 3 43 14 67 34 101 141 61 191
-12 14 -12 14 -53 1z"/>
<path d="M9496 10195 c-52 -18 -103 -61 -126 -105 -21 -41 -35 -123 -25 -141
6 -8 117 78 137 106 4 5 9 7 12 5 3 -3 -7 -19 -22 -36 -68 -78 -92 -108 -92
-114 0 -10 69 -5 115 8 81 23 148 117 148 210 1 29 -4 57 -11 64 -16 16 -93
17 -136 3z"/>
<path d="M7638 10109 c-31 -17 -21 -91 18 -135 27 -30 58 -44 99 -44 31 0 34
2 23 14 -34 35 -68 76 -62 76 3 0 24 -16 47 -35 45 -38 53 -34 42 21 -13 72
-114 134 -167 103z"/>
<path d="M8370 10082 c-25 -9 -29 -24 -26 -88 5 -84 46 -148 118 -185 36 -18
111 -30 135 -22 11 4 -82 126 -111 145 -7 5 -7 8 -1 8 6 0 35 -23 65 -50 86
-79 90 -80 90 -23 -1 85 -55 169 -130 201 -37 15 -115 24 -140 14z"/>
<path d="M9804 10034 c-36 -17 -74 -79 -74 -119 0 -25 2 -26 19 -14 10 8 34
25 52 38 l34 24 -31 -34 c-58 -65 -59 -67 -22 -65 86 6 153 86 134 161 -5 21
-12 25 -44 25 -20 0 -51 -7 -68 -16z"/>
<path d="M5930 9979 c-79 -13 -84 -15 -122 -33 -75 -36 -116 -108 -133 -236
-4 -25 -9 -47 -11 -49 -2 -2 -29 -5 -59 -7 -76 -4 -115 -11 -154 -27 l-33 -14
30 -22 c47 -33 170 -89 237 -106 43 -12 102 -16 210 -16 86 0 185 -5 230 -13
44 -8 87 -13 95 -11 8 1 34 6 58 10 23 4 40 11 36 16 -12 20 -76 37 -136 37
-56 -1 -72 4 -142 41 -44 23 -83 44 -88 47 -4 3 12 26 37 52 25 25 45 50 45
54 0 9 -77 1 -95 -10 -5 -3 -4 2 4 11 12 15 67 49 174 107 79 43 176 145 156
165 -12 12 -273 15 -339 4z"/>
<path d="M8913 9959 c-84 -15 -160 -77 -178 -145 -11 -43 -15 -114 -6 -114 4
0 42 29 84 65 69 59 99 79 64 43 -7 -7 -37 -42 -67 -78 -50 -61 -52 -65 -30
-68 81 -12 181 43 222 121 20 39 31 147 16 162 -13 14 -67 21 -105 14z"/>
<path d="M8204 9898 c-58 -15 -104 -74 -104 -134 0 -22 14 -33 22 -16 6 14 58
55 58 46 0 -5 -13 -23 -30 -40 -16 -18 -27 -34 -24 -37 10 -10 80 6 103 25 39
30 53 56 56 108 4 46 2 48 -24 52 -15 2 -40 0 -57 -4z"/>
<path d="M9140 9902 c-36 -12 -39 -55 -10 -112 22 -43 62 -69 116 -74 37 -4
40 -1 22 18 -32 33 -59 68 -56 72 3 2 20 -12 38 -31 40 -41 50 -43 50 -11 0
57 -48 121 -98 132 -15 3 -31 7 -37 8 -5 2 -17 1 -25 -2z"/>
<path d="M7842 9811 c-49 -87 -37 -179 33 -248 50 -51 81 -58 70 -15 -4 15 -8
36 -10 47 -1 11 -5 38 -9 60 -5 29 2 19 24 -40 17 -44 33 -81 35 -83 8 -8 38
51 45 89 15 80 -24 167 -94 210 -48 29 -69 25 -94 -20z"/>
<path d="M9464 9831 c-63 -38 -102 -115 -99 -189 2 -34 33 -112 45 -112 7 0
20 32 51 122 17 51 21 42 9 -23 -5 -30 -11 -69 -14 -87 l-4 -33 26 17 c107 68
142 192 79 286 -27 40 -52 45 -93 19z"/>
<path d="M7617 9772 c-23 -25 -22 -89 1 -132 18 -33 81 -75 102 -68 6 2 2 19
-10 42 -25 51 -18 58 12 12 22 -34 37 -45 39 -28 0 4 3 20 5 35 3 18 -4 47
-17 74 -17 35 -31 49 -66 64 -54 23 -46 23 -66 1z"/>
<path d="M9725 9775 c-80 -38 -96 -71 -86 -185 0 -8 17 7 36 34 48 68 49 68
20 3 -13 -31 -20 -57 -14 -57 30 0 88 42 104 76 26 56 11 145 -25 143 -3 0
-18 -6 -35 -14z"/>
<path d="M8233 9675 c-92 -42 -137 -129 -124 -238 1 -5 24 11 52 35 27 23 65
54 82 68 l32 24 -21 -24 c-12 -14 -30 -36 -40 -49 -11 -13 -31 -37 -46 -54
-16 -18 -28 -34 -28 -38 0 -12 102 1 136 17 50 24 100 78 116 127 15 42 17
131 4 144 -18 18 -114 11 -163 -12z"/>
<path d="M9018 9694 c-10 -3 -18 -11 -19 -17 -1 -7 -2 -25 -4 -42 -11 -97 68
-208 165 -230 105 -25 110 -13 32 80 -71 86 -62 82 57 -22 42 -37 52 -29 44
36 -13 111 -95 188 -207 196 -28 2 -59 2 -68 -1z"/>
<path d="M7020 9670 c-30 -56 34 -152 110 -165 23 -4 43 -5 46 -3 2 3 -12 23
-31 45 -36 43 -49 71 -16 37 10 -10 30 -29 44 -41 23 -19 26 -20 29 -5 5 20
-10 68 -29 99 -32 49 -133 71 -153 33z"/>
<path d="M7347 9678 c-23 -12 -21 -53 3 -102 26 -55 90 -92 132 -77 15 5 12
11 -18 44 -43 45 -36 48 17 6 l39 -31 0 35 c0 40 -35 97 -70 114 -36 17 -84
22 -103 11z"/>
<path d="M9980 9678 c-62 -17 -105 -76 -98 -133 l3 -26 43 36 c51 44 55 37 7
-13 -29 -32 -32 -38 -17 -43 44 -15 114 27 136 82 34 85 9 119 -74 97z"/>
<path d="M10289 9682 c-53 -23 -106 -103 -92 -139 8 -20 16 -16 58 25 41 40
33 15 -9 -30 -14 -15 -26 -30 -26 -34 0 -13 83 7 110 26 30 22 61 86 55 116
-2 10 -4 25 -4 32 -1 13 -64 16 -92 4z"/>
<path d="M8519 9588 c-19 -35 -5 -133 25 -179 45 -68 140 -113 208 -99 l27 5
-37 41 c-86 96 -113 134 -66 94 16 -14 31 -27 34 -30 3 -3 26 -23 53 -44 l47
-38 0 51 c0 58 -23 111 -66 155 -44 43 -83 59 -151 62 -55 3 -64 1 -74 -18z"/>
<path d="M7673 9493 c-25 -5 -34 -32 -28 -88 8 -86 55 -152 130 -186 43 -19
123 -31 130 -19 3 6 -47 73 -75 100 -3 3 -16 18 -30 34 -40 47 -3 21 94 -66
46 -41 56 -36 49 24 -9 83 -50 146 -116 179 -40 21 -110 31 -154 22z"/>
<path d="M9584 9476 c-73 -34 -123 -107 -129 -187 -5 -71 -1 -69 123 42 50 45
38 21 -28 -55 -33 -38 -58 -71 -56 -74 10 -10 95 -2 129 13 84 35 145 143 131
231 -3 21 -8 41 -11 44 -2 2 -28 5 -57 7 -38 1 -68 -5 -102 -21z"/>
<path d="M6948 9403 c-1 -20 -1 -49 1 -74 3 -42 100 -107 147 -97 12 2 7 13
-22 47 -37 43 -19 45 20 2 27 -29 36 -26 36 12 0 66 -60 122 -135 126 -37 2
-45 -1 -47 -16z"/>
<path d="M7290 9413 c-24 -10 -29 -24 -26 -83 4 -75 35 -130 101 -176 35 -25
110 -43 143 -35 21 6 17 12 -50 91 -75 88 -61 83 52 -19 37 -33 46 -37 51 -24
6 19 5 35 -5 83 -21 91 -101 160 -194 166 -31 2 -64 1 -72 -3z"/>
<path d="M9970 9399 c-77 -35 -127 -105 -131 -184 -4 -68 -2 -70 39 -34 42 37
76 65 107 89 20 14 19 14 0 -10 -11 -13 -28 -33 -38 -45 -10 -11 -32 -37 -48
-57 l-30 -37 23 -3 c83 -13 181 43 226 127 21 40 23 152 2 165 -25 16 -103 11
-150 -11z"/>
<path d="M10346 9405 c-40 -21 -64 -52 -72 -91 -10 -54 -1 -57 51 -18 l50 37
-30 -34 c-16 -18 -36 -37 -42 -42 -7 -4 -13 -12 -13 -18 0 -16 81 0 111 22 34
24 62 92 54 130 -6 26 -11 29 -43 29 -20 0 -50 -7 -66 -15z"/>
<path d="M9228 9334 c-71 -91 -107 -126 -189 -186 -238 -175 -363 -507 -368
-977 -1 -57 -3 -102 -5 -100 -3 3 -7 70 -11 150 -3 79 -7 153 -9 164 -3 18 -7
40 -22 140 -14 88 -57 220 -105 320 -53 110 -131 209 -214 273 -91 70 -147
124 -202 195 -42 54 -46 57 -58 40 -22 -31 -37 -104 -30 -142 12 -64 43 -107
163 -227 158 -157 166 -187 55 -191 -67 -2 -132 17 -181 51 -21 14 -84 71
-142 127 -107 103 -194 169 -223 169 -16 0 -34 -26 -32 -45 10 -88 105 -218
219 -301 33 -24 58 -44 55 -44 -2 0 -28 9 -57 19 -70 26 -123 57 -272 162
-163 114 -222 138 -250 105 -36 -44 100 -187 255 -266 42 -22 72 -40 67 -40
-4 0 -33 4 -63 10 -131 24 -306 17 -371 -14 -46 -22 -66 -63 -41 -82 21 -16
22 -16 233 -18 137 -1 172 -5 208 -20 46 -20 42 -36 -8 -36 -47 0 -125 -35
-167 -76 -41 -39 -50 -63 -37 -98 8 -21 48 -21 65 0 60 73 360 130 524 100
173 -32 284 -149 329 -346 26 -114 28 -133 25 -270 -7 -315 0 -526 25 -860 18
-227 18 -226 1 -205 -8 11 -21 27 -28 35 -6 8 -46 60 -87 115 -41 55 -77 102
-80 105 -3 3 -17 21 -30 40 -13 19 -29 40 -35 46 -5 6 -62 82 -125 169 -198
271 -418 568 -462 623 -71 90 -135 114 -295 109 -149 -5 -200 -38 -223 -143
-8 -34 -11 -335 -11 -974 l1 -925 25 -51 c19 -39 34 -55 62 -67 57 -25 110
-33 195 -31 126 3 184 29 220 97 l23 42 0 552 c0 421 3 549 12 542 6 -6 100
-128 209 -272 176 -233 223 -296 253 -332 4 -6 101 -136 216 -288 114 -153
223 -290 241 -303 38 -30 108 -42 217 -38 92 3 148 18 186 50 57 48 59 68 61
619 3 713 3 943 1 1170 -2 269 27 430 110 601 81 168 174 217 399 210 171 -5
284 -33 372 -92 46 -31 77 -35 79 -10 0 6 2 18 4 28 10 51 -86 120 -196 141
-32 6 -59 15 -59 19 0 4 28 16 62 26 52 16 84 19 210 15 166 -5 218 5 218 39
0 33 -44 65 -107 78 -55 12 -251 8 -343 -6 -32 -5 -31 -3 20 23 138 71 254
178 273 251 4 18 0 25 -16 31 -43 16 -107 -16 -285 -143 -108 -76 -206 -130
-257 -141 l-30 -7 35 22 c55 36 173 160 204 215 15 28 30 71 33 98 6 46 5 47
-22 47 -47 0 -100 -39 -248 -183 -129 -126 -188 -157 -292 -157 -69 0 -85 7
-85 37 0 18 32 56 124 148 69 68 134 142 146 165 27 53 28 133 3 190 l-18 42
-47 -58z"/>
<path d="M8405 9369 c-36 -10 -95 -64 -96 -88 -1 -9 -2 -28 -3 -43 -3 -27 7
-37 19 -19 3 5 24 24 48 42 l42 33 -30 -34 c-16 -19 -36 -40 -42 -48 -23 -24
-14 -30 34 -21 70 14 105 52 111 123 4 46 2 56 -11 56 -8 0 -21 2 -29 4 -7 2
-27 0 -43 -5z"/>
<path d="M8933 9373 c-48 -9 -19 -133 39 -164 31 -17 87 -29 93 -20 2 4 -10
25 -27 46 -25 30 -27 35 -10 26 11 -6 24 -16 27 -21 3 -5 15 -15 27 -21 20
-11 20 -9 13 27 -16 88 -84 141 -162 127z"/>
<path d="M5505 9354 c-297 -54 -385 -119 -397 -292 -1 -18 -5 -31 -8 -29 -53
31 -92 40 -165 39 -44 0 -89 -3 -100 -6 -11 -2 -24 -5 -30 -5 -5 -1 5 -10 24
-22 19 -11 40 -27 48 -35 8 -7 22 -19 32 -26 9 -7 45 -47 79 -89 119 -148 216
-171 457 -108 179 46 237 53 308 34 26 -7 47 -9 47 -5 0 10 -52 56 -78 69 -13
7 -58 14 -100 17 -109 6 -150 12 -205 30 l-48 16 58 36 c89 55 90 65 9 79
l-50 8 77 30 c42 16 75 31 72 33 -2 2 -27 7 -57 11 l-52 6 50 36 c62 45 150
125 176 162 l19 27 -43 -1 c-24 0 -79 -7 -123 -15z"/>
<path d="M8696 9180 c-91 -45 -132 -120 -127 -228 1 -22 7 -19 69 34 96 83
112 94 71 49 -20 -22 -53 -61 -74 -87 l-37 -48 46 0 c60 0 112 22 159 68 54
53 84 162 57 213 -15 27 -110 26 -164 -1z"/>
<path d="M5903 9153 c-41 -14 -58 -33 -30 -33 18 0 97 -52 97 -64 0 -5 -27
-64 -59 -131 -32 -68 -62 -137 -66 -155 -7 -31 -6 -31 17 -20 12 7 33 22 46
33 l22 20 0 -26 c0 -38 14 -34 53 18 36 46 44 44 41 -10 -4 -74 -6 -142 -4
-165 1 -22 3 -21 27 19 26 43 27 44 37 20 5 -13 11 -26 13 -28 4 -6 73 49 105
83 38 41 78 119 78 152 0 27 6 28 53 9 22 -9 23 28 1 80 l-15 37 28 -6 c15 -4
58 -21 94 -37 79 -37 131 -41 222 -20 67 16 80 31 26 31 -36 0 -43 13 -18 30
36 26 19 28 -38 4 -97 -40 -156 -30 -256 42 -63 46 -99 60 -190 79 -39 9 -92
22 -117 30 -65 22 -119 24 -167 8z"/>
<path d="M7029 9123 c-33 -9 -35 -112 -3 -175 17 -33 51 -69 85 -91 30 -20
112 -37 140 -30 16 5 13 12 -29 62 -26 31 -49 58 -52 61 -3 3 -12 14 -20 25
-14 19 -14 19 5 4 31 -25 74 -61 109 -91 27 -24 32 -25 37 -10 16 44 -14 135
-61 184 -46 48 -150 78 -211 61z"/>
<path d="M10247 9115 c-34 -12 -52 -24 -92 -60 -37 -34 -69 -131 -58 -176 6
-21 1 -24 114 71 42 35 54 35 19 0 -3 -3 -27 -31 -53 -62 -45 -54 -47 -58 -25
-60 99 -6 179 38 224 123 18 35 26 150 11 165 -13 14 -100 13 -140 -1z"/>
<path d="M6731 9052 c-15 -11 -11 -72 9 -113 14 -31 77 -69 114 -69 30 0 33 9
9 36 -52 58 -53 64 -4 24 l54 -45 -5 43 c-7 49 -28 85 -63 108 -29 19 -95 28
-114 16z"/>
<path d="M10571 9042 c-46 -23 -71 -59 -78 -113 l-6 -44 54 45 54 45 -38 -46
c-20 -25 -37 -49 -37 -53 0 -12 50 -6 85 11 52 25 88 107 69 157 -8 21 -60 21
-103 -2z"/>
<path d="M6903 8771 c-54 -14 -108 -54 -132 -99 -10 -18 -7 -26 20 -57 64 -73
156 -97 245 -64 45 17 114 72 103 83 -6 5 -106 15 -158 16 -68 0 -43 10 41 16
94 7 106 8 114 16 8 8 -42 55 -78 74 -34 17 -113 25 -155 15z"/>
<path d="M10379 8770 c-52 -15 -119 -65 -119 -89 0 -4 26 -9 58 -10 31 -2 77
-6 102 -11 l45 -7 -50 -3 c-80 -3 -149 -11 -155 -17 -3 -3 14 -22 38 -43 87
-78 226 -68 307 21 27 30 33 44 26 57 -16 30 -57 70 -91 87 -36 19 -121 27
-161 15z"/>
<path d="M7245 8550 c-114 -24 -185 -111 -185 -226 0 -42 4 -55 19 -64 30 -16
95 -12 143 9 88 38 138 114 138 210 l0 43 -52 -43 c-29 -24 -55 -46 -58 -49
-3 -3 -18 -16 -35 -30 -34 -29 -21 -8 32 50 90 100 90 119 -2 100z"/>
<path d="M10102 8552 l-33 -3 53 -62 c29 -34 59 -68 66 -75 6 -7 12 -16 12
-19 0 -6 -17 8 -65 50 -11 10 -37 33 -58 49 l-39 31 3 -54 c5 -126 91 -210
217 -215 54 -2 64 0 73 18 17 31 5 127 -20 170 -42 70 -133 118 -209 110z"/>
<path d="M6840 8432 c-50 -25 -82 -77 -78 -127 3 -37 5 -40 37 -43 44 -4 85
14 116 50 23 28 43 93 32 105 -3 3 -27 -12 -54 -33 l-48 -39 38 46 c20 25 37
49 37 53 0 12 -45 6 -80 -12z"/>
<path d="M10513 8396 c40 -49 32 -48 -23 2 -31 27 -40 28 -40 2 0 -32 25 -83
54 -110 21 -19 38 -24 79 -25 l52 0 3 40 c5 72 -66 144 -140 143 l-27 -1 42
-51z"/>
<path d="M9695 8090 c-16 -4 -55 -13 -85 -20 -159 -38 -304 -142 -394 -283
-34 -54 -89 -167 -81 -167 3 0 0 -12 -6 -27 -16 -42 -19 -226 -4 -288 7 -30
11 -55 9 -55 -4 0 30 -90 48 -130 16 -32 74 -108 107 -139 98 -91 334 -191
566 -240 240 -52 322 -135 268 -273 -30 -78 -85 -119 -178 -134 -132 -20 -222
14 -345 130 -137 130 -190 161 -257 154 -62 -8 -109 -36 -172 -104 -124 -135
-125 -211 -5 -359 65 -81 95 -107 193 -173 285 -188 668 -197 975 -22 181 104
286 252 326 460 12 58 15 218 5 260 -2 14 -8 41 -11 60 -17 88 -80 204 -149
273 -83 82 -286 155 -597 218 -195 39 -280 112 -264 224 15 94 94 148 221 149
95 1 130 -12 204 -72 84 -67 127 -86 197 -87 52 0 66 4 100 29 97 74 186 218
178 291 -6 59 -117 174 -217 226 -67 35 -195 77 -287 94 -51 10 -310 13 -345
5z"/>
<path d="M5773 8058 c-113 -19 -162 -67 -249 -247 -78 -158 -210 -431 -296
-611 -33 -69 -91 -188 -128 -265 -37 -77 -99 -205 -138 -285 -38 -80 -106
-221 -151 -314 -85 -176 -108 -245 -97 -290 12 -49 84 -114 175 -159 76 -37
94 -42 156 -42 112 0 119 7 260 296 46 92 85 173 87 179 2 8 119 11 393 11
215 0 402 0 417 0 25 -1 32 -10 67 -83 73 -154 150 -309 171 -343 39 -63 126
-86 213 -56 134 46 236 124 255 193 18 66 18 66 -234 585 -46 95 -84 177 -84
183 0 5 -4 10 -10 10 -5 0 -10 5 -10 12 0 7 -28 68 -61 137 -34 70 -92 189
-129 266 -37 77 -105 217 -150 310 -45 94 -106 220 -136 282 -57 119 -94 169
-149 203 -42 26 -116 38 -172 28z m231 -1277 c-7 -7 -376 -6 -380 1 -3 4 39
96 92 205 l96 198 98 -200 c54 -110 96 -202 94 -204z"/>
<path d="M11650 8053 c-48 -12 -107 -48 -138 -83 -12 -14 -149 -287 -309 -620
-34 -69 -100 -206 -148 -305 -48 -99 -111 -229 -140 -290 -114 -239 -237 -492
-254 -525 -31 -57 -53 -147 -46 -182 22 -98 258 -229 372 -206 71 15 102 56
212 282 l101 206 62 0 c35 0 221 1 413 2 l350 1 105 -211 c58 -116 118 -224
133 -240 31 -33 84 -52 125 -46 15 2 36 5 47 7 30 4 155 65 192 93 49 37 85
89 88 129 5 55 -3 76 -175 430 -56 116 -128 264 -160 330 -32 66 -95 197 -140
290 -45 94 -111 229 -145 300 -268 556 -282 582 -359 622 -46 24 -127 31 -186
16z m80 -893 c0 -5 41 -91 90 -191 50 -101 86 -185 81 -188 -11 -7 -369 -6
-376 1 -3 2 11 38 31 79 20 41 63 129 95 197 34 71 63 121 69 117 5 -3 10 -10
10 -15z"/>
<path d="M2395 8053 c-87 -16 -136 -60 -152 -138 -5 -22 -9 -458 -8 -970 l0
-930 24 -48 c36 -74 94 -97 239 -98 148 0 211 30 248 116 15 36 17 98 17 593
0 303 3 552 6 552 3 -1 44 -55 91 -122 192 -273 369 -501 411 -530 54 -36 109
-51 168 -45 44 5 119 34 151 60 21 16 110 127 110 136 0 4 8 16 18 27 10 10
33 41 52 69 19 27 39 54 43 60 4 5 31 42 60 82 29 39 83 115 122 167 38 53 71
96 75 96 3 0 5 -242 4 -537 0 -302 4 -559 9 -586 19 -96 98 -137 261 -137 155
0 210 28 243 124 16 47 17 125 17 986 l1 935 -25 44 c-14 24 -36 52 -50 63
-36 26 -132 41 -230 35 -124 -7 -160 -25 -231 -116 -33 -42 -65 -83 -72 -91
-7 -8 -57 -73 -111 -145 -55 -71 -109 -142 -120 -156 -12 -15 -30 -39 -41 -54
-11 -16 -24 -33 -30 -39 -5 -6 -70 -91 -144 -189 -73 -98 -134 -177 -136 -175
-4 4 -297 389 -364 478 -31 41 -58 77 -61 80 -7 7 -45 57 -160 210 -52 69
-104 133 -115 142 -37 32 -143 59 -225 57 -41 -2 -84 -4 -95 -6z"/>
<path d="M3893 5452 c-14 -11 -9 -216 6 -246 20 -37 83 -59 130 -46 67 18 76
36 79 174 3 118 3 122 -17 122 -12 0 -21 -6 -22 -13 -1 -7 -2 -53 -4 -103 -1
-49 -3 -97 -4 -105 -2 -20 -55 -46 -78 -38 -48 17 -53 31 -53 143 0 81 -3 109
-13 113 -8 3 -18 2 -24 -1z"/>
<path d="M4304 5452 c-7 -4 -11 -58 -11 -149 l0 -143 24 0 c24 0 24 1 22 100
-1 56 1 103 4 106 2 3 15 -12 28 -33 13 -21 26 -40 29 -43 4 -3 24 -33 45 -67
29 -49 43 -63 61 -63 l24 0 0 148 c0 141 -1 148 -20 148 -11 0 -20 -7 -21 -16
0 -8 -1 -57 -1 -107 -1 -51 -2 -93 -4 -93 -1 0 -28 39 -60 88 -57 87 -92 132
-103 132 -3 0 -11 -4 -17 -8z"/>
<path d="M4730 5450 c-12 -7 -15 -33 -15 -147 1 -135 1 -138 23 -141 25 -4 23
-16 23 167 0 116 -5 136 -31 121z"/>
<path d="M4938 5449 c-22 -14 -1 -32 38 -33 l39 -1 0 -127 c0 -126 0 -128 22
-128 23 0 23 2 23 130 0 72 3 129 8 129 4 -1 24 -1 45 0 26 1 37 6 37 16 0 8
-3 16 -7 16 -30 5 -197 3 -205 -2z"/>
<path d="M5320 5450 c-4 -3 -7 -69 -6 -147 l0 -143 93 0 c84 0 93 2 93 18 0
17 -8 19 -67 18 l-68 -1 -3 48 -3 47 65 0 c59 0 66 2 66 19 0 17 -7 19 -55 18
-64 -3 -72 0 -75 28 -7 60 -5 62 67 62 62 0 81 8 71 30 -3 8 -166 11 -178 3z"/>
<path d="M5698 5452 c-16 -3 -18 -18 -18 -148 l0 -144 71 0 c120 0 173 44 173
145 -1 66 -26 113 -72 132 -35 15 -116 23 -154 15z m131 -47 c47 -15 67 -110
34 -166 -21 -35 -86 -55 -124 -37 -13 6 -15 24 -14 110 1 57 3 104 4 104 4 4
81 -5 100 -11z"/>
<path d="M6347 5452 c-15 -3 -17 -21 -16 -148 l0 -144 24 0 c21 0 24 4 23 38
-2 96 -4 92 56 92 38 0 56 4 59 15 8 20 0 23 -60 20 -55 -2 -55 -2 -55 50 0
14 0 30 1 35 1 6 20 10 44 9 78 -3 97 0 97 16 0 8 -6 16 -12 16 -33 3 -146 4
-161 1z"/>
<path d="M6772 5452 c-88 -27 -124 -161 -64 -241 50 -69 168 -74 223 -9 56 63
44 182 -22 231 -28 21 -99 31 -137 19z m120 -60 c29 -29 36 -106 13 -149 -17
-31 -31 -39 -81 -47 -26 -4 -71 19 -84 44 -32 61 -12 150 38 169 38 14 91 6
114 -17z"/>
<path d="M7149 5456 c-1 -1 -2 -67 -3 -148 -2 -148 -2 -148 21 -148 21 0 23 4
23 60 0 58 1 60 26 60 21 0 29 -9 52 -60 23 -51 31 -59 55 -60 l27 0 -30 60
-31 60 26 23 c15 12 27 35 29 52 4 36 -21 83 -48 91 -15 5 -139 13 -147 10z
m143 -58 c10 -17 10 -50 -1 -67 -5 -7 -30 -15 -55 -17 l-46 -3 0 54 0 55 47
-5 c26 -3 50 -10 55 -17z"/>
<path d="M7770 5450 c-10 -6 -13 -44 -13 -147 -1 -134 0 -138 21 -141 24 -4
24 -2 23 158 0 36 3 58 6 50 3 -8 10 -19 15 -25 6 -5 36 -48 67 -95 42 -63 63
-86 82 -88 l24 -3 -2 138 c-1 173 0 162 -20 159 -16 -2 -19 -18 -23 -110 l-5
-108 -70 106 c-72 109 -83 120 -105 106z"/>
<path d="M8285 5453 c-16 -3 -27 -23 -50 -91 -15 -48 -32 -91 -35 -97 -4 -5
-14 -31 -23 -57 l-16 -48 24 0 c18 0 26 8 35 35 l12 35 63 0 64 0 7 -35 c5
-28 11 -35 30 -35 30 0 28 12 -27 155 -22 55 -39 105 -39 111 0 17 -23 30 -45
27z m33 -123 l21 -60 -45 0 c-24 0 -44 2 -44 4 0 3 20 62 35 104 8 21 13 14
33 -48z"/>
<path d="M8544 5452 c-7 -4 9 -60 42 -147 49 -132 54 -140 81 -143 28 -3 29 0
80 140 29 78 51 143 50 144 -1 1 -10 4 -21 6 -16 2 -25 -13 -53 -92 -61 -171
-53 -168 -98 -35 -38 111 -58 142 -81 127z"/>
<path d="M9030 5447 c-103 -47 -113 -199 -18 -270 35 -26 114 -26 157 -1 65
38 86 144 45 215 -35 59 -121 85 -184 56z m113 -42 c44 -19 61 -113 30 -166
-34 -57 -122 -57 -160 0 -54 80 -5 186 82 177 17 -1 38 -6 48 -11z"/>
<path d="M9428 5452 c-16 -3 -17 -19 -16 -149 l1 -145 81 4 c92 5 126 21 150
73 32 67 13 154 -43 194 -22 16 -47 23 -93 24 -35 2 -71 1 -80 -1z m155 -60
c10 -11 22 -34 25 -53 17 -81 -11 -128 -82 -139 -65 -10 -71 -1 -69 96 1 43 2
89 2 102 1 21 4 22 53 17 32 -3 59 -12 71 -23z"/>
<path d="M9904 5449 c-8 -14 -104 -273 -104 -282 0 -5 10 -7 22 -5 15 2 25 13
32 36 9 32 9 32 72 32 l62 0 12 -35 c9 -27 17 -35 35 -35 l24 0 -41 113 c-22
61 -43 121 -46 132 -11 42 -52 69 -68 44z m62 -155 c6 -23 4 -24 -39 -24 l-45
0 21 65 22 64 18 -41 c9 -22 20 -51 23 -64z"/>
<path d="M10180 5449 c0 -6 20 -50 45 -98 36 -71 45 -98 45 -139 0 -45 3 -52
20 -52 11 0 20 3 21 8 0 4 1 30 3 57 1 38 13 71 48 137 42 79 44 87 27 91 -21
6 -52 -34 -78 -100 -7 -18 -17 -30 -22 -27 -5 3 -21 32 -36 65 -14 32 -29 59
-32 60 -3 0 -14 2 -23 4 -10 2 -18 -1 -18 -6z"/>
<path d="M10606 5391 c-14 -36 -38 -103 -55 -148 l-30 -83 24 0 c18 0 26 8 35
35 l12 35 62 0 c63 0 63 0 72 -32 7 -23 17 -34 32 -36 12 -2 22 1 22 6 0 16
-92 266 -101 276 -5 5 -17 10 -28 11 -15 1 -25 -13 -45 -64z m94 -118 c0 -2
-21 -3 -46 -3 -33 0 -45 4 -42 13 3 6 13 36 23 66 l18 54 23 -64 c13 -35 24
-65 24 -66z"/>
<path d="M10974 5453 c-20 -4 -21 -10 -20 -148 0 -142 1 -145 22 -145 21 0 22
4 21 100 0 55 2 102 4 104 2 3 36 -42 74 -100 54 -81 75 -104 92 -104 23 0 23
1 23 143 0 79 -3 146 -6 149 -3 3 -13 4 -23 1 -15 -4 -17 -17 -16 -109 0 -57
0 -104 -2 -104 -2 0 -24 33 -50 73 -27 39 -51 74 -54 77 -3 3 -14 20 -23 38
-9 17 -18 31 -19 31 -1 -1 -11 -4 -23 -6z"/>
<path d="M11419 5449 c-26 -10 -49 -45 -49 -78 0 -27 33 -56 93 -80 61 -25 74
-43 53 -75 -24 -37 -88 -28 -101 14 -4 13 -15 20 -31 20 -22 0 -24 -3 -19 -22
22 -73 127 -96 187 -41 24 22 24 85 -1 107 -10 9 -41 25 -67 35 -56 22 -74 43
-58 69 18 27 60 27 84 -1 13 -15 29 -23 40 -20 26 7 13 41 -24 64 -34 20 -66
23 -107 8z"/>
</g>
</svg>
