<svg width="264" height="293" viewBox="0 0 264 293" fill="none" xmlns="http://www.w3.org/2000/svg">
<path fill-rule="evenodd" clip-rule="evenodd" d="M104 292.5C104 292.5 107.848 196.949 109.151 186.744C112.017 164.302 107.001 144.049 94.4203 137.316C81.8404 130.583 56.203 135.873 51.1075 141.484C46.0124 147.095 40.4389 131.385 64.6426 129.141C64.6426 129.141 58.5915 125.133 49.1969 125.774C39.8015 126.415 27.2223 127.217 32.0784 121.126C36.9346 115.034 58.8306 117.839 66.6332 119.843C66.6332 119.843 55.2488 116.557 46.1722 107.26C37.0951 97.9615 42.5093 94.7556 52.0638 101.168C61.6182 107.58 71.4909 116.237 81.0451 117.839C81.0451 117.839 70.2166 111.587 64.962 102.129C59.7071 92.6718 61.4585 86.58 74.0388 98.1219C86.6186 109.664 88.5296 115.114 101.269 114.954C114.007 114.793 95.855 102.45 89.8039 94.9161C83.7537 87.3819 85.9823 80.9693 88.6895 76C88.6895 76 96.8119 87.7011 103.659 91.869C110.506 96.0372 128.024 112.547 128.661 155.507C128.953 175.186 152.48 276.534 153 291.5L104 292.5Z" fill="#0F508D"/>
<path fill-rule="evenodd" clip-rule="evenodd" d="M156.5 292C156.999 285.047 149.272 207.286 147.964 197.172C145.09 174.93 151.781 142.442 164.398 135.769C177.014 129.096 202.726 134.339 207.836 139.9C212.947 145.46 218.536 129.891 194.262 127.667C194.262 127.667 200.33 123.694 209.753 124.33C219.175 124.965 231.791 125.76 226.92 119.724C222.05 113.686 200.091 116.465 192.265 118.452C192.265 118.452 203.683 115.195 212.786 105.981C221.889 96.7656 216.459 93.5883 206.877 99.9431C197.295 106.298 187.394 114.878 177.812 116.466C177.812 116.466 188.672 110.27 193.942 100.896C199.212 91.5231 197.455 85.4856 184.838 96.9245C172.222 108.364 170.306 113.765 157.53 113.607C144.754 113.447 162.96 101.214 169.027 93.7473C175.096 86.2803 172.861 79.925 170.145 75C170.145 75 161.999 86.5967 155.133 90.7275C148.266 94.8584 130.697 111.221 130.058 153.798C129.765 173.301 126.022 277.167 125.5 292H156.5Z" fill="#0F508D"/>
<path fill-rule="evenodd" clip-rule="evenodd" d="M19.4979 93.1822C24.6537 91.5467 30.5207 92.7728 34.6093 96.8619C38.3126 100.565 39.6674 105.727 38.675 110.498L26.7546 100.439L36.8138 112.36C32.0423 113.352 26.8803 111.998 23.1771 108.294C19.0885 104.205 17.8625 98.338 19.4979 93.1822Z" fill="#0F508D"/>
<path fill-rule="evenodd" clip-rule="evenodd" d="M36.7752 73.692C41.931 72.0565 47.7975 73.2826 51.8868 77.3718C55.5899 81.0749 56.945 86.237 55.9521 91.0079L44.0315 80.9487L54.0904 92.8693C49.3198 93.8621 44.1575 92.5072 40.4544 88.8035C36.3658 84.7147 35.1398 78.8478 36.7752 73.692Z" fill="#0F508D"/>
<path fill-rule="evenodd" clip-rule="evenodd" d="M62.2089 68.4142C67.3646 66.7787 73.2311 68.0048 77.3202 72.0934C81.0234 75.7966 82.3784 80.9585 81.3855 85.7294L69.465 75.6702L79.5242 87.5907C74.7533 88.5835 69.5912 87.2286 65.8882 83.5255C61.7995 79.4364 60.5733 73.5694 62.2089 68.4142Z" fill="#0F508D"/>
<path fill-rule="evenodd" clip-rule="evenodd" d="M23.2596 150.285C28.4154 151.92 34.2825 150.695 38.371 146.606C42.0744 142.903 43.4292 137.74 42.4368 132.97L30.5162 143.029L40.5754 131.108C35.804 130.115 30.6419 131.47 26.9388 135.174C22.8502 139.263 21.6241 145.13 23.2596 150.285Z" fill="#0F508D"/>
<path fill-rule="evenodd" clip-rule="evenodd" d="M2.71094 123.882C5.20003 128.685 10.2156 131.966 15.9979 131.966C21.2352 131.966 25.8435 129.274 28.5154 125.199L12.9732 123.882L28.5154 122.566C25.8435 118.491 21.2352 115.799 15.9979 115.799C10.2156 115.799 5.20003 119.081 2.71094 123.882Z" fill="#0F508D"/>
<path fill-rule="evenodd" clip-rule="evenodd" d="M111.75 55.1385C106.594 53.503 100.727 54.7291 96.6381 58.8178C92.9348 62.5209 91.5799 67.683 92.5727 72.4539L104.493 62.3947L94.4343 74.3153C99.2052 75.3081 104.367 73.9533 108.07 70.2499C112.159 66.1608 113.385 60.2938 111.75 55.1385Z" fill="#0F508D"/>
<path fill-rule="evenodd" clip-rule="evenodd" d="M3.00366 150.007C6.21831 151.026 9.87745 150.262 12.4272 147.712C14.7365 145.402 15.5813 142.183 14.9625 139.209L7.52856 145.481L13.8014 138.047C10.826 137.429 7.60719 138.273 5.29789 140.583C2.74799 143.132 1.98372 146.792 3.00366 150.007Z" fill="#0F508D"/>
<path fill-rule="evenodd" clip-rule="evenodd" d="M0.437497 97.5015C3.65215 96.4815 7.31074 97.2464 9.86053 99.7962C12.1698 102.105 13.0151 105.324 12.3958 108.3L4.9624 102.027L11.2352 109.46C8.25986 110.08 5.04081 109.234 2.73151 106.925C0.181827 104.375 -0.582992 100.717 0.437497 97.5015Z" fill="#0F508D"/>
<path fill-rule="evenodd" clip-rule="evenodd" d="M15.3161 73.349C18.5315 72.3293 22.1899 73.0933 24.7399 75.6432C27.0492 77.9525 27.8939 81.1715 27.2752 84.1467L19.8412 77.874L26.1139 85.3074C23.1391 85.9267 19.9203 85.082 17.6104 82.7722C15.0604 80.2223 14.2963 76.5639 15.3161 73.349Z" fill="#0F508D"/>
<path fill-rule="evenodd" clip-rule="evenodd" d="M41.2534 55.7709C44.4688 54.7509 48.1274 55.5158 50.6772 58.0656C52.9865 60.3749 53.8318 63.5939 53.2125 66.5693L45.7791 60.2965L52.0519 67.7299C49.0765 68.3492 45.8575 67.5039 43.5482 65.1946C40.9985 62.6447 40.2337 58.9861 41.2534 55.7709Z" fill="#0F508D"/>
<path fill-rule="evenodd" clip-rule="evenodd" d="M77.1314 44.0295C81.8762 45.0728 85.8891 48.6611 87.2337 53.6777C88.451 58.2215 87.187 62.8453 84.2725 66.1105L79.5172 52.9327L81.9882 66.7225C77.8314 65.352 74.4249 61.9802 73.2071 57.4366C71.8629 52.4193 73.5441 47.3051 77.1314 44.0295Z" fill="#0F508D"/>
<path fill-rule="evenodd" clip-rule="evenodd" d="M104.112 41.216C100.897 40.1963 97.2385 40.9609 94.6885 43.5108C92.3792 45.8201 91.5345 49.039 92.1532 52.0143L99.5872 45.741L93.3144 53.175C96.2898 53.7943 99.5088 52.949 101.818 50.6397C104.368 48.0898 105.132 44.4314 104.112 41.216Z" fill="#0F508D"/>
<path fill-rule="evenodd" clip-rule="evenodd" d="M60.06 48.6727C63.429 48.5195 66.7654 50.2047 68.5681 53.3276C70.2011 56.1565 70.1844 59.484 68.8164 62.198L63.2596 54.215L67.3945 63.0189C64.3606 62.8465 61.4699 61.1975 59.8369 58.3692C58.0337 55.2463 58.2427 51.514 60.06 48.6727Z" fill="#0F508D"/>
<path fill-rule="evenodd" clip-rule="evenodd" d="M20.031 55.43C23.2457 54.4102 26.9048 55.1748 29.4546 57.7248C31.7639 60.0341 32.6087 63.253 31.9899 66.2282L24.5559 59.955L30.8287 67.3889C27.8534 68.0077 24.6343 67.163 22.325 64.8537C19.7753 62.3038 19.0111 58.6454 20.031 55.43Z" fill="#0F508D"/>
<path fill-rule="evenodd" clip-rule="evenodd" d="M117.749 76.4381C114.534 75.4182 110.875 76.183 108.325 78.7328C106.016 81.0421 105.171 84.2611 105.79 87.2365L113.224 80.9631L106.951 88.3971C109.926 89.0163 113.145 88.1711 115.454 85.8618C118.005 83.312 118.769 79.6534 117.749 76.4381Z" fill="#0F508D"/>
<path fill-rule="evenodd" clip-rule="evenodd" d="M244.507 93.1822C239.352 91.5467 233.485 92.7728 229.396 96.8619C225.693 100.565 224.338 105.727 225.33 110.498L237.251 100.439L227.192 112.36C231.963 113.352 237.125 111.998 240.828 108.294C244.917 104.205 246.143 98.338 244.507 93.1822Z" fill="#0F508D"/>
<path fill-rule="evenodd" clip-rule="evenodd" d="M227.226 73.692C222.07 72.0565 216.204 73.2826 212.115 77.3718C208.411 81.0749 207.056 86.237 208.049 91.0079L219.97 80.9487L209.911 92.8693C214.682 93.8621 219.844 92.5072 223.547 88.8035C227.636 84.7147 228.861 78.8478 227.226 73.692Z" fill="#0F508D"/>
<path fill-rule="evenodd" clip-rule="evenodd" d="M201.792 68.4142C196.637 66.7787 190.77 68.0048 186.681 72.0934C182.978 75.7966 181.623 80.9585 182.616 85.7294L194.536 75.6702L184.477 87.5907C189.248 88.5835 194.41 87.2286 198.113 83.5255C202.202 79.4364 203.428 73.5694 201.792 68.4142Z" fill="#0F508D"/>
<path fill-rule="evenodd" clip-rule="evenodd" d="M240.742 150.285C235.586 151.92 229.719 150.695 225.63 146.606C221.927 142.903 220.572 137.74 221.565 132.97L233.485 143.029L223.426 131.108C228.197 130.115 233.36 131.47 237.063 135.174C241.151 139.263 242.377 145.13 240.742 150.285Z" fill="#0F508D"/>
<path fill-rule="evenodd" clip-rule="evenodd" d="M261.289 123.882C258.8 128.685 253.784 131.966 248.002 131.966C242.765 131.966 238.156 129.274 235.484 125.199L251.026 123.882L235.484 122.566C238.156 118.491 242.764 115.799 248.002 115.799C253.784 115.799 258.8 119.081 261.289 123.882Z" fill="#0F508D"/>
<path fill-rule="evenodd" clip-rule="evenodd" d="M152.252 55.1385C157.408 53.503 163.274 54.7291 167.363 58.8178C171.066 62.5209 172.421 67.683 171.429 72.4539L159.508 62.3947L169.567 74.3153C164.796 75.3081 159.634 73.9533 155.931 70.2499C151.842 66.1608 150.616 60.2938 152.252 55.1385Z" fill="#0F508D"/>
<path fill-rule="evenodd" clip-rule="evenodd" d="M260.999 150.007C257.784 151.026 254.125 150.262 251.575 147.712C249.266 145.402 248.421 142.183 249.04 139.209L256.474 145.481L250.201 138.047C253.176 137.429 256.396 138.273 258.705 140.583C261.255 143.132 262.019 146.792 260.999 150.007Z" fill="#0F508D"/>
<path fill-rule="evenodd" clip-rule="evenodd" d="M263.561 97.5015C260.346 96.4815 256.688 97.2464 254.138 99.7962C251.829 102.105 250.983 105.324 251.603 108.3L259.036 102.027L252.763 109.46C255.739 110.08 258.958 109.234 261.267 106.925C263.817 104.375 264.581 100.717 263.561 97.5015Z" fill="#0F508D"/>
<path fill-rule="evenodd" clip-rule="evenodd" d="M248.69 73.349C245.475 72.3293 241.817 73.0933 239.267 75.6432C236.957 77.9525 236.113 81.1715 236.731 84.1467L244.165 77.874L237.893 85.3074C240.867 85.9267 244.086 85.082 246.396 82.7722C248.946 80.2223 249.71 76.5639 248.69 73.349Z" fill="#0F508D"/>
<path fill-rule="evenodd" clip-rule="evenodd" d="M222.749 55.7709C219.534 54.7509 215.875 55.5158 213.325 58.0656C211.016 60.3749 210.171 63.5939 210.79 66.5693L218.223 60.2965L211.951 67.7299C214.926 68.3492 218.145 67.5039 220.454 65.1946C223.004 62.6447 223.769 58.9861 222.749 55.7709Z" fill="#0F508D"/>
<path fill-rule="evenodd" clip-rule="evenodd" d="M186.868 44.0295C182.123 45.0728 178.11 48.6611 176.766 53.6777C175.548 58.2215 176.812 62.8453 179.727 66.1105L184.482 52.9327L182.011 66.7225C186.168 65.352 189.575 61.9802 190.792 57.4366C192.136 52.4193 190.455 47.3051 186.868 44.0295Z" fill="#0F508D"/>
<path fill-rule="evenodd" clip-rule="evenodd" d="M159.89 41.216C163.105 40.1963 166.764 40.9609 169.314 43.5108C171.623 45.8201 172.468 49.039 171.849 52.0143L164.415 45.741L170.688 53.175C167.713 53.7943 164.494 52.949 162.185 50.6397C159.635 48.0898 158.871 44.4314 159.89 41.216Z" fill="#0F508D"/>
<path fill-rule="evenodd" clip-rule="evenodd" d="M203.939 48.6727C200.57 48.5195 197.234 50.2047 195.431 53.3276C193.798 56.1565 193.815 59.484 195.183 62.198L200.739 54.215L196.604 63.0189C199.638 62.8465 202.529 61.1975 204.162 58.3692C205.965 55.2463 205.756 51.514 203.939 48.6727Z" fill="#0F508D"/>
<path fill-rule="evenodd" clip-rule="evenodd" d="M243.968 55.43C240.753 54.4102 237.094 55.1748 234.544 57.7248C232.235 60.0341 231.39 63.253 232.009 66.2282L239.443 59.955L233.17 67.3889C236.145 68.0077 239.364 67.163 241.674 64.8537C244.223 62.3038 244.988 58.6454 243.968 55.43Z" fill="#0F508D"/>
<path fill-rule="evenodd" clip-rule="evenodd" d="M146.254 76.4381C149.469 75.4182 153.127 76.183 155.677 78.7328C157.987 81.0421 158.832 84.2611 158.212 87.2365L150.779 80.9631L157.052 88.3971C154.076 89.0163 150.857 88.1711 148.548 85.8618C145.998 83.312 145.234 79.6534 146.254 76.4381Z" fill="#0F508D"/>
<path fill-rule="evenodd" clip-rule="evenodd" d="M142.558 88.2611C137.403 86.6256 131.536 87.8517 127.447 91.9404C123.743 95.6435 122.389 100.806 123.381 105.576L135.302 95.5172L125.243 107.438C130.014 108.431 135.176 107.076 138.879 103.373C142.968 99.2834 144.194 93.4163 142.558 88.2611Z" fill="#0F508D"/>
<path fill-rule="evenodd" clip-rule="evenodd" d="M119.935 61.0606C125.091 59.4252 130.958 60.6512 135.047 64.7404C138.75 68.4435 140.105 73.6055 139.113 78.3764L127.192 68.3172L137.251 80.2377C132.48 81.2305 127.318 79.8757 123.614 76.1719C119.526 72.0834 118.3 66.2164 119.935 61.0606Z" fill="#0F508D"/>
<path fill-rule="evenodd" clip-rule="evenodd" d="M153.015 37.5446C147.859 35.909 141.993 37.1352 137.904 41.2238C134.201 44.9269 132.846 50.0889 133.838 54.8598L145.759 44.8006L135.7 56.7211C140.471 57.7139 145.633 56.3591 149.336 52.6558C153.425 48.5669 154.651 42.7003 153.015 37.5446Z" fill="#0F508D"/>
<path fill-rule="evenodd" clip-rule="evenodd" d="M108.709 29.2237C113.865 27.5883 119.731 28.8143 123.82 32.903C127.524 36.6061 128.878 41.7681 127.885 46.539L115.965 36.4801L126.025 48.4007C121.253 49.3934 116.091 48.0386 112.388 44.3352C108.299 40.246 107.073 34.3795 108.709 29.2237Z" fill="#0F508D"/>
<path fill-rule="evenodd" clip-rule="evenodd" d="M140.931 18.565C137.562 18.4116 134.226 20.0977 132.423 23.2205C130.79 26.0488 130.807 29.3767 132.175 32.0904L137.732 24.1074L133.596 32.9111C136.63 32.7392 139.521 31.0897 141.154 28.2613C142.957 25.1384 142.749 21.4067 140.931 18.565Z" fill="#0F508D"/>
<path fill-rule="evenodd" clip-rule="evenodd" d="M79.1346 15.5795C84.2904 13.9439 90.1574 15.17 94.2462 19.2594C97.9493 22.9625 99.3043 28.1245 98.3119 32.8954L86.391 22.8363L96.4505 34.7567C91.6792 35.7495 86.517 34.3946 82.8139 30.6909C78.7252 26.6023 77.4992 20.7352 79.1346 15.5795Z" fill="#0F508D"/>
<path fill-rule="evenodd" clip-rule="evenodd" d="M100.243 7.36751C103.613 7.21433 106.949 8.90022 108.752 12.0232C110.385 14.8513 110.368 18.1794 109 20.8931L103.443 12.9098L107.578 21.7137C104.544 21.5419 101.653 19.8924 100.02 17.064C98.2176 13.9411 98.4261 10.2094 100.243 7.36751Z" fill="#0F508D"/>
<path fill-rule="evenodd" clip-rule="evenodd" d="M60.4489 27.0574C63.6641 26.0376 67.3227 26.8025 69.8725 29.3522C72.1818 31.6615 73.0271 34.8805 72.408 37.8559L64.9744 31.5825L71.2473 39.0165C68.2719 39.6358 65.0528 38.7905 62.7435 36.4812C60.1937 33.9314 59.4289 30.2728 60.4489 27.0574Z" fill="#0F508D"/>
<path fill-rule="evenodd" clip-rule="evenodd" d="M150.541 17.3424C155.696 15.7068 161.563 16.933 165.652 21.022C169.356 24.7254 170.711 29.8873 169.718 34.6581L157.797 24.5991L167.856 36.5196C163.085 37.5124 157.923 36.1575 154.22 32.4538C150.131 28.3652 148.906 22.4982 150.541 17.3424Z" fill="#0F508D"/>
<path fill-rule="evenodd" clip-rule="evenodd" d="M194.285 21.2294C189.129 19.5938 183.262 20.82 179.174 24.9086C175.47 28.6123 174.115 33.7737 175.108 38.545L187.028 28.4855L176.969 40.4065C181.74 41.3988 186.902 40.0439 190.605 36.3408C194.694 32.2521 195.92 26.3852 194.285 21.2294Z" fill="#0F508D"/>
<path fill-rule="evenodd" clip-rule="evenodd" d="M181.049 3.06602C177.679 2.91262 174.343 4.59807 172.54 7.7209C170.907 10.5498 170.924 13.8774 172.292 16.5914L177.849 8.60778L173.714 17.412C176.748 17.2396 179.639 15.5907 181.272 12.7619C183.074 9.63894 182.866 5.90723 181.049 3.06602Z" fill="#0F508D"/>
<path fill-rule="evenodd" clip-rule="evenodd" d="M127.631 5.84071C124.261 5.68808 120.925 7.37342 119.122 10.4964C117.489 13.3245 117.506 16.6526 118.874 19.3663L124.431 11.383L120.296 20.1869C123.33 20.0151 126.22 18.3656 127.854 15.5372C129.656 12.4143 129.448 8.68258 127.631 5.84071Z" fill="#0F508D"/>
<path fill-rule="evenodd" clip-rule="evenodd" d="M136.071 0.00953536C139.441 -0.143098 142.777 1.54225 144.58 4.66508C146.213 7.49331 146.196 10.8214 144.828 13.5349L139.271 5.55185L143.407 14.3558C140.373 14.1839 137.482 12.5344 135.849 9.70606C134.046 6.58323 134.254 2.85151 136.071 0.00953536Z" fill="#0F508D"/>
<path fill-rule="evenodd" clip-rule="evenodd" d="M212.866 31.3013C209.651 30.2814 205.992 31.0462 203.442 33.5955C201.133 35.9054 200.288 39.1243 200.907 42.099L208.341 35.8263L202.068 43.2603C205.043 43.879 208.262 43.0343 210.571 40.725C213.121 38.1751 213.886 34.5165 212.866 31.3013Z" fill="#0F508D"/>
<path fill-rule="evenodd" clip-rule="evenodd" d="M200.367 2.29102C205.65 3.45281 210.117 7.44789 211.614 13.0332C212.97 18.0919 211.562 23.24 208.317 26.875L203.023 12.2035L205.774 27.5567C201.146 26.0307 197.353 22.2761 195.998 17.2174C194.501 11.632 196.373 5.93806 200.367 2.29102Z" fill="#0F508D"/>
</svg>
